<mxfile host="app.diagrams.net" modified="2021-07-13T08:42:21.867Z" agent="5.0 (Windows NT 10.0; Win64; x64) AppleWebKit/537.36 (KHTML, like Gecko) Chrome/91.0.4472.124 Safari/537.36" etag="IK-MAqXkpOFl9zw1WOi0" version="14.8.1" type="github">
  <diagram id="iz_ziZV7d4R7db7fIo0L" name="Page-1">
    <mxGraphModel dx="2249" dy="762" grid="1" gridSize="10" guides="1" tooltips="1" connect="1" arrows="1" fold="1" page="1" pageScale="1" pageWidth="827" pageHeight="1169" math="0" shadow="0">
      <root>
        <mxCell id="0" />
        <mxCell id="1" parent="0" />
        <mxCell id="RjzgLx3yJ-NzdkcLcUKh-17" value="" style="rounded=1;whiteSpace=wrap;html=1;strokeWidth=2;fillWeight=4;hachureGap=8;hachureAngle=45;fillColor=#1ba1e2;sketch=1;" vertex="1" parent="1">
          <mxGeometry x="-110" y="420" width="120" height="60" as="geometry" />
        </mxCell>
        <mxCell id="RjzgLx3yJ-NzdkcLcUKh-18" value="YUE-CLI" style="text;html=1;align=center;verticalAlign=middle;resizable=0;points=[];autosize=1;strokeColor=none;" vertex="1" parent="1">
          <mxGeometry x="-80" y="390" width="60" height="20" as="geometry" />
        </mxCell>
        <mxCell id="RjzgLx3yJ-NzdkcLcUKh-21" value="" style="rounded=1;whiteSpace=wrap;html=1;strokeWidth=2;fillWeight=4;hachureGap=8;hachureAngle=45;fillColor=#1ba1e2;sketch=1;" vertex="1" parent="1">
          <mxGeometry x="250" y="420" width="120" height="60" as="geometry" />
        </mxCell>
        <mxCell id="RjzgLx3yJ-NzdkcLcUKh-22" value="应用模板GIT仓库" style="text;html=1;align=center;verticalAlign=middle;resizable=0;points=[];autosize=1;strokeColor=none;" vertex="1" parent="1">
          <mxGeometry x="250" y="390" width="110" height="20" as="geometry" />
        </mxCell>
        <mxCell id="RjzgLx3yJ-NzdkcLcUKh-23" value="" style="shape=cylinder3;whiteSpace=wrap;html=1;boundedLbl=1;backgroundOutline=1;size=15;" vertex="1" parent="1">
          <mxGeometry x="400" y="300" width="60" height="80" as="geometry" />
        </mxCell>
        <mxCell id="RjzgLx3yJ-NzdkcLcUKh-24" value="VUE2/VUE3" style="text;html=1;align=center;verticalAlign=middle;resizable=0;points=[];autosize=1;strokeColor=none;" vertex="1" parent="1">
          <mxGeometry x="430" y="330" width="80" height="20" as="geometry" />
        </mxCell>
        <mxCell id="RjzgLx3yJ-NzdkcLcUKh-25" value="" style="shape=cylinder3;whiteSpace=wrap;html=1;boundedLbl=1;backgroundOutline=1;size=15;" vertex="1" parent="1">
          <mxGeometry x="400" y="410" width="60" height="80" as="geometry" />
        </mxCell>
        <mxCell id="RjzgLx3yJ-NzdkcLcUKh-26" value="REACT" style="text;html=1;align=center;verticalAlign=middle;resizable=0;points=[];autosize=1;strokeColor=none;" vertex="1" parent="1">
          <mxGeometry x="440" y="440" width="60" height="20" as="geometry" />
        </mxCell>
        <mxCell id="RjzgLx3yJ-NzdkcLcUKh-27" value="" style="shape=cylinder3;whiteSpace=wrap;html=1;boundedLbl=1;backgroundOutline=1;size=15;" vertex="1" parent="1">
          <mxGeometry x="400" y="520" width="60" height="80" as="geometry" />
        </mxCell>
        <mxCell id="RjzgLx3yJ-NzdkcLcUKh-28" value="STORYBOOK" style="text;html=1;align=center;verticalAlign=middle;resizable=0;points=[];autosize=1;strokeColor=none;" vertex="1" parent="1">
          <mxGeometry x="425" y="550" width="90" height="20" as="geometry" />
        </mxCell>
        <mxCell id="RjzgLx3yJ-NzdkcLcUKh-29" value="" style="shape=cylinder3;whiteSpace=wrap;html=1;boundedLbl=1;backgroundOutline=1;size=15;" vertex="1" parent="1">
          <mxGeometry x="400" y="650" width="60" height="80" as="geometry" />
        </mxCell>
        <mxCell id="RjzgLx3yJ-NzdkcLcUKh-30" value="NODEJS" style="text;html=1;align=center;verticalAlign=middle;resizable=0;points=[];autosize=1;strokeColor=none;" vertex="1" parent="1">
          <mxGeometry x="440" y="690" width="60" height="20" as="geometry" />
        </mxCell>
        <mxCell id="RjzgLx3yJ-NzdkcLcUKh-31" value="" style="shape=curlyBracket;whiteSpace=wrap;html=1;rounded=1;" vertex="1" parent="1">
          <mxGeometry x="10" y="390" width="20" height="120" as="geometry" />
        </mxCell>
        <mxCell id="RjzgLx3yJ-NzdkcLcUKh-32" value="1，创建命令" style="text;html=1;align=center;verticalAlign=middle;resizable=0;points=[];autosize=1;strokeColor=none;" vertex="1" parent="1">
          <mxGeometry x="20" y="390" width="80" height="20" as="geometry" />
        </mxCell>
        <mxCell id="RjzgLx3yJ-NzdkcLcUKh-33" value="2，判断项目是否存在" style="text;html=1;align=center;verticalAlign=middle;resizable=0;points=[];autosize=1;strokeColor=none;" vertex="1" parent="1">
          <mxGeometry x="20" y="420" width="130" height="20" as="geometry" />
        </mxCell>
        <mxCell id="RjzgLx3yJ-NzdkcLcUKh-34" value="3，问答交互" style="text;html=1;align=center;verticalAlign=middle;resizable=0;points=[];autosize=1;strokeColor=none;" vertex="1" parent="1">
          <mxGeometry x="20" y="450" width="80" height="20" as="geometry" />
        </mxCell>
        <mxCell id="RjzgLx3yJ-NzdkcLcUKh-35" value="4，完成问答，回调，拉取远程模板" style="text;html=1;align=center;verticalAlign=middle;resizable=0;points=[];autosize=1;strokeColor=none;" vertex="1" parent="1">
          <mxGeometry x="20" y="480" width="200" height="20" as="geometry" />
        </mxCell>
        <mxCell id="RjzgLx3yJ-NzdkcLcUKh-37" value="" style="endArrow=classic;html=1;entryX=-0.008;entryY=0.367;entryDx=0;entryDy=0;entryPerimeter=0;" edge="1" parent="1" target="RjzgLx3yJ-NzdkcLcUKh-21">
          <mxGeometry width="50" height="50" relative="1" as="geometry">
            <mxPoint x="160" y="440" as="sourcePoint" />
            <mxPoint x="210" y="390" as="targetPoint" />
          </mxGeometry>
        </mxCell>
        <mxCell id="RjzgLx3yJ-NzdkcLcUKh-53" value="" style="shape=image;verticalLabelPosition=bottom;labelBackgroundColor=#ffffff;verticalAlign=top;aspect=fixed;imageAspect=0;image=data:image/png,iVBORw0KGgoAAAANSUhEUgAAAZUAAAFXCAYAAABqe9OEAAAgAElEQVR4Ae2dy5EsyW6mWwDabEabWXHBFUWgBG3GBSnN7EcfqjBKUAGOoTlf9XdwAHePfFRlVmGRBuB/uWeEV8R59Ln3j3//93//r3/4h394yuc//uM/npL76P3GPlefR6/3WXmvcv1X15Y9Zs1nXaNZ5zk/+3Ndf+51/eOZL5U5WD/3YM29n3s/Z+BnnoF5qTzpd2nzA/Uzf6Dmvs99/+ln4GEvFf4Y46df0K/6/nP952H2VWdv1p2z5zPw10sl/3n2rQ+oW33e0PS3H9Dd9c/3ubrWaFbcShO+3T6qbGO7fGsf1d+750ft496c1fe497p+tb+7NuzL392YezIqDG7q7c+guHYfv1PxDQkizycX+hbPSe5OwwHZ6V6Jf8aeV9e/4jLm2X1ctzxXWGj43HOtr2Zc1Xd7i5yOe3Wca7D6Dmhu/S5f7V/tu/rextyTU2FwU29/sbQvlbioVy/6Vf0jb9xXrn3r93j0nld5FWfMPd/HmPuKB4taac0/o3/Umo/KecZ3PMn8qfuvvrcx91zHCoOb+okvlbgRq5ux4p55o75q3Xu+0zP23GVWuDH3fCdj7iseLGqlNf+M/pFrPjLrGd91lfnOe4/vdev+s28337PW6voP9w//9ce//du//fVb/nwTuoseukrLxaw4e7qe9eCdk7E84/Ue0IChAaeaP+nxRc16cyd81tzr5zvmfXWz13ePvsLgonZ8h9vb9eHlkzXgVPOBxVxx6OBc4XIlz5kdRp4zVljF2bvq8UatdCscb+XbYXirfLjIoM+6Dmdd8/Rwp9VrumdfOafSsDbVHjCquen//p3N5ZfK7uLFBc+ajHmmp9qbsZiNnfTkWbvC4KqaMzy7x2vM/TP4KhOsqnk/eQ5PhZF1K4d/V3N+nvP+grfGfdaydtaAU827fxYfa+QPa0XNe8hzpbH/hM/6PFdrkpu5PKPLmZ4rj/lVb6/78OQ5Y/fyq339NO6hf6fCxTu9Qda573IqTdZ2mg7Hv6s7f8Ubc89axtyf8uhyrbKsqfhTLHIq7S7f/Emf18hz3sct/GofV/Ou6vP+V3u5oq324ewdb23Vd/4KP8W8TuUxv+rxUq3dYRV/xW/tT+8//aUSN48bSI2b4J6bkrE8o8Mf/KlmpXMu/U5f8cbcV5nBVx+0UTNvzn21FnzHVfgpRja18sGd1pyR58gx5p41MhazP+hyzT544+6Dz3PGgq8+ZO9qlV95drodX2Ua6/wVfoqd5FvT9axHte4EC40/2W+O3prp//uPwJ7yUomLGxfdF5k5VzTgzKsMa+jtdw9f1VNdeHfaijfmnr0Ycw+/qytPxVUYa1RcxvKMN9dTXfZ5zhl5Dq0x9+RUGFz2g594Ks0Oq3jWPKmn/p1ux+/20vkr/BTzmpXH/K4Pf5VxijnfHvfWTP/336VwLdqXSncRA+84QqNWGmPuT/SdhjV3eZnf5ZHrmjM8u8djzD1rG3N/4icDba45L8+V3xr3lbbDVnhwp5+r64feHvfdnk40eb95Hfgqy5j7zgPe1ZyR5/BVmPN2vLVV3/kr/BTzOva4t2bVd54KN+aefGPuKx5s6v//x49xwfKnuzjoOh58dxM6nnzzxuhZJyoYnjxnDbwzTnu8rGWfuR3vPZGx8meuyieH7DyfZKCxlzw4V+uM05u/0oc/68mkmkdfcaEDd638xqqedTqO/ODde854ldVheKNaY5z+Cm9t1ZPpiu4Es4Yef647Pus9h9eze3KpK67KwUe1f/q/f8H48TuVZ1yU6sY8Y53J/PuG+lq80/XPe82zv9dX9q+6r6+8JrN2/fP3U6/LvFT0K8p4YFSfdz0cr/IArK6psbi+nl9l377v7M/Y9PMwnTPw+xl46kvFF/w///M/29+WoltpVhx+16t6e7+yr/adsTyf7PcWz0nuaH7/oZprMtfkJ5+Bh71Udg+tHR83odOAU09v2FV9lRsZq489K13m7HMfOs/RZyzP6DvcGSsNOVPnoThnYM7ArWfgjz///PO3h9itYX5gRb/75HXsh8tYntF19aq+ywl8l7XjyV7pzEW/+5BJtR8sqnH31kw/D5I5A3MG7j0Dv/xO5X/+n//xX/5cDV89rHZc8P7E2p2nw6v9nmi9rnvnnebY0/WrrIrLWJ69Tsd1uL3v0P+v//1/l78I2vFf/R1ffX9ffX1m/fd/qX28VOJlkm9ohWXNao4HWfepfH7w0Vf+8IJXOcbIMbbqs551qppzsjfzzFlXZVvjPjLyTK5rl2nc+mf28SC992FKRpez45/5/U6yr+4P/Un2aN7/Qfyd7uFTXyq+ULsH4Y531mlPJvXEl7V5JqPCAzv9kJNrlZs1V2f2dNX3SH33Mri6xi5nx19d79H6K/u7on30PidvXlS3noFfXir5dyZ57hbhoeUHorFVTyZeauDZhxbOc9WTRa00Gctaz11Phnmwqq50mYu5+5CdeXCqebCuou34W/FHPSB3OTv+1v0/yndlf1e0j9rf5MzL5N4z8PFSyUGnLxT74oHk+bS3b9fDU1droKGutHBZ67nrOy94rs7pODTU0HW9M6yxB5xqj/vgdxrrT3sekFH5ZC84NfMxB1fhYCueXKo9+My5Z20w9BmvZtaB8+ze2fTmp58H/jucgfKlcssLJb5sfhjxgKqqL07HO48+V+e4RweWZ/Bcs85z15NhHqyqK11w5k96r2F94MxUY/Y9u68ekvnBnPdgHq7C4KJ2fIWDUcnxTE9FU60VGuvc46uwKqvDyJk6L5hXPQNPf6lUX9wPuMybi96f0MJTs58583lGl2vWee56MoI//eBxxZsx5t36oes0xrOO/GfW6mFqzD37OMXQR608HW5t1VfYai3rrXPfaSq8wpw1/bxYXvEMPP2lwoMy1+5ioAveD0L6XKscNJnrcOuyxnPX4zcPVtWsixmMig+uqmhc8VPhdjO6Z9XqAWks+uqT92NP5mLu+Ao3Rh/VPWuAMVdrVRrrKw985a0w9FPnhfKqZ+Dj/074ERs8fXBVusD4sBfr6HNF64rGWPQdbl1o+NiTvXm21nlVX3nRZc5z1+ONas0Jbs0z++oBacz9ah87XcdXuDH6XNkLOHPUjOXZWvpOU+EVRs7Ueam86hn47aUSf59y79+p8GCL2n3yBbEHLnsDr3TozRtzjz9jrGXcPT6qOfoVhybqSpc5z11/km2v9bkP3ak2e1dz9YA05p6cUwx91MrT4Vnr2f0tfu/Jfc6Fy3jMGUM7dV4or3wGfvvjr3tfKn4gufdF6PDQmOv6rCPberBcO02HV2t12g4/3cNuLee7Jx+MCn6lhvcef7UWD0g/JHeYtZFpPb3XAnM1X2VUPFjk0FOdbT7j5jrvThM+csmYOi+TdzgDv71U7tl0fhh1c8a9prmqB6PizTN4VR+hrTICO/3kfZFHhV/loYl6xedMZ0w/D605A3MG7j0DD32p5M3kB13wFWafefqo9FWGOWet+pxZaXe5mc9zlRlYp6vwCltldGsOPg+LOQNzBj7jDDz1peIv0D0cTzUn/tMs66rea7mvtCvsHu8qd7h5OMwZmDPwqmfgYS+V3QN0x8cF6jTg1NOLeVVPrn3u4U9r5+3w09zRzQNlzsCcgVc9Aw97qcQX9MMy+t0nXxT74TKWZ3RdvaqPHHvcd2uAh3b1ydn4ps4DYs7AnIHvcgZ+eanwX35Rr37J1QN4x+WHcazdeTq82u8VbbVm3leeqzXB8tp5RveZtfqvjk7Xv/e/RrrXf7rP0c0Des7A152Bj5dK9W9TKuzKzcoPYM9Vjh+69PbQh9d9lQVGDvOuWk9P3Xkzb5/7rPuMmQf6M14qZO++x6lulzP81z0w5trPtd+dgY9//Fi9QCpsF9jxu4fqju9yVziZ1JU2uNBZS0/t/PhuqV3ms/B7XiqrPT0rd7XmcPOAmzPwemfgl5dKfonkubuBfpiiMbbqrY8+tMbsBc864+7JopqretYKzh73lW+FXfV6D6vcW7lnPfyflXvr9xzf6z1s5p78jHvy8cdf+YafvlDsu/oAxWvfroenklFVNNRKA4aGCh41sPwx3/VVVqcFZx3mR9fVwz84Pnld8M4Pju6K3x568nLOzD/jwTT3+X3vc/lSueWFEocgP0R5QFbVh6bjnUefq3PcowPLM3hUc+7RVBhcVUO/+lSez8K6h3XG88z+Vrg593ijrvDM5dk507/vQ2fu3fe+d09/qVQHaPWQNpcfzJEFT63yrYPf6Ve6Uy/rrvQrjj08s548qEPT6a7glbbC4vtWeIU989pM9vd+2M39/Zz7+/SXSjxEq093g9EG7wcwfa5VDprMdbh1labC7KFHRwV3XXHWPatfPaiDg6fmfVzBK22FxRoVXmF5PzN/zoNirvNc59MzUL5UTs1Zlx+YeUaf8Zj9qXR4ckXrisZY9B1uXaUJrPp0vkprzL7P7rsHdcbzzD6v4JW2wiK7wiuMfUydh9ycgdc8A7+9VOLvU+79O5V4gMYN94M09/lA2ANXeSodetb0nHv8GWeu+ApDHzXzeV5pzZG18mf91bl7UBuP3rPXWOHm3J/6rYu+y8i6mV/z4TL35Wfel4e/VPxAdO8D1uGhMdf1WUe29WC57jQVX2E51/NKv+IiI/idxmud9vGAzp/shQ/cvWfwqPYzw5vb+fGQkfU5a+af+bCa+/4e9/23l8o9Ny4/DLs5417TXNWDUfHmGbyqK23FVViVCxb61Qfd1Pf4IZn7NPdpzsD5Gfj4x4/PuGjVw7jCvLZ5+qj0oXVfzc7r+pyJLmffkl9lrPLhpp4f3LlWc63mDLzmGXjqS8U3ffWgta7rT/wnmi4f/BUydnvY8XyXqFe09k3/mj+wc1/mvrz6GXjYH3/tHl47Pi5U1nh2311Ua6JffU4y2NPVHO+jWyfj9rivdOwnc9W8yqr0g81Da87AnIF7zsDDXiqxCT/AePCtarXxnIHGOFiuWZNn9B0efObyTEauoes+5GbeGV4n9/bZc9I760Q/mnmgzBmYM3DPGfjlpcJ/Tky9Grx6gK04r2Nd9N3HHnp7O6zSoI2a+Txb2/X20FPxrGZz7vFeqff6r6x1r9b/FZj/S7B7c8c/D8k5A593Bj5eKtW/TamwKzcnHmjdZ5eTH4Z5tj+vYS56vNSKzxloK9xYlWXMORUOhi7mrkdbVe/ptK9yvgqrXiIV9lX7m3U/76E01/q9r/VTXyo+HH5QGj/tT/wrzYrzHrJuN9sbfafvcPzB5w95GWfG21V0UTvNq+DVC6TCXmW/s4/3fvDN/Xve/fvlpZJ/Z5Ln7kZUDy9jqz4yM19hWRNz3k+HgZORfcwVj9ca+lytpXeN3h/70RmLHpwKn2dwKnyu8O9Q56XyvB/8d7j/s8f3vP8fL5V8A09fKPbxADN2tc8Znt1XueajzzMeOPPBVTgac/Tk4fXcYVnDzDrMVHBqxplzRZ9r1p3M8XDnE3p6HvrMzlphFWcva2Rs5vd8yMx9+1n3rXyp3PJCiYPDA4xDFHP3QZNrlYEmc+BU1mJ2PfGGHl2uZIEz7+qpPnT+kIufmnFmV2u73vqTnhcI2t0cOmvcdxl4Ki2eqT/rATX3+/3u99NfKtWh8IMu85nz7N6+wPl0ODzVuugDX1X06Jh39VRv3a43n9fP3G7O/m7OD/rdHDnWuGeNCjvh0Ex9vwfO3LPvf8/++PPPP3/7u4lX+Z3K6oGYuTisFcYhPuWybjezbuhu+VT785pVbww/+/B8Bcu+auYlQLVmhwVffZyR+yoza2b+/g+pucfvdY/L36ncehPzwy7P5HZ48Obc77jMsxY1Z4HnmnUxrz7Zz0xOrvC5ogu86zPnjOyJufrgsR5sV3nIU63fYRV/xW/t9O/1kJn79bPu128vlfhdyr2/U+GBVT3UwLqDZm+lwY/OGmPWdb299M4ILM/oVtWers/+Tme820/WOPtWzhnuu5dDxmM25p48Y+4rHmzqz3pAzf1+v/v98JeKH2LufTh2eMc7o+pXvhXnrKzLs7W5D23WV3PGIscYPZV1mKngq3pFu8qBqx7+5oJH4z40zFR8VHAq+NT3e7DMPfu59+y3l8o9hyE/wLo547FmxmI++dibM/xdVtxKt9sD63f5K9xc1VcYezUHVtVTXeUd7Oc+GObez72/9Qw89KWSN1E90Cos+26Zd7k7njVPdeh39SQva2I25t7rdfhVjfXTz8NkzsCcgXvOwF0vlVv+7uU//uM/fvmvzXZz/nJZn/mYTzSV7xTr8jt8lXuLZ5U33DwQ5gzMGfjKM/DtXirxkObDhWW+pZLhGjme6cGp4Kt6RbvKGW4eJHMG5gy8whm4+aVyy+9S4gvzEI26+1QXCD9czgA/qTlr5cnreMbnPPfwVT3VVd7B5iEyZ2DOwKudgZv/74TvfalwIfJDNc/oqJnPM7qTequ383X4ai+3eFZ5w81DZs7AnIGvPAM3vVSuvlDiwVl9Tr945eVhTD3Nsu7U261/guf1Tjyn+3L29PMgmTMwZ+AVzsBNf/x19aXiL+oH5uoBa497+wO/JYO8nAW+qivPimOvObvyVFj2zTwPkDkDcwZe8Qxcfqnc+0LxA9O9L84KzxwzlZw8g7ta496a3K905tyTcQ9GxtR5kMwZmDPwymfgS14qPFyjdp/qolkL7yywqODGcp81eUYf+OpjXdU/AiNj6jxQ5gzMGXjlM3DppXLv71LiQvDg5iFdXRw05sB2FQ865qpWmgrDu+JCY979yn+qI2PqPFDmDMwZeOUz8GUvlbgo8UDtPvmi8fDtKnmuOSPPZJ3g1rq3F5xqLvoKP8Vy1szzYJkzMGfgFc9A+1LJvyvJ85Uv4wene2d0eGjMue+4rPE67jtdhQfWfcjERwWndv4KxzN1HhxzBuYMvNMZKF8qvECo8YXc3/MFeeBWD9KMVevgh9vN6KqavZWmwla+q1ylr7BqH4PNw2bOwJyBVzsDv71U/PKgpz5i89UDE4y6WidrdvOVrJXWXKzpT+aY897AXU801nc9+3kW3+UOPg+1OQNzBnwGtv/48ZEvlFg4P0R3szeb/Z034zmD+YoutP6Q4UpertbkHm3Gr87srfPdy3e5g88DZc7AnAGfge1LxeJH9H6Iund2h4fGXNdnnbPd229811e+jMWcsSr3RFP5Bpsf5DkDcwZe8Qz89sdfz94kD1Fqt17wlQaMGn73zutwNDseXa7Zl2f0HQ4f9URj/fTzIJkzMGfglc/AU18qtz4wO1+H5wucdXnOes+VtsLsmX5+yOcMzBmYM/DfZ+CpL5W4yKcPZOvc+0Z1uDXdmp/hzfuYeR40cwbmDPy0M/DQl0o8uK988sXmwe+6y8sZMeM3V2HwqzXIyxq8U+ehMWdgzsCcgb/PwMNfKqcXd/eQr3JWHvRo8kugm/FR8Xdz4FmD9qdWrq2vjTFfl+raoc0VHzgz61S4NdP//YP+E67FV58H1o+6ut47vvI6232lXWF4V5pbObIf9lKJwLyZCgtNh8N1fId73UpTYfa4t9Y9mgqD+8mV65JrvibwJ7i10XsOf55z5mqu8lb6n8Y98vrcm3XqP9XFvbyiPbn3kWddnr1mxdlb9ZWnwiovmPXu4e+pznvYS6XakBeq+Iyhp3Z8xpnDV3krDA8Vr2twnnOPd+rfD/i4Rly36rpwDTOHz7ixymfevtP+Xv/pOp+pe+R3eqWsR+6F+/HITLKiumctV3hjV/urGZW+wq7uA72zXuKlEhvypnIPnytfiArPHJUsqjn38F211rkZ/6nzyXXLGl8ruA6Dp4bOvX2n/b3+03U+U/fI7/RKWY/cC/fjUZnkdJX1qOiYb6lXMyp9h1X4ao9Z/5B//Biht36qzbJJaqXJGFoqPDM143lGl2vowHJPxlfV2Bd7o2dmr8zw3itYVa1b9c5nzazPGvO7tSsvmHNW/cka1pAFFrP7zAdnDXOly1ylAaOyduU1R4+PCk4Fp4K7wp3Wzht4ZHR85tCzrucqo8LwUq2hh4sKFnWFZx36rjqLdTJ2ZWadez1VTmAVvlor6z9eKv/rf//f/6o+q7AVlxcKbYWtMk49zs09M7XLhO9q9qHb7f+z+NhP3pPnzJtbfbes674Pulyth8vr5dk6/MboqWhWtdIac0+OsejzjI660thrPX3UrPHsvtKSk3Ur3Fr3Kw9cVXOG5+g9h9+ze7KNdT1aqnVgUSvcmPuV3jr6XfU+uuysWc2st9JkrvJUWPadzDnnKX/8lRdhYys8uFs+ZFNZI9fgyUfrCueKBx2ZGYf/yuq9sQ9j7ne8te7xVTV0aN1bC07NHDM5zFGN0VOt6/pKa8w9GcbcV3xglabTZv3KSwY1tJ3+Cm6te69Dv6uV356KN+YenzF6KppcO77CKyzyAq+4CkO/qqd7zLpq7vZQaY1Vvgqz57TPOQ9/qcQCeZHYXIWtNo2eutKaC709XW+Pe+sD99z19n9V772xB2Pud7y17vF1FS3VuozdM+Olep2ur7TGoq8+5FnbYZXG2qv5eKn4Y+7WWuH4XZ1NT+2y4F132oo35p5cY9Hzga+qPeYrPGPOz1xkVZhx+Fy9D+szfjKTfaK1pvJVmD2nfc55+EuFjcRCXsw9mq7uvKuszO1m74F17TnpnfFVvffJHoy53/HWusfXVbRU63ZY5k/mrPF6ua+0xtxnb8wVn7E8O2fFdfkrf5d3FWeNyldh6HPdaSvemHuyjXU9Wqp1YFEr3Jj7E72zrY8cPlnDnNcCP6m3eitfhZ3sodI462kvFRaOxbwgeFWtzR5mauUPLPN5rjTG0FNZh5kKflrDt/I+gs978Xo531z4PHd9zs8zPqr5HXaVD33l8Zruszb7Mx9eY1f1XjtnwTm/0pjPvWfycoY17tEbc09OxvB1Nes9u8dvzP0JX+nDd4qHztrce672A0a9ou+0FU4+tdME3nGVt9Oe5JDn6rynvlS80GqzFYeXGl+g0vmLoTGGnwrnuesrbbUGulWNNbxO1t7D43V+xuDAvT5YpYGzvuvtt4YM+OCMue98aDLvedeTETW0zPiYqeBoqfjh0bvCuZrPGeisAaPCxewentpx4FT0VPCogTHDn1Q8ZDjnCrbS7taAz/sFJ5sZneeqB4uKx9V8pcm8NXDOq3p7zF/xdxmRd5rjtenxPuWlQjiLua6+UNZ1WvIrPmNonU2ftYFnLM8rL9wr1u57vOJeX3FPc/1+1v/kyyuewXfZ08NeKvFDx2f35U9+QE801TrZl+fKY8x699bQ73h0X11jn3y+ei/vuD7X7l3u9zte49nz93lpP+ylMofi+xyKuZdzL+cMzBm49QzMS+Uf5vDcenjGN2dnzsCcgXwG/vjzzz/Lv3TKwpnn8MwZmDMwZ2DOwO4MzO9UPvF3KvzZ/O6mDD8/uHMG5gy86xl42kvl1R+gX7G/r1jzXQ/m7HseqnMG3vMMPO2lEgciHqKvfDBefX+vfO1mb+/5Az/3be7bs8/AvFQ+8Y+/nn0zJ38eGHMG5gx89Rn45aXCH8+4XtmgffT2g1HhPLuHp8JRMx4zXFR4qjl6uOy131p6813GCd5pqnyvTW//9PNAmTMwZ+Crz8DHS6V7iJ1ucOc/4a1xH3vIc8aCzxrP7vlOxtx3fNZcnfOeWafDne8eX4XBTZ2Hy5yBOQNfcQaWL5UrG6oecMbck2vM/Xfh+R6u1fcMvsKNuXfe9PPgmDMwZ+CVzsDHSyU2FQ8uf65stHroGXOue9awtsLscV9pK+wr8tmHa7WP4P2d3Gdvx1k3/Txk5gzMGfiqM/DxfydcbaB7AJ5q7Xf/Kn7vyf0z9kdmt06H46vqLZ4qZ7B5AM0ZmDPwqDPw8VKpHlAV1i2ctTEbc0+GsZ3e2s4PTrXHffC79dBUWR1WrYGWmjUr3Fr3lSf4SoN26jw05gzMGfiMM/Dxx188lFyvbiB7mclhpoJHDYxKb95c9jPbd4KhYR1maoWvsLxHtBnP+ejAqeAn/spj//TzQJkzMGfgM87Ax0vlMxZbrREPxRU/3PxAzBmYMzBn4PXPwEu8VPhV9rxYXv/AzA/13KM5A3MGVmfgJV4qqw0ONwd4zsCcgTkD73MG5qUy/zMt88eOcwbmDMwZeNgZmJfKHKaHHab51eT7/Gpy7tXcq2edgZd4qfB3KvEl+XsVY/7y8BlD74oGjDkqWFTj088P2+4McHZ2uszj686c+U6TM/NMRsavzN3aZFOvZH4n7a3fH1/Uk+uRdfZn7jTPGScea/Aaq/qXeKnExrhIueZNw5/g1kbv2WvmrJO5yjvx/RTNd74+t3y33dnLfJyTCludH+vdrzzmwsPHePRVXoVl33ecu2u0+q75WuU5ezOf59BXWM5hrrQVhr6qoT/xfPzjxyrkMzE2m2veQ/fF8FlvrPKZt++0v9d/us5n6h75nR6Z9ZnX4BlrcS2iumctMOaoFWbe/RWtfVVfZZ1iVd5gf9/LuI5cS2q+PhV+iuUs5nv95JzUt3qpcGGo/oI7DJ4aXvfOOu3v9Z+u85m6R36nR2Z95jV49Fpch67GenBeu8LMu7+ita/qq6wrWKWt1vkpGNejq74OaIx1/RVtlXGvv8oM7K8//opwFqBnDhFY7gmFryqaXWW9XO3bcXn9nZc861Z9zs/+zJMFHrP7zJOHhrnSZa7SgFG73ODN0eOjglPBqeCucKd15TUXPZnGA8tzpbMf/qR22XlddOCr2q17ZY9oWZe5y17hp95Kx/qr/BWHf5WNhhxmPHmudGjhTmuXHX5z9OCrytpX9nRFS77rVT/fZ+VD8/F3KgDdwpnP4Z673tm5x5OrdXCBuc9z5jq+0nk995XWmHt8xqLPMzrqSmOv9fRRs8az+0pLTtatcGvdrzxwVc0Znt3jzVjMxrq+8uPNFW2uzg4uz8bgupqz7a24Cots8uHzDL6rJ74Tzc5yZ2EAACAASURBVG6dzOdMz+7xZSxmY11f+fHmijZXZweXZ2NwXbU2r5PnyCAncyfzI/zVOt7TLy+VLLbQPTpjJz2+qoafDPfWglMzx0wOc1Rj9FTrur7SGnNPhjH3FR9Ypem0Wb/ykkENbae/glvr3uvQ72rlt6fiM5bnq37rd31eK8/2w3XV2ujRZXw1V54KW2XA7Xw7npwrdZdZ8RnLs9evuAqzZ9Vnb57thesqWnjmVb2irXJu9Xc+4y/zUokvzsaovhgZu2fGS/U6XV9pjUVffciztsMqjbVX8/FS8cfcrbXC8bs6m57aZcG77rQVn7E85/zg88eaK321VpeNtqteF42xk77yVditWfhuzcTf1V1uxWcsz14ruOpjzZW+Wivnk4e2q+iiojHW9Ve0VcYt/pUnuPi87Usl34D8ZU/mrKkuPFilNeYej2vFZyzPO/89fLfWVZw9VL4KQ5/rTlvxGcuz11hx1p32J3nW0Eflk9dCk/GTufJW2K1Z4bs175418VZrZyzPeJ+x99VarGsNfVQ+6HJFa/wUs8f9vX6yqhw46qWXigPdR5jnrmfRruKjWrfDrvKhrzxe033WZn/mw2vsqt5r5yw451ca87n3TF7OsMY9emPuyckYvq5mvWf3+DOWZ3RRK67C7Fn12ZvnvOYj+CrDe8y85+g925f7SncFq7R5jWrOPs/u8WYsz+iiVlyF2bPqszfPec0dn9fK+jxX+ZWG3IqrMPRd7TzG/3qpBMCHMGbErvQrLZqo9Oi7io6KjgzjxtzjiWqcPvOedz0ZUZ2Pzzwac5XHmP34XM3nfHTWgFHhYnYPT+04cCp6KnjUwJjhTyoeMuwxZz7j5k781pz2eY2TPWSN18ocM5o8g+eKLqo5cGO5R+OKxph7eCoc89WKP2r2mjOfcXPOyDpzV/u8Rs7OfORnzW7NnLHyw60y0VBX2szhcbXG+MfvVCyo+jBV+GBn/7Mmc/3OrtOrnqd8//L8qvuefT3m3OX7nee5zn9f56N//BgXkM9cvL8v3um14NrNQbx+7U6v8bN1vodzH9/3Pt56Tub+n9/zo5fKrTdifOc3Yq7VXKs5A3MGvsMZOP7jr+/wZec7zA/tnIE5A3MGnnsG5qUy/38q83dlcwbmDMwZeNgZeKmXCn9u+dN+JcH3dv1p1+A7f9/qvu6w4F/tmrDnV9vX6X7eff+n3/OrdU95qdx68271ffVFfMT68d2dk2dzP71/9Dl5dF51f6r7acw9/gqD+4oa+3m1PcV1ON3Xqe4rrq3XfJd9es/uH/5S8aFz70Wn//3PNPO1yvNcs/++Zr4u7k+vT+fp8NPcna7KN+aerAqDm/rrz9B3uVb+Hu4fdb+fkZn39tSXSl5s5l9/EHw98s3Os7U/ub/3unT+Dn/Utc75uznWzZpH7eU75nyXa/Xs7/Hs/Dhbl14qsSF/fDiN05vf9Xiidlpr6K0Fcw2eudJWWKV3DnxU++/pndnlXtXk/dhvDvwUQx+18sCbO+nxUe0BczW/6+2jtyewmOGYs2bFW1v1znSP1ph7+F0Njz/owWKmjwpPNUdfcWBUa+mjwlPNVTy6XPEFvurN53x8Gc8e67I2c5nP+74yn2RnTc43v+LQoclz4Mboo5pjzjnHL5UcQDiB1EoHd1I7f4Ubc886xtw/gyfz1pr3t5tjnZ3GvPsTb9Zk/1U+9KvPLh9vpYM7qZ0/8Mx5ds86FQZXVevdWxt4x1mX+8pjrMrNvDPNneLZ49k9eRUG55p1numj0uPNc+AVlnFr6KlkZ4/xe/pqnW4ta913+qt4lWms69/6peKb5y9onL7ijbmvPBWP7hG1yjfmnvWMuYfvamizPs/hNea+yq34Cqu8eS00lb/C0J/Uzl/hxtyzToXBVRU9NWuMu8+6aq70xtzjN+Y++DxXHrBO7wz3+CoMLldr6akn65NnD1j2W0NPtecZfbdOhVcY32XFVfuu9BnLs3PM/fHnn38ufwWJ0aarGPqTWq2DLzh/wKnmck6ew2Mse5nJRg9urzW39lWeMa/rnvWsBcsVX+BZn+dOQ0bWG3ef99DNOa9av8O6zAqv1ulyrfV3cl+t0WHkUa07xexx7z25R3OSX/nwU6uc4CrcmLPdk7urZOHNa8I75xRbZTmDtale61G913Mma+ZaaQJb5dhDX+kzlme8rBd8fN7mdyr+AvSrL8kXXWntd49nV2/xdJlVljH3VcZVPuvzHGtUmNc2796a077yn2Kna4Suyuxwa91fWS9rI6fKOsVyHnPlh4ta8cbc25f7TlfhxtznzJMZf654wZmjnmJZa597Z2dP5m6du/U6nHUyn+dOt8JzRp7xRjX3Ni8Vb5ovY8z9CR96e9yf+POFzHlknNa8/m7O6+9m51V7NU+WMfd8J2PuKx6sq6f+StdlVrj9XY/vCo9nV51pbYVXmD3uK60x9/gyFrM/6FyzB67CjblfeeCq6gz3oc3zFSxrnUVP9b6MRe/Zuit9l1HhxnLv2esb7/rQB2cezFnurT1+qRDKYg6puMx7A1XvXHrrwFyv8KHNXmZymKng2bvi7TntyXOtvOaj32kyjz9w9+jAyGa2HgwN3kpj7qR3ds7PXOZP8tGQlWdnoukw4+Sc1JXPa6503Tqd3zjejFXrGbOevssKHM0qA/9pzVn4dmvl/aDv/Obpq4qfGhr6q/U037q8Blzg7lc6c3iiOsM4vX30cJdeKpinrv9Lprk+c33e7QzwIPG+K8z89L+e87le/3095qWy+U9d5wfn1x+cuR7f93rwK03q3Ovzez0vlL+v1bxU5qVy82/Z56Hz9w/SXIu5FnMG/vsMzEtlXirzUpkzMGdgzsDDzsC8VOYwPewwza/U5lfrcwbmDLzV/53wd/+z3q/+fl+9/skD6Zl/dn3y/Xfr7/iT7/hoDd8r12qdV9x/tc/BXvfl9S1fKvzwvMrBO93Pqe5Z3+ur1199L/YWdaU74cjK2g4PHVy3/o7Pa+1m8na6U77atzHWM3aaPbrHP+C5H+94bb/dH3/5h8L9Z92cbs0O/6x9fZd17r2O9rs/vT47z44/XSd0z86q8ivsyp5H+7gXzLvei2/9UvmKA94dhA7/ij2+85r3Xsdn++/N9715dlaVX2He0/SPe2nsruW73otfXirxJfzhS2csz5UuNBmPufOi7erOZ56+y8q49fRROx0a82CumY95xcPZZ4/70HY6cipN9jCfeKyhx7+q1rrPHjhq5mMOLuPozWXMM71zwKIaz/09vNeocjJfafJ+Tucq6xRjjbw/cKp5MFfz9Cve3D39aq3INe8+rwnnan/g1UxO9oFTzdPDRQWjmlv16KOi22GVFm9U/O7xfLxUALKROfO7mcXsP/Gg72rOyLodn/XM4ctez+7toadWuuACz1ye0ZHluvPnrDw7a9V3vgqvsC47tNa7D0+er2BXtNU63vOz+CrXmHv2U2FwV2tk5U+V0a1Z4cbcR+5uzpqsz3y11yvYLj94a9xXe8k8GuNdj9b7txbcmPuKB+vqzn8vH+tGRnw+9aWSv3D1RbImzzvPjs95zJXPmPtTD7qoz/bn/Dx7L6u+83X4Kstc5TfmHt8pVukrb+g6vMoAc73VX/mMuWe9CoO7Wk+zOl2FV1jsK/DM5Tnvv+IrLPtO5yrLmHsyjbkPPs8dRpZreLM/zzlvxzu/653hPq+F3xr3Fe+MX14qYcwfAmzqFshe69yTWWFwXd15dvyVXGe5J+MUC/2pttKd+sPLhz1erd367IH8la5as9Ibc4//FKv0lZfvgL6qnQ/trXz4qs8qd7cW3pN6mtXpqr1nLZrYT+bA0GTeuPuT73aiyeuxH7w7Hj17w+daZWQeDRU+z4Ebi7764D+pOc8ec+DG3Fd8YGh+eakg7iomqnUVtuN3Hvvpd54dT06ulc+Ye7ynWOhPtZXuxN/52OtpvZJzr9Z+9+z1FEMfNTyVD82Kw4+2qrf6b/HtPNX+Ouw0q9N1OOtlPs/oXK1xb82j+irfmHvWNOYePteVJnO7ObKtcZ/XvTJHTpW1w3a897t8qZwE8YV22h1Pzq5WOfbseGvdVz5j7vHtMPPuT/3oop74Q+OP/ad9tc7p+qs12BeavE6eb10zr8N61GoduG7NR/DVusbcsw9j0Xv2nk76U2+nq3BjuffM98n7tMY9OmPRe0ZzWrM351VzzkZDrfiMMYfHvefAq9mYe+fQn9bIOc2yzj37rbDgfvnHjyHyp9poDrLGXuuMo68wuKpaT28dmKv5VV95dljwXSZeeGZ7MuaZ/qofPdXrgXWVNV2tNU5vfteHJzQrLxzVmWCu5umDp3e1j/4z+ViLdaleP/Oec599u5n1onZaa+izFpza8YFnDbNr50dT8Rm7MpMbNXzM9FR4Z68wclztpYfv1oGPWmnMoyH7tK58u3zz3p/x6H95qZxubHSf99+qn17ruJlZW2FZ81nzZ+3ls9b5rOs26/z9s/bMe7vLrvgKe/X79Rl7/vjjr1e/GLO/v3+4umsRB8afTvfZ+GfsiTU++7vNevtz+YhrFPf3ETlVBmdnt4Z1O221zldi7P0z9jAvlflfKX7aD+tnHOBZ43Me6nOd5zqfnoF5qcxLZV4qcwbmDMwZeNgZmJfKHKaHHabTX8mMbn7VO2fg+56Bl3ip+M/7+LNKYz6A8BlD74oGjDkqWFTj03/fw/7q9/b0TN56Zp1/awY/O9W1fFR+lT3Y+c/lPfd2dZ25vzvNS7xUYpNciFzzF4A/wa2N3rPXzFknc5V34vspmnuuzz3ed72+J2eT65K1J9+58lTYKmu1fpVVYav8U459nOp/io7r8hXX3Wu/5Uulumg7jC/tA1Z5zO/6e/27/K/gH/mdbsmyx/1XXItb1rx1z/iiuq/2AF9xHVZ5KqzzG698p5hzbum9jvtbsr7C8xl7/ow1umsXa7/VS4WLRfUX22Hw1PC6d9Zpf6//dJ3P1D3yO92SdYvnM6/Pbq1b9o+nq3lNdBlfzZWnwlYZcKe+ShdYhZO9q/d4d9mfwX/G/j9jje5axdp//ePHaNgIPXOYwXJPMHxV0ewq6+Vq347L6++85Fm36nN+9meeLPCY3WeePDTMlS5zlQaM2uUGb44eHxWcCk4Fd4XbVXvoswfc1Rrj0cMZDyzPla7yX/Ha3+Wj2VX8VPTMt9Zbc058nSbwjlt9D3yuWW+O3howKhxz1MDyXOnQWu/efMbJJ5cK7gp3pea1d17WC92u32UH//Ev6h3GJhyQeXNspvOBryp5udoDF5j7PGeu4yud13NfaY25x2cs+jyjo6409lpPHzVrPLuvtORk3Qq31v3KA9fVKie0FW7MPdnG3Fd5mc+a4LMmz9nDPjoc/646p8vKmt3Mmjtdxa+8wa34Ku8K1mVXuDH3rGfMffC7OWtCf9XDPnIWeM4D39Wrvqz37L7bp/cT+o8//srmHHCFt9a9F8996NC6tw6cmjlmcpijGqOnWtf1ldaYezKMua/4wCpNp836lZcMamg7/RXcWvdeh/60Vjnh7XByK96Y+yov81mz41f7yFloqWR3FR0VHfPV+hn+e9fovlOX2+HkVLwx9+HZzVmT9Zlf7aPT4rlaq73sMuyhp9pbYZl/mZdKbIwNU/NmHzWTT3Vu11daY9FXH/Ks7bBKY+3VfLxU/DF3a61w/K7Opqd2WfBVXXm8btZljtlr4KFmDo8rms4DT6105lbZeHPFT4VnvlLv8bLOacapjtyTusoMzh/nGXefNTEHbxzMPnp0nQeeWunMkbvSoe/qLV48rB/ZYF6nwjL/ti+V/KXzlz2Zs8YXJ/eV1pj77M17hc+ePKPr/Pfw3VpXcfZQ+SoMfVeveKx1v8uutBXmnIo/xZzj3n76qHysdY/W2El/qy9nVzmnWM66OlfrdBnWut/pK22FOafiTzHnuK/85rv+Fh+eXPMa8BlnDv7SS8WB7iPQc9ezcFfxUa3bYVf50Fcer+k+a7M/8+E1dlXvtXMWnPMrjfnceyYvZ1jjHr0x9+RkDN+qdp4KN+ae/FOM/eKj2u++4ivMHvc7bcWDRe2yKhxfxRmL3jO+qla6K1ilrdapsM5b4cbck3uKhX6n3fHVmva4r7RgJ7XKuurrMjqc/OD/eqlEw8ekseiDM7bSrvT4crXHHGvCB2fMfedDk3nPu56MqKFlxsdMBUdLxQ+P3hXO1XzOQGcNGBUuZvfw1I4Dp6KngkcNjBl+VdG6Wm+c3nz04NTMo6lwOLxR0Z1iWc9cZTsfndc54a3BS1au8LmiA2euKhpX64xHb44eDfNpxedqr3F689GDUzOPpsLh8EZFd4plPXOV7XzrVr33Qb/SZ85rug8dea72G//4nYoFVZ8XqTSD9f9TCnP9+msz52auzZyB73MGjl4qfgvNzb9+8+f6Xb9mc87mms0ZeM8zcPRSmZv7njd37tvctzkDcwY++wzMS2X+p+8//mz4sw/frDcPvDkD3+8M/PHnn3/OQ2VeLHMG5gzMGZgz8JAzML9TeeBB8t+dzF/Mf79fgc2vqueezhnYn4GbXio8POcC/32Bq5dIhc01+/uazbWYazFn4PudgcsvFT8o3b/L4XjWnqvcCnuX6zT7/H4/7HNP555+xhm466XyGRt89BrPetBXuRX26O8zefOgmDMwZ+CVzsDxSyUekPmTv0jm80M18/iNB5bnSuds9Fe89nf5lQbtSb3Xf7LGaOaBMmdgzsArnYHjlwqb7h6UFW7MfZWV+d0cGdZE7znz1ZpgV7X2dX3eS6cbfB4IcwbmDHynM/DUl4ovVPWQNeY+fLs5a7I+8+yl0nVaPFdrt8bVnNHPw2bOwJyBdzsDD3upxBePh6k/vhjG3WcNOcbB7KNHFzM99RSzntzKi25Vb/WtMoebB8ucgTkD73IGPv7vhE83fOWhaa37bi00VOsqbMdXngpzjvsr2vBd1Xut6eehMWdgzsB3OAMPe6lUD1Rj7rlwp1jod9odX61pj/tKC9bVnT/4StPlDT4PmDkDcwbe8Qwc//EXD0VXf2Hj9OajB6dmHk2Fw+GNiu4Uy3rmKtv51nW99+AePRjz1HlgzBmYM/Adz8DxS+U7fvn5TvNDPWdgzsCcgceegXmpPPB/+2sO52MP51zPuZ5zBt7vDMxLZV4qH3+MOD/A7/cDPPds7tmrnYF5qcxLZV4qcwbmDMwZeNgZmJfKHKaHHaZX+xXT7Gd+Ff+dz8DuPyba8c+6Ni/xUvF/GcWFMOYvD58x9K5owJijgkU1Pv3PfhC9+3lY7f/kzKO55ecAL/WWjPCE/1bvT/HtrtGOr67TvfeNzJd4qcRmuAi5slEqPDO1wo1F7zl8eSbrpFZ5J76fonm368N+7zkTX3lvd/vP3yvPsXdj7k++V6WvsFVW6PmsdFe5Z2Re3cOj9btru+Or/dx6nbLv8j9+rDbzCIyLkGvOzl8AHh9zVGOVz7x9p/29/tN1PlP3yO/0yKzPugbvuGdfm27/4FHd4wVjjlph5t1X2gqzp+tv9XV5gZ9m7nQ7frWHR3K7fez4W/fS5Rp/q5cKG6f6wuwweGp43TvrtL/Xf7rOZ+oe+Z0emfVZ1+Ad9+xrU+0frKvhh9tlmXd/r3+XBR/rVGvBd/XUs9Pt+G79Uzzyd2vcy5/updJ1axv/64+/AgCkZ45gsNyzKHxV0ewq6+Vq347L6++85Fm36nN+9meeLPCY3WeePDTMlS5zlQaM2uUGb44eHxWcCk4Fd4Vb1azPM17j0YNTM581mcfnmj3B2VfN+K2rctDlis+4MXoy85x9nqO3r5qN2YvP2JX+Vv/KF9yK7/aHBz8zeuP0cFHBXOHBrINzRedqfudHG376qna816XHz3yLNzLwRf34OxVCWcRCeozMKy2cPWBVRZertXCBuc9z5jq+0nk995XWmHt8xqLPMzrqSmOv9fRRs8az+0pLTtatcGvdrzxwVY0M53Q93kfyVSZYVK91MmdN+KsPa+T87Ge2zv1JDvpcySaDio75Sv0qb7fH2E/eU57DW2HO7PjAzbnvcrPG63T9ztPxGc8z63X4jg8f3l9eKhipiGJ2v+OtdY+vqqFD695acGrmmMlhjmqMnmpd11daY+7JMOa+4gOrNJ0261deMqih7fRXcGvdex36k1pl4Ks4Y+7xuFb8KRY5WbubK4/3k/ucV/krzZUc/LlWa3VYXq+aya+4E+xef7VGlXmKOa/yBF/hxtw772q/y+n4jOeZfXT4jrfvZV4qsWk2RuWLmAPLmiszWiqZq1ppjUVffci0tsMqjbVX8/FS8cfcrbXC8bs6m57aZcHnutJ7TffOMJ6z8hy+U4w10FPByQo8f6xZ9V2mPZXGfPSVBqyrO19eYzWzxkqz4x6RkdeoMk8xZ1We4Cs8YzH749zTPmdm34o/WXvl775nxt/2pZK/SL4YJ3PW5BvkudIac28ffcVnLM94o664W/gu7yrOHitfhaGv6kq/4qqswOxxj/4Uy/qrPvyrepJZaXJmpwGPysde+B1mPvdVRtaczI/K8VpV5im2ywn+kVlez321xim/85Kz03W88UsvFRvdx4Y8dz0b7yo+qnU77Cof+srjNd1nbfZnPrzGruq9ds6Cc36lMZ97z+TlDGvcozfmnpyM4evqSl9xxtyTb8x9xa8wuKhVTod3WufRZ23MFYa+q9mDrsIz5tl9ZMScMbLhPWds57d3t86Kd477yrPDrvChtd59vhbsK2vQVTgc3qp2PrTB+wPuepKB3lr3f71UqoUyhgmc4KhglQbO+q633xoy4POaFd9pcq7nXZ/XYcbHTAWPGhiVHh69K5yr+ZyBzhowKlzM7uGpHQdORU8FjxoYM3xX0blWWvPRW5O5zIc2a676ybDP/Srfuq63PzSec58zMh/zTpN5r5k58jPODJ9r5pmrmr0xZx2ajK9mPM6rMDLgmHOteLIrLvzgrjnXusyRn3HmW3h7vC96snPNPHPU0H78TiUb84wh4zOf/c+azPU7u05znuY6veMZePbP9y7/Fn7nufU+HP3jx1icz60L/WQf1+5ZN/EnX9v57vMS+uoz8C4/397nM59FRy+Vr75ps/48OOYMzBmYM/AeZ+D4j7/mhr7HDZ37NPdpzsCcga88A/NSmf8/ld/+MvQrD+SsPQ/EOQPvcQa6P0J7iZcKf9YXh4mNGvMhg88Yelc0YMxRwaIan/49DnR1n7inFXeC4V+dCTQneZ1mld95wB+xPllUMnOFd71n786Z/n1/zuLerc7BS7xUvEk2S82H7wpubfSevWZe42Su8k58P0XzFdfnnjVPzoY17k/vKfu7xRtr2Of+dP2VrsozFj2fVc5wv78svuN189nI9/wtXyrVF9ph1Y2tPPkCreZ7/avsr+Ie+Z0emfXs68Feo7pnXTDmqBVmvutv8VWeCuvW3OFV1im2yx7+/KxU19zXb8db+8x+tY+3eqnwRai+aDsMnhpe98467e/1n67zmbpHfqdHZj3zGrDPrsbacN5HhZnv+lt8lafDKrzbC3jlOcXImPr771K4JtW1hHPd6Xa8s27pI3+3xo7/66XiIHobwWKT7tk0WFXR7Gp4yXe1L2syl9fPfM4lz7pVn/OzP/NkgbP+ymfNSpe5vFbFB8YHPRXcFY5qLnpwauYrDVpXfB0GT16ew1dhVV7OwLuq5nKm59OePZzqQ1d5OqzCd2tVnlOM7ND7A05dcaExT4+34s2d9GS62mc8enPR7/is90yeMzJvDj2azJmHC617vFQ4VzgqHHNVQ1PhYB+/U6nCbM68uQjz3PUsWlU8uVoLl9fLs3X4jdFT0axqpTXmnhxj0ecZHXWlsdd6+qhZ49l9pSUn61a4te5XHrhcT/yhsc49eRVWcdbRdzX8cGR1mPmur7I6LXjlqTD0V2tk5U+V0a1Z4cbcR+5uzpqsz3y1V2M7/72816r6yM9r5Dl8Fea8jg/cnPsuN2u8TtfvPMH/8lLJQQ5wj87YSY+vquEnw7214NTMMZPDHNUYPdW6rq+0xtyTYcx9xQdWaTpt1q+8ZFBD2+mv4Na69zr0u3rirzQ5d6cJPmuYuxprwHm9CjPf9bf4Kk+FdWvu8NOsTlfhFRb7CDxzec77rfgKyz7mnbbijbk/zUQX9dRf6XY5J/m7XK+x6nc5wf/x559//vLHTg50gHs0xk56fF0lg2pdxu6Z8VK9TtdXWmPRVx/yrO2wSmPt1Xy8VPwxd2utcPyuzqandlnwrpU2Y3m2n36nCT5rmLsa2XCs02Hmu77K6rTglafC0F+tp1mdLvDq433AB1blwFMrLxzVml2Ph2o9WK5oMs4Mv6uhz5pTzL7KE3yFZyxmf5x72ufM7Av+ZX6n4gtTbXyHZf5kzpp8gTxXWmPu7aOv+IzlGW/UFXcL3+Vdxdlj5asw9LlW2ozlOWfEvNMEX2nA4JlZI88na+HNtcrKmjxXngrLvtP5NKvTdTjrZz7P6FytcW/NPb0z3VeZO77yGKv8p9guJ/hHZnk999UaFX/ppeJQ9/lLmXPvDVQ9Wqo1O+wqH/rK4zXdZ232Zz68xq7qvXbOgnN+pTGfe8/k5Qxr3KM35p6cjOGratbGXGGV11j2dFzW5Tl8GfPsHm3GvLb7ShdYhXe+TnuS40z6Lg+e2ukq3FjuPUd2njO249lfV3f+e/luXfBdfqXbecxHn2cyo5oD77AK7zLIMv/XSyVC+CBiZgFX+pUWTVR69F1FR0VHhnFj7vFENU6fec+7noyozsdnHo25ymPMfnyu5nM+OmvAqHAxu4endhw4FT0VPGpgzPC7ij77jdPnLHBXa8ADo49aaeDN0Xdch+OLisYVHoy5qzvdjq9y8USt+MCsoc9acGrHOw8NHlc4qrnowU9q9lb+rMm5Oz7rme1bYZljzpU844HFXHHG4dE7w7oKz5hn5338TsWCqrepDDPZOgAAHrxJREFU4gfr/xv1uDZz/dbXZ87PXJ85A7efgWc/X3b55o9eKmHgMzf++o3n2vnCz3W8fh3nms01mzPw+xl4tefL0UtlbuTvN3KuyVyTOQNzBuYM/H4G5qUy/9P3l/5sen6Ifv8hmmsy12TOwN9nYF4q81KZl8qcgTkDcwYedgZ+1P+dMH/2OL+q+PtXFe92LV7576VOztcr7//dzsJX7Pcd7t/JOXzmtZuXyvwK5aZfoXz2wWW9Z/xQk336g9bpOzxy4aKervNTdFybV/6+7PEZ94/sR33/R+dd3de3++OvZ9z0qxf1lfWPvD6PzDq9Zs9a8zTXOvdfvf/T9V9Vd8u1/Irv8qx9Piv3K67RvFR+2O9UHnl4H5l1evifteZp7qmu+z73+rvcd8ff5bo8a5/Pyv2Kc/HXSyW+EF+Knjk2BZZ7NgxfVTSris/5gWUPOqp5MNeON577zh86c9Fn78nsDPQZy3Olq9bvfOE3R08uFZwKTgV3hTupt/qcHRme3Tu/01mTvcyVxhg9+qhgUY3nfsU7Y6XLmcz2g7mapzff9da6z3q4qJlj7jT2rDRw5LnCua54c6d9ZHdar9vprHGO9Z3G+q5fec3ROweMCueZPip8rh+/U0FsgY2ZNxcez13v7Nzn/FUmXq+zwuBypvGKc757fBUGV9Wsr2ZjXU/2ijeHPuoV3Fr35FUYXK5Zm+es7+bOV+EZW83m3Od9rLjQ3spXvgrL+2HO2t18sley0TrTPXzWe95pnOeejIzdO+f9RF71YX1qXneFZ+1qNuee/Ks1Z+Q58oy5Zy1j0XvOfjxRf3mpmMimHLjirXWf8z1XOmPu8Z1i6KNWnhWOt/JVGPpcT7QrTcVVGN9lxeW94cm4M9yjqzC4VQ3fPd4qu8oz5n7lP9VVGYHd6q98Fdatazx82Ztn60/6yl9hkRV45vKc14SnZt5zaLLu6sw+nXvS53XwVLgx93hc4anmbulzTp5zZsUbc4+3woKbl8r//zuV7gL5AoYmf+B3dZcf/pUmr8vsdY11WSscvyv5la/C0FeV3OCuesnrfBVuzD1ZrsHzMZ77k5zs8dz5WTtXe3c93tBV68BTd3nmu7ysQUeFzzM4NXg+YLmar/Lgd9xKl9fMc5Udmgo35j5n4g/NTld5K6zKIZ9qX6dHs+PRRZ2XyoWXii/c1b66KTljpVlxkZP5PLPWVXzl67LwuGZtnq1d9Z2vwo25r/LNu8/aFRfaW/mdL+8jz9mf56w/2as9VZ4x91V25p2d9ZU2Y7t5lZ+5K3NeF2+FG3OPx9W8e2uu9CcZ1rhnHWPuKx4s6qWXioPdR5DnrvfCubcHzpj7iq+wU0/lDcx+950evKs5Yzc7J2uDM5Z7z12ONe7RG3PP2hnDV1Vro/dc6Tus81V4xlbzivNess5c9Lfyla/C8nrM1kbvudtX1pBV1ZyZvZ6zljxr8p5WXKXNejSsnfk8o4965VPldFlZu5pXHPlZs9p31uaZTDIewZPx1z9+jIGPFzGGwdhKu9Ljo5KJJ/AdZi05VLzMOa/i0cJV+eYqnoxVdQY6Y/RwrnBUc9Ebd7/SmcNDNef84D1nXTc7132nN47e1Xz05qLPfNbA23eiQY8/e27hqwznn/Re132VHfxJJhr0ORfea+S+0pBnLRhrMOMHt8ccPbXzOwftruJxzR5z0Wc+ZmvgM5Zn+/Dsal7fmfQ5A5wKzxy1w9AEf/wv6h1I8NRrv8qZ6zXX613PwKv//Ff7q7B3vf67fefvmued/5H8xx9/rUJjg3xWuuHmoTln4PudAX72v/JBdXKuvM9X3+vJ97mieaXvfvRSufLlRvv9HipzT+eezhmYM3B6BualcvEv6k4v7Ojmh3DOwJyBn3gG5qUyL5WPv3z7iT8A853nwT9n4LFn4CVeKvx5YNxc/izUmG86fMbQu6IBY44KFtX4V/bs6av3cOv67N81snZz1qBnH8y5nvKn+eRlPXi3Pvyu2m+tcfdojOV+pYGj2gsWFbzCgsu4Z/uzNuu6mfVdrTXuHo0x91d59FGdU/UnWjT4mXM+ODrXSpt5/K9SX+KlwoWrar5QcUEzZp85a7kRHW/8q/pqj5+1F9b2NbuyduUz5j5y88xaV3Br3a+yKh37yZxn9+hZ56Tu/Jn3Gua6nj2YB3MWWNbFXGHoqVmzw+F3Nefu5sizxj1rGXPf8Vnj2X1eu5ozFv5VRuYqf2B8Kj3cvbXa65XMt3ypVBd0h1UXqvJcuXi3aL9izSv7vHV/lc9Y1+e9WWeuwo25x3eKhT60We/ZPXrW2dXsRW/cfcWvMLiopzlZG77szTOeDvc+rva7TPPuWWeHmXdvf8Y9u7dn15vPGZ7d21P1gVV6tPdU57q/kvlWLxW+JNVfdIfBU8Pr3lnP7L9izSvf59b97Xzw1G5PHV/hxtyTfYqFHi21w8i+Up1pn3H3aE4x9FGveKylp1ZZcNTduuZ3/S7TvHtyd5h599lvruuzJ+ZTbaUzRnZV0VE7zYqvPMbu8ZLzy7+oDzBC+SDy7D7zcK5odjU8ocnVvh3nddHiZ6Z6LTS72uWDk+k1yETjCmdf5UVnr3Xguxx09pJNXXFourrynqwduV1GhRtzz/5OMa9rDz2V3Ku18xt3T/4phj7qFY+19NQqC466W9f8rt9lBu9PznuU3zldz9qZj5kPGipaauD0VLRdRUetdMGt+MoTGD7XrDVHbw3Yx7+oB8gi5szHDBfVc9dbn3s8uVoHl9fLs3X4jdFT0axqpTUWfZ6rPGuu8JXPWPSeI9uz+8x5H1ln7qQPf5UBRu2yOj7w/HFG5lY59tFbT58r2quVnOwzHn3+ZH3M9pzyncd41RvLa6+4al87LOet1uu0gfvjNe1xj8YYPTXvZeW5oiWfSu6qXtGucjquy69wY+4//vjLIAsac7/jrXWPr6qhQ+veWnBq5pjJYY5qjJ5qXddXWmPuyTjF0EetPB1urXvyKoysFYf/nprzPbvPa3Rch+Pf8Tud/fS5OiM4ePCudjrj7rucwHe6iq+wnGUNPZX9xOwPeM4yftrntXKmeffkVxjcKguN/fTU7F95rmjJp5K7qle0q5yO6/I7nBzzL/NSic2xMSobNgeWNVdmtFQyV7XSGnNPzimGPmrl6XBr3ZOXsZjBqGipHQ5/pTqr63OedeY6HM2O3+nsp8+VjKhwxrq+0xp33+WcrFvlVFjOsoaemrUnc2iufLwWPmPu4V0fyZNFjXXcs64x9/Cu5ulztb7r8XT8vfgqPzh/vJbxt32pxBfyBXCfuW7OHl+k3FdaY+7xnmLoo1aeDrfWPXnG3Hd5K5zMrub8nJX5PJN7Fd/54Kmn+aGz1n1k5Zn8qnZa4+6rDLCdruIrLPKMu4cz5r7aS8WjO6mV35h78oy5h3eteGPuwxezMffkGnN/wofeHveVf4XBPaJW++hyrXV/6aVio/tY1HPXd5sDx0cFz/ng1rk/4UNfefDmWmmN5TxzzjLuHk2FBVfhxtxXWeaj94y+W8d811d5xtyv1sk61uvwU36ny/kxG3O/2j/r5LrzZz77mXe6js/4yWyN+2ovOx5PV7N/N0eONe6rNSremHuyjbmH9zqZz5rMx2zMffbu1sl8zjK/6ztvhRtz/9dLJQA+LMqM2JV+pUUTlR59V9FR0ZFh3Jh7PFGN02fe864ng2p9YDFXnHWdBp9r50MDzxz1BKv24Ax6sk4qHld8Gcuz97PjyHStPOZvzY9c55ysY33uO3+Hn/pD5wz6Uz/6qPYwV7yxVe+8rq/81lZ8YGjMg7mad4+mwoILnGoNeOW3ruLByM0zfuP0cHl9+KhojJ30+FztM05vPnrwj9+pZEGew5Cxmf/+c+O5Pn9fizkXcy3mDPzcM3D0UuENNA/O+qDM9amvyzxY5rrMGfh5Z+DopTIH4+cdjLnnc8/nDMwZuOUMzEvl4n/6eMtFHs/8cM4ZmDPwU87AH3/++ef8Xcm8WOYMzBmYMzBn4CFn4CV+p8LfScSbnL+3MeY3PHzG0LuiAWOOChbV+E/ufU3oq2sF52tnjJ5ryZzrKZ/3QE72M2c9OD4q+GnFF9Ue4+7RGMv9SgNHtRcsKniFBZdxz/ZnbdZ1M+u7WmvcPRpj7q/y6KM6p+pPtGjwM+d8cHSulTbz+G+tVV6F3Zp/1fcSL5XYdFyEquYvhO4Et5aLbJ954z+xr66FMfdxffLMNbuCW+t+lVXp2E/mPLtHzzondefPvNcw1/XswTyYs8CyLuYKQ0/Nmh0Ov6s5dzdHnjXuWcuY+47PGs/u89rVnLHwrzIyV/kD41Pp4W6pVV6F3ZJ91fOWL5XqYu2w4LMmz1cv3i36r1jzZJ/Vvox1fc62zlyFG3OP7xQLfWiz3rN79Kyzq9mL3rj7il9hcFFPc7I2fNmbZzwd7n1c7XeZ5t2zzg4z797+jHt2b8+uN58zPLu3p+oDq/Rob6lVXoXdkn3V81YvFS4S1V92h8FTw+veWc/sv2LNk++z2xc8tcvs+Ao35p7sUyz0aKkdRvaV6kz7jLtHc4qhj3rFYy09tcqCo+7WNb/rd5nm3ZO7w8y7z35zXZ89MZ9qK50xsquKjtppVnzlCazyVFjnfyT+10slFmcD9MxsmBnemwCrqnWr3vmsmfVZY363duUFc07Vkx0cfeU1l/nMZT5nozfuvXW8cetP+mpP+MhdaULb8RVuzL3XpKdWOq9rnp5KxtXa+Y27J/8UQx/1isdaemqVBUfdrWt+1+8yg/cn5z3K75yuZ+3Mx8wHDRUtNXB6KtquoqNWuuBWfOUJrPKAOZMeznnm6MnO+o4P/ON3KhaxkIMyb46FOx/4qpKXqz1wgbnPc+Y6vtJ5PfehzXrP7vGdYnl/lX+XFbw17sk7qTkHD3lU8Fw7nlxXe43Tm6cPjt7VOH2u1l/pycke49HnT9bHbM8p33mMV72xvPaKq/a1w3Lear1OG7g/XtMe92iM0VPzXlaeK1ryqeSu6hXtKidzVa6x6D2H37N7so2573g0v7xUEFMRxex+x1vrHl9VQ4fWvbXg1Mwxk8Mc1Rg91bqur7TG3JNxiuX94XfdZe14Z530Oc+z+5zVcR2Of8fvdPbT5+qM4ODBu9rpjLvvcgLf6Sq+wnKWNfRU9hOzP+A5y/hpn9fKmebdk19hcKssNPbTU7N/5bmiJZ9K7qpe0a5yMlflGnOP15h7eNeKN+b+ZV4q8QXYGHX1pbLmyoyW6nW6vtIac0/GKWZ9ePiAR91l7XhnnfbO7PqcZZ25Dkez43c6++lzJSMqnLGu77TG3Xc5J+tWORWWs6yhp2btyRyaKx+vhc+Ye3jXR/JkUWMd96xrzD28q3n6XK3vejwdfyte5RpzzxoZi9kfdFGzNmPmf/m/E3bIyoTOQSc9vq6SQbVuh2X+ZM4ar5f7SmvMPd5TDH2u9rtHZ8x9xYN1defPfJ7JvYrvfPDU0/zQWes+svJMflU7rXH3VQbYTlfxFRZ5xt3DGXNf7aXi0Z3Uym/MPXnG3MO7Vrwx9+GL2Zh7co25P+FDb4/7yr/C4O6pu/V3fLW2Pe7RGnN/6aVio/tYxHPXs5mu4qNat8Ou8qGvPF7TfaU15h7fDjPvvvJnPmZj1UzOSXUWemPug89z5QFb6dF0efDUTpfxmI25P9kP61F3/szjy3Wn6/iMn8zWuGdPxtxXPFhXs383R4417qs1Kt6Ye7KNuYf3OpnPmszHbMx99u7WyXzOMt/1lceYezKMuT/hQ2+P51/+669KBOZK78UDA+969F213xry4IMz5r7zocm8567HGxXNDrMWDxUvc1QwV/NZ45meulo7NNXH69KjYyY3z153x5HpWnnM35rPfsk6WQdtVTt/h+eMlc4c/akffVR7mCve2Kp3XtdXfmsrPjA05sFczbtHU2HBBU61BrzyW1fxYOTmGb9xeri8PnxUNMZOe7xUfMxRO8waerRUcHKYgzf28XcqGLuKqeMHrx/Wn3Vd5v587fX/rPs868x9fsUz4OfP0UslDHxe8Qv99D1xb3xjf/o1me8/D985A59zBvLz5+ilMjfnc27OXOe5znMG5gy8+xm4/FLxr4bpeVM9+mKQ/+jcn5JX3RdfU/ePuibOdH+ab4/7U/9X67xn96f7ssf9qf/ZOu/J/em69rg/9d+r85r0Uem7/B3f+X4ifuml4gvrngtXYXBX6yOzrq79HfTV9TPm/lHf15nuT/PtcX/q/2qd9+z+dF/2uD/1P1vnPbk/Xdce96f+e3Ve0z25FQYXdcdb+5P7l3ypzM27/48AqmtozP2jfgCc6f403x73V/y3+MgPrz/gVHPVOsbc499Ve9zvfJ/Fe0/uT9e3x/2pP3ThO/FWGmPuWb/C4KgnGrQ/tR6/VHwx3fvCdbg1J/2jck7W+q6afA09u3/U93em+9N8e9yf+kMXvnu8eS1nuUdnrOvR7uq9/l3+io+1vX6lNe++0laYPe4rbYfZ5z7rg8u8Z/f2dvhVjfU/sf/4x4+P+PInN2W3ziMydmt8Jf9Z3++z1vnKa/nItavrZcw961YY3LvVV/8uV/YX2it67tWp51RH7k+r81Jp/jHgsw7C7kAGv9Oc7O0RGSfrXNU86vtdXfcWva+he7IqDO7d6qO+S+Q8KsvX8DQTHdUZu/7Uc6rbrfdd+b/++CsuEh++KPOVC3hFyzq57jKqfYE5yxh91NBcncm1jyznuTefcXLIdV1x1u36vP5OHzxrU7MH3DVrdjPenc68Pbs+eHujrzyVzr4dT649z+75HnlvGc+z99VxZHa8M1Y9/pWm4vDlfaDNODN8VGPurVn1p55T3Wqt78x9/J1KdaEqbHcxbvE4c+XPnGf35GUsZmPuw7Pisxa918qaPGcP3kfXat3dGpXHmHuyKgzukTWv49l9rJln9hF45vKMv8LJoZ5o0D6i5vXyHGsEZtw9vPdiPnsrvb3P6PN+vMbJ/lZ+Z616Z3S6E03n/Qn4x0slvqwvlvvTC3GLJ2d3GR2Ov+Izlme81BVfccbcr/IqHfpH1qvrVHpj7h+5z9Msr09PdUaFBV/hFUbWrRz+Z9bYW7W/CmMfKy40FV9h5D2rxprVujss83k+2e+p51R3suZ31MxLRX+nsjoswVUfDkXlPcXIeGSt1l7lV/qMxezPKu/RHHth/cgH81oVdlVLXpVVYeifXWNt1qd6zQqDX3GhqfgKI+9ZNdas1t1h+Kp6utdqjcp7qqu8PwH75aUSX5ibcsuXf9TFrnIqzHus+Izl2X6+e8aYb/FWngpjjUfWq+tU+grzHne8tff2rJVrzoU/wa11jzdjeUb3GTWvnefYQ4WxtxXXeXcesh9ZY81q3VOMvVR6uK6eeE40Xf5Pwd/mpRI3JN9Qz+7RVtjqxma9tRVnzD2+HdbxFU7mab2aUemNuWcPFQbX1fDc4os8+9x7rSu4te7JM+a+4sG6Gv4qo9Nn3N4uy5rsjznznt3jrTC4robnFl/eX5WRsTx7TyvOOvcnnhONM39iX75Ubr0Qj7zgXVbgfPI+wfF6zr29mcNvTfRZB298hWWO2ZUsY7f03XdYZbE21VowV/OnPf5TvXXhZXYfGLmu1oKfYif5WUN2V6/qc46/Q9WDrdapNKdY3k81k1VxK8w++qjZs+JCa54+Z3RztZ61O97an9w/5KVy9eadXvC5iff9z7U8676c3r/R/Xr/5jz/ej1e5Xyc/JzMvTu/dx//+PHkwr7KIZh9nN/guVavca3mofQa92F+Hp5/Hz5eKnOxn3+x5xrPNZ4zMGfgu5+B3/7467t/4fl+80M9Z2DOwJyB552Beano36nMQXveQZtrO9d2zsDPOAPzUpmXym//hc388P+MH/65z3Ofn3EG5qUyL5V5qcwZmDMwZ+BhZ2BeKnOYHnaYnvGrnsmcX03PGXivMzAvlXmpzEtlzsCcgTkDDzsD81KZw/SwwzS/onyvX1HO/Zr79YwzMC+VeanMS2XOwJyBOQMPOwPzUpnD9LDD9Ixf9Uzm/Gp6zsB7nYE//vzzz3mozItlzsCcgTkDcwYecgbmdypzkB5ykOZXk+/1q8m5X3O/nnUG5qUyL5V5qcwZmDMwZ+BhZ2BeKnOYHnaYnvUrn8mdX1XPGXifMzAvlXmpzEtlzsCcgTkDDzsD81KZw/SwwzS/mnyfX03OvZp79awzcNdL5X/+n/9x1wPp1v/jos7X4fniZV2es95zpa0we6afH+A5A3MGfsoZ+NKXSlzk0weyde59ozrcmm7Nz/Dmfcw8D5o5A3MGvtsZuPmlcsvvUuLBfeWTLzYPftddXs6IGb+5CoNfrUFe1uCdOg+NOQNzBn7SGbj5/0741pfK6cXdPeSrnJUHPZr8EuhmfFT83Rx41qCdOg+XOQNzBr77GbjppfKoF0r38O3wuBnBdXyH+yZWmgqzx7217tFUGNzUeaDMGZgz8N3PwE1//HXLS6W6kFcfwOipObPD0QVfaSoMDxWva3Cec4936jxI5gzMGfgpZ+DyS+VRL5S4wPEQPrnQPKzR2gdXVfRUNMxRyaKacw/fVWudm/GZ5+EyZ2DOwHc+A5/yUokH8a2f6uLnB3ulyVjn2eHkZF2eQweWezKmzsNkzsCcge9+Bi69VJ79uxQ/lE8v/InHmtwzU2Nd9+wDrKvZhw7/1HmYzBmYM/ATzsCXvFS6B+4KD+6WT76JrJFr6MjPHnNoOj9eeOap80CZMzBn4Cecgfalkn9XkudbLw4P5ey/+hBGT8153ZzXt9/9ym/Onq63fvp5sMwZmDPwnc9A+VLhBUKNC+D+ERckHsC3PoR3XufmvWZuN9vPuvac9M6Yfh4ocwbmDHznM/DbS8UvD3rqMy4ED+qTbGv9MA8vM7XLy3yeneUMdLmi6XD4XQ0/GZX2Xr7KHGwebnMG5gw8+gxs//Hjs18ofKHVQ7PieABTI6fSkU+1Ho9rpbPHfaWtstCt6m7v9/KrtYebB8ucgTkDjzoD25fKoxZyzuoBWT207aXfZXR8zu90sU7WVlilqXTse+r88M4ZmDPwnc/Ab3/89awvy8O7ewh73UdpnEmfs/OMrqvWu6/0O77yDDYPnDkDcwbe+Qzc9VJ55h+NPeOiPmK/q4wV5++TdXm2dtXf6qsyyaJWmsHmYTdnYM7A7gx8+UslHmKrj7/ASpc5+9yHzvPVfuVfcV4n6/Js7a6/x+ts57i3Zvp5oMwZmDOwOwM3v1Se8eDZZe54vuypLvSh7T7kua6yV9wqo/JlLOZbPl531ef1Vtrh5sEyZ2DOQHcGPuWl0j0MvamTh9qJJjKz7pb1cwZ7vYrjo1b+jOW5+k7krWrOifnqJ+fnzMzPPA+bOQM/+wzc9FK558GSvauHXD6c2Zt55p2u4jPmOfrqw3pRs96ce+vAjbmveLBdvZpT6as1TnWVd7Cf/bCZ+/8z7v9LvFSqw1Y9vAI7/VSZgVW5FV7pjHU965o31uHVHvC5hn/3sd59tTb8ikMT9VRnz/Q/42Ey93nuc5yByy+Vex8q2e+56zms5sGqutJ1XMbzHOsYo4+6+nh/6IyRS17mHjmv1shcntlHh8NPnQfLnIGffQYu/+PHex8q2e+56zmk5sGq2ukCh6Pi382hs6bryev09qGtMLhH1lgnf8jPe8hzpwOf+rMfJHP/5/5zBi69VLoHDWEnNWd47npyzYNVtdKBRaW3N2N5Dq0x986pemvdk5mxLiN0Vz45J6/j2T37yv4VXmkHmwfNnIGfdwb++Nd//dfjf7eRHzy3HJic4bnrWSf40w+eqFWusazZzZW32pf3QG8vPRXNSc2ePFcZWdPNGXfWirNu+p/3MJl7Pvc8zsAf//Iv/1K+VPLDI8+3HqCc47nrWcs8WFVXOjgq/t0cOjTUzmstGipe6kqLp6r2n2bsPPDUat3B5sExZ2DOwOoMlC8VHirUCHC/CtxxkcPHuTk/z9aerNFpTnMrXbeHSlthV/ydlu+V8/OMzjVr8pzXrHjnTT8PlzkDcwbyGfjtpeIHCT01m0/n8PPpPKxBrXQrzvqVruKuYlmf59hLhXX4Fe1pRpUJlivXLnC403XwTp2Hy5yBOQNxBn57qeSD4YdM5q7Mq5zM5Zl1OhyeutJlLs9dRtZ5dt/5V3jlD/0VPGvvmfFS2ftqT9ZMPw+XOQM/9wxsXyrPPhzVgyvWrPDATj/dvp3r3mt2+Cqz2lelz9loKn+lrTDv3Xn0Fb/j2I910//cB8Xc+7n3p2fgj3/+538u/6L+NOAeXfeAJDPzeUaX60oHR73izVrmKqvCQt/hZHU1fDsvGipZK9+tHNlT52EzZ2DOgM/AH//0T//0ZS8Vb2T6OZhzBuYMzBl4/zMwL5V/eP+bOD+Icw/nDMwZeJUz8Mc//uM/zu9U5sUyZ2DOwJyBOQMPOQPzO5U5SA85SK/yq6TZx/yKfc7A156BeanMS2VeKnMG5gzMGXjYGZiXyhymhx2m+RXi1/4Kca7/XP9XOAP/D+ojpS5U6KhVAAAAAElFTkSuQmCC;" vertex="1" parent="1">
          <mxGeometry x="-210" y="528.5" width="403.23" height="341.5" as="geometry" />
        </mxCell>
        <mxCell id="RjzgLx3yJ-NzdkcLcUKh-55" value="" style="endArrow=classic;html=1;entryX=0.373;entryY=-0.012;entryDx=0;entryDy=0;entryPerimeter=0;" edge="1" parent="1" target="RjzgLx3yJ-NzdkcLcUKh-53">
          <mxGeometry width="50" height="50" relative="1" as="geometry">
            <mxPoint x="-60" y="480" as="sourcePoint" />
            <mxPoint x="-10" y="430" as="targetPoint" />
          </mxGeometry>
        </mxCell>
        <mxCell id="RjzgLx3yJ-NzdkcLcUKh-57" value="" style="shape=image;verticalLabelPosition=bottom;labelBackgroundColor=#ffffff;verticalAlign=top;aspect=fixed;imageAspect=0;image=data:image/png,iVBORw0KGgoAAAANSUhEUgAAAzQAAAI2CAYAAACGzc3IAAAgAElEQVR4Aey9a9ckR3klys/wl/k2az74kzz2rDOc5WMuM8wyZsZjzyDZxoC5zMELYw5YFyMEeAQIYWF3I8AWIITaDRwLLEDqbnMVovsgBLK6BbSuNNCSbEA3sBohqVuoJcVZO+vd9T71vBFZGVWZlRmZO9dKRWRcnnhiR1Ro7/fJqn7Wv/u1FwTdwkB7oPke+I8veHH4z//9ZdWNPLDTJQSEgBAQAkJACAgBIdAPAs8SkW1OZIWVsIKA+S+/8/KFG2W6hIAQEAJCQAgIASEgBPpBQIJGESpF6DL2ACIzXtCgTJcQEAJCQAgIASEgBIRAPwhI0GSQWUVoFKHxYobP/Xx8NaoQEAJCQAgIASEgBISABI0EjSI0GXuAAsanOkqEgBAQAkJACAgBISAE+kFAgiaDzCpCowiNFzJ87ufjq1GFgBAQAkJACAgBISAEJGgkaBShydgDFDA+1VEiBISAEBACQkAICAEh0A8CEjQZZFYRGkVovJDhcz8fX40qBISAEBACQkAICAEhIEEjQaMITcYeoIDxqY4SISAEhIAQEAJCQAgIgX4QkKDJILOK0ChC44UMn/v5+GpUISAEhIAQEAJCQAgIAQkaCRpFaDL2AAWMT3WUCAEhIASEgBAQAkJACPSDgARNBplVhEYRGi9k+NzPx1ejCgEhIASEgBAQAkJACEjQSNAoQpOxByhgfKqjRAgIASEgBISAEBACQqAfBCRoMsisIjSK0Hghw+d+Pr4aVQgIASEgBISAEBACQkCCRoJGEZqMPUAB41MdJUJACAgBISAEhIAQEAL9ICBBk0FmFaFRhMYLGT638fF97nOfG9a52/BBNoSAEBACQkAICAEhUBoCEjQSNIrQZOwBChiftvHBv/DCC8M6dxs+yIYQEAJCQAgIASEgBEpDQIImg8wqQqMIjRcyfC7tg9+Gv9dcuy+8733v32EKZaizF57P+JVfzbq9DWtP+eUI/OThR8PH9t8Yvv/PDyw0/tad94ZrvnLLQlndA/p/5OpD4fqb7qxrpjohIASEgBAQAr0hIEEjQaMITcYeoIDxaW+f4B4HPnHiRHjZy/5oQbykRE7MzVOnToU3X/CWcORIc3Ids8OyI9++M+BuckF0pQTWC3/rv4a77747aQZ1L33Zy5NtgAHmhfm1df3gnh+Gr3/z2+HhE480NgkBEhMuj518Ilz1uZsaCRSKmRtuORYVRzFnIJg++MmvJu86YQQRtuezNwTYiF3w58rP3rBDpMXaqkwICAEhIASmg4AETQaZVYRGERovZPjcxpGB182afIfm4MGDC8M98MAD1atqC4UdPawSaYlFceAehMGfvv7/CRBG614g+iD8t935g2xTEFQ5AqQPQQOhdtPhW8Njj59sND8fnaEwSQkNRGDQxl54RoQHtnB5m7ZtKp/bB+0laFJoqlwICAEhIARSCHQuaP79c38nvPD3/ji8+o0XVveLfv+14d8/93cVFZCQKnIPUMD4NPUByylfRdB86UtfCr/8y78c3va2t+UM1WpbCBIIgmXCBPWI6KQiIyxfFiGJOf+jHz9YCRqkuVdM0EC0wI+YTxQ077r43fN6K9p8hAb2aQdpbkQKIgZiJkesIQpiIyEQJ1d/8eaA6Iy/YqIDfRHF8e0Z3UlFUJrYpg0rrugrBQ0iS6y3fmAeNkLD9mwbi0h5n/QsBISAEBAC40OgU0Hz1ks+HA4ePlbdf/3hTwbcfEZdVxGP3/7od8LBay7bYf+N1xwL+z765oXyqu2Wj/RtWeptdDUP2R1eRMgLGT73cTT81V/9VXjWs55V3RdccMHGXFhVmKAfIjIQBKmrSZtYX5D93FeyaMcLGooZCg++GscoDuv5zHqKGitoYAMiDvPCRTFUhwH9YgqR9rVv3BLw2lmTy0ZWSPgpGJb1Z3sKhLq0iXiAPfs9HooZ2xe+MULE8RGlQR4X2lLUWEHDthRXtN10rsuwUL0QEAJCQAiUg0Bngmb/V4/MxQsEAsm5FQtow/J208vCRw8vipeUyImP++ZwycFj4aN/OTxCHfdXfm4KFwoYn/bxkbeC5k1vetPGXAA5XxaRiQmTWBnIP4UAJhBr02Riua9kWZte0Ng65q1IiYkSK1zYljhRGFlbds4sT6UQMhA0TaNPIPQUIhQKsA1hwHKfog+EgRUSKX9Y3qS9FzTsa9M6kYJ2tt7m4bMVRmxrX5Oz4ygvBISAEBAC40WgE0HztvdcHt7x3isrsYIUIsZGaGwd2rZBRleJtMSiOJUvr/ts2Hf4+vBGvRbWytq0sb5DseGFDJ/bOCLWeeXsvPPOa8OFRjZA1Fd5dSwmVtoQNKu8kmUnmhI0fp6MyEDQ+O/+WJFDQXP//Q8kccoRNIg+5Xx/BnNDtOKLX79txytjdt6pvBVEXvjw2QqllB2U1wkaK7BoL9beRmKsoLH96RfSHFFW57vqhIAQEAJCoBwEWhc0L/uTCyoBY0ULozIf+LtrwtkXvje889I9C2IHfbohrIjUNBEms4gO/Uyn3wmXvE7RkG7WqgxcKWB82sZHfhVBg3E3+aMAGI+RB6SpKyZeYmUg/7h5xdqwLpXmvpLl7XhBAx8o2OgbRQpeL8sVND5C48eve6ZYa/rrbbDFV69I8kH8l4kUCgr0j0U+rI8x0WHrbT7WlkIk9RqZfUUNtuoEDWzpEgJCQAgIASHQuqB59998fOFVMysOXnf+uytBY8uQR592SPKqwgT9lomVJm3KIOXtYD3NuXohw+cpHSWW8Nsvu/u8/3K/Fyu0Q9EADH2bJriu8pPG1q4XNP4Zbb2g8T/bjD78rgzbYi6I6tj52XGb5PnrbU2/PwObeBXMCpTYOHWipa4OtmIiJTZGrG2sr426WPFCm7be5uEnRRHbKhUCQkAICIFpItC6oPn4tV9deL2M4uULN9wanv87rwjXfuXmueDha2jo0w7JhuhYFpGJCZOdZTu/c7OzTTs+T1MYlIodBYxPp3R8kKgjTV3LhIn9Ij1ev4IY4itdKZup8lVeybK2vICx4gTt8Gz9Q4QGYo2vjWGuEDMULhQ0mCP6WmHHebOt9SOWR/QJP3bQ9PszMRssQzSDAoCiJfY9GNaxn09josS34bNv6wULnynA+Ew/GW1iJMYKGraFv7wkcoiEUiEgBITAtBBoXdBAwJCsUswgveDdl4X/8J9ePBczvh37rJdCdMx+Vc2OvTPvozE7xYoEjYRWbC96IcPnNo4NvHK2zt2GD01skMD7iIx/tkSedkno0daTegoHRjrYpy5d5ZUsbw/jejFFkUUhc8MNX58LE75ydsUVH53/HDPFDWxbQcNni42ft/fHPq/z620g93jtDGIBP3VMUQD7VrRYkcA6vq6WSilArK+xPESHf4UMIop2YYeiCj6xPb7/wzYUN7DvfcUzbMTaxvxRmRAQAkJACIwTgdYFzdVfuHFHhAbfmyE5RJ4CgxEa9GH9eimESXsRmsWfZ94petbzVYKhRPwoYHzaxvGAf1STP8Ocm6Lvpi4IGggApKkLdfYnmikQYiLH22AEBEJDVz4CFDJI7cVoB8k/hETssmInVk/RATGhSwgIASEgBITAEBBoXdC8f89n5oLFCheS17/820/sqEcf1q+XthWhmdmRoJHo8vvRCxk+D+HDLB+EgBAQAkJACAgBITBFBFoXNC997Zt3CBYIG0Rm3nflTrGDOvTxxHG151UjNJa4z/4NGvykM/4hzkqUHfxs+G39hHNLa2SxLi9PAePTKR4emrMQEAJCQAgIASEgBIaAQOuCBkIE4iXnXk28xMjwqhEa2NoSMu4f5Kx8+8vrt0TastfZYj6prL317R9LL2T4PIQPs3wQAkJACAgBISAEhMAUEehE0PRHYPMjNPMozNKfbX5B+HfVP7h5LHz0L/sn1v1hPO25U8D4dIqHh+YsBISAEBACQkAICIEhIDAyQTNtsi2R0/36eyHD5yF8mOWDEBACQkAICAEhIASmiIAEjb4bo+/GZOwBChifTvHw0JyFgBAQAkJACAgBITAEBCRoMsisIiDdR0CGjrEXMnwewodZPggBISAEhIAQEAJCYIoISNBI0ChCk7EHKGB8OsXDQ3MWAkJACAgBISAEhMAQEJCgySCzQ48eyL/uI0heyPB5CB9m+SAEhIAQEAJCQAgIgSkiIEEjQaMITcYeoIDx6RQPD81ZCAgBISAEhIAQEAJDQECCJoPMKgLSfQRk6Bh7IcPnIXyY5YMQEAJCQAgIASEgBKaIgASNBI0iNBl7gALGp1M8PDRnISAEhIAQEAJCQAgMAQEJmgwyO/TogfzrPoLkhQyfh/Bhlg9CQAgIASEgBISAEJgiAhI0EjSK0GTsAQoYn07x8NCchYAQEAJCQAgIASEwBAQkaDLIrCIg3UdAho6xFzJ8HsKHWT4IASEgBISAEBACQmCKCEjQSNAoQpOxByhgfDrFw0NzFgJCQAgIASEgBITAEBCQoMkgs0OPHsi/7iNIXsjweQgfZvkgBISAEBACQkAICIEpIiBBI0GjCE3GHqCA8ekUDw/NWQgIASEgBISAEBACQ0BAgiaDzCoC0n0EZOgYeyHD5yF8mOWDEBACQkAICAEhIASmiIAEjQSNIjQZe4ACxqdP/OIX4eSpU+Gxx0+Gxx5/PDz6mG5hoD2gPaA9oD2gPaA9oD2wiT0gQZNBZocePZB/3UeQvJDh85OnT4df/OLJAGFz6okndAsD7QHtAe0B7QHtAe0B7YEN7QEJGgkaRWgy9gAFjE+fevrpcPqpp8Lp07hPVzdEjm5hoD2gPaA9oD2gPaA9oD3Q7R6QoMkgs4qAdB8BGTrGXsjw+ZlnnglP4376ad3CQHtAe0B7QHtAe0B7QHtgg3tAgkaCRhGajD1AAePTZ0IIEDWr3N/9wY9DCXdsbiX4DR9L9r0UjJv4GVuH53/pnUF3GRjE1k9lq537wk24aQ+0uwckaDLI7NCjB/Kv+wiSFzJ8XucXRUAEh36lfEyVD2k+KR9T5UPyfUy+pPCWmClDzGCddAkBISAEhorAs8543llBtzDQHmi2B/7bH/xJiN3rfMBTRG8dm233TfmYKm97/HXspXxMla8zlvqmEUjhLUEjQZPeNaoRAkJACDRDQIJGgk6CNmMPxMQMyta5UkRvHZtt9035mCpve/x17KV8TJWvM5b6phFI4S1BI0GT3jWqEQJCQAg0Q0CCJoPMKorRLIoxZpwkaBYPlhRJXWzV71PKx1R5v96Od/QU3hI0EjTj3fWamRAQAptCQIJGgkYRmow9IEGzeDSlSOpiq36fUj6myvv1dryjp/CWoJGgGe+u18yEgBDYFAISNBlkdsyRB82tWfRJgmbxaEqR1MVW/T6lfEyV9+vteEdP4S1BI0Ez3l2vmQkBIbApBCRoJGgUocnYAxI0i0dTiqQutur3KeVjqrxfb8c7egpvCRoJmvHues1MCAiBTSEgQZNBZhXFaBbFGDNOfQuaEyceCa953ZvDkW/dNj8jkP+9l/9pOH7Pv8zLrv3HL4cX/s4rGt1ou+xKkdFUeZ29U6eeCH/xzt0Lc/DtMc8PfHBvQFt7Ya5N/LV9Uj6mym3fujz8aOLLKj7XjVtqXQrvrgXNu2+7NvzkiZ8HpBzrY8e/Fh4//YuAlGWp9N5Hf1L1P+fwx5e2TdkYS3mpe09+CwEhMH4EJGgkaBShydgDfQkakPumAgVt/QVhcMmuDy6IHt+m7jlFRlPldbZQB8Fy9vkXJf2xggbzoXCw4gB5CCMvevzYKR9T5bY/xZfFnmM2FTRN22E+dhybR13sgogFjsDLX03x8f26ek7h3TXZv+Vf7w64MQ7S1AXh4n1BGW70i9Xb9qiPXRBOVkzZPp//0beTYonj2vZ952PzU5kQEAJCYAgISNBkkNkxRx40t2bRp74EjT8sQLRB9GNElm3rCDLJcooo0wbTFBlNlbNfTBBw7Fj61rf/dXjrhX+9QOwpCDBf+GufOU5dmvIxVV5nC3UQEYiIef/hVxPM2a8Oe8wV97JrSoLmj795RbjxwWPhiadPVzfyKKsj+RASEAaMrkCYQET4PojUfO+R++fl6AchYkUM8oj00Ja3wWf2jY3DNkwlaJbtcNULASEgBJohIEEjQaMITcYe6FPQNCHLliQjX0eKScCbHBUp8p8qj9lMjQc/UWcvEHVElHz0JdbW9ovlUz6mymM2YmXwmX7bvG2LeSCi89G9/7BjLradz3tBA+GKVw0phriuFDSwjzr76iGwYjTJC0vUbfpK4U1yX5dCuDzx1OkdLqOsTtRApECsQGT87MnHG71ixigOUu8TRM3pp5+qtRMTNBAu9qLYoaC57+TDVbWN5mAs+oA5YFxcto33r+tnOwflhYAQEAJDQkCCJoPMKorRLIoxZpz6FjQk0LFDBHWWqCJP4ov2eLb9ffuYTZalyGiqnP1sCvIN4u0vlKHOXvD7/37d+dXrVF++/oY5kSehZ2rnY/vbfMrHVLntC8w4lk2JJcdHyjz7U2xAjCAfE2hs61MraChGaB+2gA1S3BAxXGe0oYiBj8xbeyi3wsePbZ/h+81HjoZnnnmmupGviwravj6fwrsJCUc0JnWhLmaDwgL9KEJsmbWH+i/fd2sVgUEeoiF1PfLkyaqKYsOPzTEoWiBGYA8p2qIfIz0UOrQFEYMb7ShovD2Us78f2z+j7xd//J3wX6+/pLqRR5lv1/Q5hYnKhYAQEAJ9IyBBI0GjCE3GHuhb0FhSHcuDrPJCnkQXZXgmKcYz8rY9+8XSFBlNlcdsgJj77/HEiD4IM/wGGeftIzWw7+cTGxNlKR9T5TE7MazgI/FDPbGlAIHvV129fy4qKD7YLjYOy6wAYRlT4MPvH8EmxQ3qbR18gw/3P/DQwg9J0D/6TrupFGN87cabqxv5Va8U3k3INF4zS12oq7PxjYe+NxcTde3aqvMCxNtlVAavriFvIy4QPYgkwQYFTV0bbzv2DJsH77+juimqYu2alKXWQOVCQAgIgb4RkKDJILNjjjxobs2iT30LmjoyjDpLUpG3gsbX++e6wyhFRlPlKVsgxIxUWPJt28NnRGWQgnxjHjHxhrI6PGgz5WOqnP2YwgcIEwgDCAT4jTIrzuAHbvjsox+soz08L/MddnDz8hhwDOBpfxTAYoo+VtB4DOFHkwvRmU9f84XqRn7VK4V3EyK9qqBB5IPX7Sd+WEU2+OxTRkZA+vl6l2+D52XRkZiggW170YYVN8AhJWhsX+QZcWqCHaIz33n43upGvkmfVBvvh56FgBAQAkNBQIJGgkYRmow90Leg8aTUP4PE8kKepDj2V3kQWtue/WJpioymymM2WIYx4TdJOcuRWvEA3/GcumCnCSlP+Zgq9+NhHOJEzKwwQ3uW+74QGBRBvq7u2Qoa2LA/1W1FC/ywERr7DJ8paBjRqRszVgcB8/VvHJ6/3ob8qqImhXeKPNvydV45g2iwtphHOUUMy5BCVNgfCLB1jJzU/TCAFzQ+wmJFTKyOERsboaEAsr40yUPAfPX+26s5YV7IryNqYntEZUJACAiBISAgQZNBZhXFaBbFGDNOfQuaOgKfItU4aFBHkgwxUWcndjClyGiqPGaDZSDaFGIUCqxjCtI+BEEDQQU/6A/8Jo4WQ5RxLsiD+DOCYwUI5od625dztinHQBn6W0GDvhSDEDDI0x5SiBj4TUHDOcAmLvahv3Zcn3/88ZPhpz+dfWEddcijbJUrtVeaEPNVfxQAthmlgSi47Ltfnv84AAUNU/rRpaCBEIIfFCgYGxdSjA8RQ5FFQeMFEuZD0UOfU+n5t/x92HXHP84FHfIoS7VfVr7KuquPEBACQmATCEjQSNAoQpOxB/oWNBQCqdSTVJJXklkeKniGDd+e9T5NkdFUue+PZ45pfWEZCTn7UUAgBUFPzdf3Y3+bpnxMldu+xI9YUVxQNLAt5gEs4Q/yEBEUNGxjy9iOdT6FDdy80J4Y8Hs5GA/+IfrCXzmD8IGPuFBPPzG2xbEJbhy7rTSF9zISzXqIGkRqmv5sM4QJXs3iF+4hDOwvnVkhY/Psl5o3xQj98qkXIBQxsAd/8J0efk8G48Ief+XM2qaggX3rU87rZt63dZ9TmKhcCAgBIdA3AhI0GWR2zJEHza1Z9KlvQVNHRFFHgQIyDAJMQhs7aEhy2SfWhmUpMpoqZz+OQUHAcp+SsNNfChr0T13wuw4P9kv5mCpnv1gKfyhU7NyskGA/rgGFyLL1YL+xpim81yXZuf0hIngh7/uvG6Hx9sb0TNyUCgEhIASGhoAEjQSNIjQZe6BPQdPn4ZEio6nyPn31Y6d8TJX7/npuB4EU3mMi/GOfSzs7QVaEgBAQAu0jIEGTQWYVxWgWxRgzThI0i4dQiqQutur3KeVjqrxfb8c7egrvsYuAMc1vvLtTMxMCQqB0BCRoJGgUocnYAxI0i0deiqQutur3KeVjqrxfb8c7egrvMRH+sc9lvLtTMxMCQqB0BCRoMsjsmCMPmluz6JMEzeKRlyKpi636fUr5mCrv19vxjp7Ce+wiYEzzG+/u1MyEgBAoHYHWBc35F38w7Lv+SDh4+NiO+4pPfakq+9O37FJUQEKqyD0gQbN45KVI6mKrfp9SPqbK+/V2vKOn8B4T4R/7XMa7OzUzISAESkegdUETEzIs+8gnvxjeceneStT8xa4riyS0imQ0i2SMFScJmsUjL0VSF1v1+5TyMVXer7fjHT2F99hFwJjmN97dqZkJASFQOgIbFzQguq89/z2VqPnA3n3hN3771R0KmyvDnsPHwv69Fy0Z46Kw69CxsGd3hKyfcyDsP3QgnKmIyhIMI9iNELOuBA3I3tDv2GE3dJ/pX8m+cw5jSGPrMCbCP/a5xNZPZUJACAiBISDQi6CBqDnzf50fPv2lm8KnPn9j+N1XntshWZ6JmqhYmRNuK2icCFoQNLN2ywXSNMj9WKMwdfPqQtAM4SCQD0JACAgBISAEhIAQKBWB3gQNSON/PvO14bKPH6iiNXUkcnndTGjw1bbG6aFD4fJD/rs+R8Ouc84K5+07Fg7uuzKcMRc0VvRIsCxfk3FiJEFT6lEnv4WAEBACQkAICIGxIrBRQVMnNFojyBAghw+F8+bRF0usIUpmgmVxvBqxMhc01o7yi/hNBw8JmrEehZqXEBACQkAICAEhUCoC4xM0z1tBnFQi6FjYf+ho9T2aM/ceraJGKQGmV86mI2C8cEsJmjF8v0FzGP73mLRGWiPtAe0B7QHtAe2BnXugE0GDXzPzRDD1jLYQDqn6lcp3H5q9LuaiNHiNLPZdmvP2HQ3756+exSI42wQeNiRotvFYaX3cupRkIyVoHnnkkfDTn/40PPjgg+GBBx7QLQy0B7QHtAe0B7QHtAe0Bza0BzoTNPj3aJrcnQiaWJQGIif6a2VXhj37Dmz/yllCDJF0S9BMV8xgD6QEzalTp8Jjjz0Wfv7zn+sWBtoD2gPaA9oD2gPaA9oDG9wDnQkaCJW627/ORcHQWlq9RrYVbYFISXyvZha1WXxNTa+cTVu01O3BlKB56qmnwunTp8OTTz6pWxhoD2gPaA9oD2gPaA9oD2xwD3QmaOpIISI3nQsavNa09d2YlJg5A5Gcffg3ZhYFTZ3vitBMW+ykBM0zzzwT7P30008H3cJAe0B7QHtAe0B7QHtAe6D7PdCZoKmLzvA1Mytq6kTEanWzf0/m4KGjYf9h/DRz3XdjJGhWw3h64iYlaEr9VRD5LQSEgBAQAkJACAiB0hHoRNBYodI03xah3n5dzP108zxaE/tSvxE0pl3Kd/0owPSEDPenBE3pR578FwJCQAgIASEgBMaGQOuCBq+T7bv+yI5XylLiAG3Rh4RxtXQmSDBGE7ExFz3zHwkwgmbJL3DplbPpihnsTQmasR2Bmo8QEAJCQAgIASFQOgKtC5rVBMm0SbIwK2f9JWhKP/LkvxAQAkJACAgBITA2BCRolkRkJDbKERubWCsJmrEdgZqPEBACQkAICAEhUDoCEjQSNGu+7jctwSNBU/qRJ/+FgBAQAkJACAiBsSEgQSNBI0GTsQckaMZ2BGo+QkAICAEhIASEQOkISNBkkNlNvNKkMYYd8ZGgKf3Ik/9CQAgIASEgBITA2BCQoJGgUYQmYw9I0IztCNR8hIAQEAJCQAgIgdIRkKDJILOKngw7erKJ9ZGgKf3Ik/9CQAgIASEgBITA2BCQoJGgUYQmYw9I0IztCNR8hIAQEAJCQAgIgdIRkKDJILObiABojGFHgSRoSj/y5L8QEAJCQAgIASEwNgQkaCRoFKHJ2AMSNGM7AjUfISAEhIAQEAJCoHQEJGgyyKyiJ8OOnmxifSRoSj/y5L8QEAJCQAgIASEwNgQkaCRoFKHJ2AMSNGM7AjUfISAEhIAQEAJCoHQEJGgyyOwmIgAaY9hRIAma0o88+S8EhIAQEAJCQAiMDQEJGgkaRWgy9sAmBc0TTzwZ7nvgX8Pxe+8PP7jnPt3CYLJ7AJ8BfBbwmeClz0f7Z4Jwbh/TEs9u7QPtg5x9G9svRx8M4XevDuHfvD+EX7p0M7cETQaZVfRk2NGTTazPpgQNyBoOiZ/9/PHw9NPPkMMpFQKTRACfAXwW8JnAZ0Ofj262gXDuBtfSrGoflLZi/frr9wvEzCaFDAWTBI0EjSI0GXtgU4IGf40GgdMlBITANgL4TOCzoc/HNiZd5IRzF6iWZ1P7oLw169Nj7hdEZigyNplK0GSQ2U1EADTGsKNAmxI0+Es0/uqhSwgIgW0E8JnAZ0Ofj21MusgJ5y5QLc+m9kF5a9anx9wvfURnIJwkaCRoFKHJ2AObEjR4f1WXEBACOxHgu907a1TSJgLCuU00y7WlfVDu2vXhOfbLJqMydiwJmgwyq+jJsKMnm1gfCZo+jkiNKQS2ERDB2saiy5xw7hLdcmxrH5SzVkPwVIJGokJRkkL2gL7Jt7YAACAASURBVATNEI5M+TBlBESwNrP6wnkzOA99FO2Doa/QsPyToCmEzG4iAqAxhh0FkqAZ1uEpb6aHgAjWZtZcOG8G56GPon0w9BUaln8SNBI0itAUsgckaIZ1eMqb6SEggrWZNRfOm8F56KNoHwx9hYblnwRNIWRW0ZNhR082sT4SNMM6POXN9BAQwdrMmgvnzeA89FG0D4a+QsPyT4JGgkYRmkL2gATNsA5PeTM9BESwNrPmwnkzOA99FO2Doa/QsPyToCmEzG4iAqAxhh0FkqAZ1uEpb6aHQFsE68i37wyHvn6k0Y22U7vawnlquI1tvtoHY1vRbuezKUHzGx8L4V1fD+Hqu0K49OYQfvMq/Ts0ioxITGbtgdIEDYjYbXf+oDrBfvTjB8PXvnFLlMB9/ZvfDg+feCQ89vjJcNPhW3e0OXr795J9p0j2uv1fgqzXIdAlwcJnhZ+XmA8/uOeHOz4by0QR+uDiZ4vP1j7K8LlDm6FcbeGMOeGMwPnCC88WB9ShjPPHM86kGLYo/9F9D4Zv/NPRgDMN98233D7vyzGUtoNAW/vgsg9dHnDzQv4Vr3rNwv2uiy8JJ0+eYpOl6cMPnwjnnHt+yO231HAHDez86fe1+w50MFK/JrsWNL9yRQjX3R3CY0+GcPzhEO74SQjH/jWER56QoMkis4qeDDt6son1KVnQNDnmPOnyz7DhyUgTu2ojBNpCoA2ChT0cI8t1ZTHBYcl07LNi5+zr7fOYBc0DD/1rJT6ALUWMPUP4h5YYvlZgIo9+uCB4JGjs7uou38bnDd5ZQh97RhkIPkTO4SO3NJoQ2p197puq+/jxuxv16auRnb8ETVjpH99EVOa2h0L41v0hvOiTizbwrH9YUxEKibqMPVCKoIkRNpKJugOdJMsTO/SN2UTEB4RElxDYFAJtEayYv5ZAx+pRFvsc+M8Ln0nA0Y+fLX5m8LkBKQc5H7OgIY48Q4ghzyNglIqK2fWQoCGSm03b+rxZQo8Z+GfOCsIEIqWJQIENiCCmtDHENDXfIfq6jk/YL7906aLYaOv5M3fNBA2ETcymBE0Gmd1EBEBjDDsKVIqgwYFEApUiC7FDi31INuwziAfLaR+vekjQxJBUWVcItEWwGBmg+KhL7b63BBw2+LqT/axg7uhDQYN2iEBAwBz7wb1V+beOfrc2StT0c3vbnd8PuJ966uko5ChH/R13HY/WpwrbwBlzqMM1VkfcYnUsA3aK0Cyu3JD3ATz1hN4/29nU1bEdohxveduFlfCBqIm9doYIDl9r8/UQTK993Rvm9TYqVFfHsW644cZ5X7z2Bn944bU5jMexKbowL1yM0HBMpLCBlD4h9aIO9bSJ+i9f95XG4o++Me1yv8TExrplL/5MCHefCOHiG+NiBvYlaCRoFKHJ2AMlCRoSNhIjkCsSgliKepIyX0+SgRQ3yBn+sixBw/89KN0UAm0QbfiKzwcjJPQdnxV+XlDGzwP2PK9VBA1s4rOCzw1s2VemYJefKYyXez355OnwraN3hdvv/EF45plnFrrjGeWoR7ucqy2c7ZiYJ/DDDexxzlhsbVuPPTBEP1wWPysqbf+p5Ye+D7xI8c92vSga6r5PA3JPkUIBgjJeKLORHjzffsds/8TaQxxgPIoKtMHl7cA3iAovTvhMMUPfYCPVh/4ihU32idlgG/ahKIoJH2JQl3a5X9YVL7H+FxwM4QcPhwBhE6uXoMkgsoqcDDtysqn1KUnQgABQmPj302Nkru7wQx3IBMgHSQkIhwTNMtRU3zYCbRFtCn5+RupSS7rxOahra+tIwJEiMkNBw88QscGz/4yyrkl66tQTM1Fz17aoqcTMXTMxg/rcqy2cKUyAi8WDAoV48VU8+ukxYXvWM5WgIRIhDHkfeAHjn7dnMRMAJPe2nHkSfggFXHymqEAZiL+PnLB/amzaoV3bnmVIvV2U0V8vgGL+UYxQnCD1wsT7H/M51o8+N0m72i8pwbFO+e5/CuHen0nQKAIh4dbaHihF0OAvmCBIuEkESKLwTEGDsupXg7a+B5Mia7AD8YL2tCNB0+R/GWrTNgJtEW1+BvBZ4YXPBm5eJOPY87EL5Z6Ix9qhrM4W7KwjaGD/0UcfD0e+fUf47vfuqV4/Q4pnlK9ytYEzzpMYPij3mOIZ4saeT35tKIgwH7SjGLLlq8x1TH2GuA+Aryfk/tmugRUItpz5WITFCw2KBkQ+UMeL5RQTLEfKOr7WZVP4iyvmmy2zeWvbzpfj0AcvXtDPlvn2tBsTT6xrmnaxX9YRLqm+f/KF2a+avXy/IjStEdpNRQI0zjAjQqUIGhIz/I+eBM0SOJtHmxghoA0ejGjDvzIjL0FDZJRuEoE2iDb8xWcAZJukuC4F2aYgqWsXq6NQYf8mtmIioAnGICf/dMtt4fC376jSVcUMxmoDZys6YtjEyrzQsfP2Z5KtU34bgaHtA3hmCX3smd6noiSsRwrRYMWGzaPOXhAGrEc+JQ7Qp66ONmOCxZbZPPsgtfP341jxwj62zLdnmzYEDWy1vV9SomSd8v9z7+znmffeKkEjQaMoTSt7oBRBg383Bn/dhPCgoEEeNy4raGwedfjCLcosGaGAATnDDWGzKumqHNB/hMCKCLRBtFNDNyXMVpxYWyznZy5WFyPsKKPwsX1WyYOc3Hns7pUjMxyzK5wxV0SF/feXOC5TtIsJnlhZDG/amWo6tH1gCT3WxD9znSyRZ5lN6wQPbPLVL9sHeY5X1591aJu6YoLFlsX8pyChXT6jLa5YH1tGvzCOvfDsX1Wz9Tn5NvfLOsKlru9f3xTCA4+F8OfXx0WNfhRARL8Voj+ViFIpgoYHGQUNBIp9tcyLGLYjIQOZsOQOeRAJlPOCYOIvDbFMqRDoGoG2iDb2fIwcx8q82IBgwOeJbZFHGZ5T5Np+tjxG+Fz5MXybTT+3hbP1G/PkH0L8mWTbpfL2TEq1UXm7CLS1Dygo6J1/RjkIOqIpJPpsa1PUpUi8rUOedrwgQLkdB/Wf/NTV8x8FsHUYe8/ffXz+i2NWvNAvW0axQvGCNsjDJsvYhv4h9d/L8WVevPC1uxQW9G3TKfZLnShZt+4Tt4Xw8KkQPnlHCPz5Zvxjm397RL9yJjIvQZe1B0oVNCBvuHl5QQOiAVKGn3ZFyldxUuSMdpQKgU0j0BbBivm9CmFGHwobplb4c5wpCxpihLPFfi8GeZQBtxhmxI7pKuvDvkpXQ6Ctz5sXMCT5IPq8U9EV6zn6pdpRKKANRQxto8xeFDWo96KAwop9KTzQ34oX2vNl9IP9UY/x6QPradeLF9iNlVm/+DPP+Olq2BvK1bWggSA6+7oQ7vxJCL94KoRTp0N48qkQvvtTCZosMjuVKITmmf7+TqmChocdiQUIhBU4rEcZiQVSErS6NGaH9pQKgbYRaINgIRpSt6djdehz/N4fzcU+2+Az5S98JlBvPxtW0LCeNmJp3xGbNnFeNhdiQ8ya4OMxWzaGXyM9N0OgjX3QbCS1ykUAoicl7nJttdV+E4ImFeXRK2eKUEjUZeyB0gRNW4eU7AiBoSAggrWZlRDOm8F56KNoHwxjhRCdwc2Lr5zZMtb1mUrQZBBKRQ/S0QNh0z02EjR9HpUaWwi08+tbwnE5AiKyyzGaQgvtg+GsMl5Z42tsSPnK2nA8nJ3PqQhK1+WK0EhMKUKTsQckaIZ0dMqXKSIggrWZVRfOm8F56KNoHwx9hYblH/ZL18IlZV+CJoPMKgLSfQRk6BhL0Azr8JQ300NABGszay6cN4Pz0EfRPhj6Cg3LPwkaiQpFSQrZAxI0wzo85c30EBDB2syaC+fN4Dz0UbQPhr5Cw/Jv0oLmzP91fvjA3n0i9IUQ+qFHULr2T4JmWIenvJkeAiJYm1lz4bwZnIc+ivbB0FdoWP5NUtD89svPDrsuvzocPHwsXPT+j0vQSNAUsQckaIZ1eMqb6SEggrWZNRfOm8F56KNoHwx9hYbl36QEzW/+/p+Gi//mE5WQwV/TIWhe8idvW5/M7j5U2YK9Hfe+K439i8KuQ8fCnt3m+yDnHAj7Y/18mbFz5t6jO8fx7d3z/r0XGT/M+BIzxeAiQTOsw1PeTA8BEazNrLlw3gzOQx9F+2DoKzQs/yYhaP7T//zj8L93XRmu/6fvVkKAYgbio8vXhCrhYYTIGc9LCJpDB8KZNcJip52YIInYrrHZ5bxlO7Y+65dtStAcv/f+8PTTzwzrpJI3QqBnBPCZwGdDn49uF0I4d4tvKda1D0pZqWH4yf3yb94fevmls85/5ez/+m+vCue/+0Ph8zdsRzSsmLniH740DEHjoik7ojyoXxBGEXJcRXoOhfMkYjpd0z7F2qYEzX0P/Gv42c8fH8YpJS+EwEAQwGcCnw19PrpdEOHcLb6lWNc+KGWlhuEn98vvXj0yQfN//ObLwtlv/0C45iuHF17NAhnd99Uj87Jz3vE3rZHf5GtgC0IkEkWBEGkYoVmM1FwZ9jQRQoePhl3nRASQhE9ra78pkbMpQfPEE09Wf4XGAYG/eugSAlNGAJ8BfBYQmcFnQ5+PbnaDcO4G19Ksah+UtmL9+uv3y9EHQ+gjStN6hOZXnv974fVv2R0+9bkb56KF0Q6Qzj2fvm6h/IV/8PrWSO15+44F/z2VRQECUZEQNIebRFZ8XwiaZWKlSRuJnU0JknXH2ZSgwfEE0oa/RIPE8T1mpfcJi3umhwE+A/gs4DPBS5+P9veBcG4f0xLPbO0D7YOcfRvbLxA1iNRsUti0Lmg+ds3BBcFixczuKz69UHft9YdbEzNnPK+pcPCiZFvk0NfadCGSs3PMnQJqZ5t1SbX69ycANyloSNyUCgEhIASEgBAQAkJACKQRaF3QgGy/8o3vDB/55Bfn4gVl7/rA7JfNrFi45INXtSdo6n6pbNkrZ8te/cIvqC0IGRLqnWJFgobYjDOVoEkfJqoRAkJACAgBISAEhEAfCHQiaBhBePGr31QJlre+54q5uLGC5pV/9s72BE1ClOwUGDZCM8tbnxrl5+ImLmgWX3vb2Yb4KC1P9EjQ9HFMaUwhIASEgBAQAkJACKQR6FTQkLC/6A/fEC7cvSd87mvfWRA2//GFL9+IoFkUGFbQNCTUjSM0EC/+ezwSNNwHY0glaNKHiWqEgBAQAkJACAgBIdAHAhsRNIh64N+g+Y3//urwyje+I3zwE/8Yuv65ZpLnnT8UkBI0MTGyJXiSgsYKoq1oz74rA8asIj3zSI5tpzzXpsRUgqaPY0pjCgEhIASEgBAQAkIgjcDGBM2rz35X59GYnQR5JlL27LYiIiVo0GZblCzYqhU0W312RGbOCmegX/Wzzk1+Qc36qPwC/onXCftoI0GTPkxUIwSEgBAQAkJACAiBPhDYiKA576K/3ZCY2RYX8+/CLPwgwLZoWRQ5EQHhfmRg8bW1s7ajMEt/tvmscMaWraVjDoi49yEWShhTgqaPY0pjCgEhIASEgBAQAkIgjcBGBE0JRFU+RkSdBNYOIS5Bkz5MVCMEhIAQEAJCQAgIgT4QkKARad9B2iXu0uJOgqaPY0pjCgEhIASEgBAQAkIgjYAEjQSNBE3GHpCgSR8mqhECQkAICAEhIASEQB8ISNBkkFlFLtKRi6lgI0HTxzGlMYWAEBACQkAICAEhkEZAgkaCRhGajD0gQZM+TFQjBISAEBACQkAICIE+EJCgySCzU4lCaJ7pSJQETR/HlMYUAkJACAgBISAEhEAaAQkaCRpFaDL2gARN+jBRjRAQAkJACAgBISAE+kBAgiaDzCpykY5cTAUbCZo+jimNKQSEgBAQAkJACAiBNAISNBI0itBk7AEJmvRhohohIASEgBAQAkJACPSBgARNBpmdShRC80xHoiRo+jimNKYQEAJCQAgIASEgBNIISNBI0ChCk7EHJGjSh4lqhIAQEAJCQAgIASHQBwISNBlkVpGLdORiKthI0PRxTGlMISAEhIAQEAJCQAikEZCgkaBRhCZjD0jQpA8T1QgBISAEhIAQEAJCoA8EJGgyyOxUohCaZzoStSlBc899Pw26hYH2gPaA9oD2gPaA9oD2wPI9IEEjQaMITcYe2KSg6eMvHGMZE4e/LiHQNgLaV20jKntCQAgIgXYQkKDJILOKXKQjF1PBRoKmnYOnaysinl0jPE372lfTXHfNWggIgeEjIEEjQaMITcYekKAZ/qEGD0U8y1in0rzUviptxeSvEBACU0FAgiaDzE4lCqF5piNREjRlHI0inmWsU2leal+VtmLyVwgIgakgIEEjQaMITcYekKAp42gU8SxjnUrzUvuqtBWTv0JACEwFAQmaDDKryEU6cjEVbCRoyjgaRTzLWKfSvNS+Km3F5K8QEAJTQUCCRoJGEZqMPSBBU8bRKOJZxjqV5qX2VWkrJn+FgBCYCgISNBlkdipRCM0zHYmSoCnjaBTxLGOdSvNS+6q0FZO/QkAITAUBCRoJGkVoMvaABE0ZR6OIZxnrVJqX2lelrZj8FQJCYCoISNBkkFlFLtKRi6lgI0FTxtEo4lnGOpXmpfZVaSsmf4WAEJgKAhI0EjSK0GTsAQmaMo5GEc8y1qk0L7WvSlsx+SsEhMBUEJCgySCzU4lCaJ7pSJQETRlHo4hnGetUmpfaV6WtmPwVAkJgKghI0EjQKEKTsQckaMo4GkU8y1in0rzUviptxeSvEBACU0FAgiaDzCpykY5cTAUbCZoyjkYRzzLWqTQvta9KWzH5KwSEwFQQkKCRoFGEJmMPSNCUcTSKeJaxTqV5qX1V2orJXyEgBKaCgARNBpmdShRC80xHoiRoyjgaRTzLWKfSvNS+Km3F5K8QEAJTQUCCRoJGEZqMPSBBU8bRKOJZxjqV5qX2VWkrJn+FgBCYCgISNBlkVpGLdORiKthI0JRxNIp4lrFOpXmpfVXaislfISAEpoKABI0EjSI0GXtAgqaMo1HEs4x1Ks1L7avSVkz+CgEhMBUEJGgyyOxUohCaZzoSJUFTxtEo4lnGOpXmpfZVaSsmf4WAEJgKAhI0EjSK0GTsgVIFzW133BUu/cCHwyeu+nQ4deqJ5Pl26Gs3Vu3Qtu6+Zt/nkjbqKv7qmyHg7voS8ewa4Wna176a5rpr1kJACAwfAQmaDDKryEU6cjEVbEoVNP/8zz8Mf/uhj1Y38qmLggZp7KIwWkXQQMj80qWzu2tRI+IZW71ZGQQthC32g98LWNfLP/qx8LOfPRK4F2LCdpkwTo9edk3uvuLnjp8n4BvDE2VcD/bx7b78lUNVG1+OZ9ovG115LwSEgBBYHQEJGgkaRWgy9kAJgiZFiGJECGUkUjhGSGJTBGlVQWPFzCZETS7xXP0IHVbPGGH24iMlaCBiIGbqCDL3lrc5LBS68yZ3XxGv1Ocp5qnvw88cUlxcp1X+qBAbT2VCQAgIgTEgIEGTQWanEoXQPNORqJIEzSqEh4ImJX5YnmM7Jma6FjW5xHMMhznmgHWhQCXx3fOxqwJurp1Pv/Wd2+YRm2/edLjq/7kvXBd9NZFkW4KmfsdQNFqsm2JGjG1f5LE2FJy2jhG1eo9UKwSEgBAYNwISNBI0itBk7IHSBE0TgcK//HZx1NWJmS5FjQTND+d/yfdEmmSbwsc/1+0Dkm1vs67PmOpy9xU/f0iJnRUjPg9Bynbog4sRGgoa+8cEtJGgGdMO01yEgBBYFQEJmgwyq8hFOnIxFWxKEzQ4GPiXeitcSLRIhkiaPMFa9mxtrnoIddEvl3h24UMfNmMRGoiPW751tIrewCcvYPwzbMTW3ZJyCZrlq0tcgSXFie1l18qWU9D4NbCCBn2xBvheDT/D1obyQkAICIGpISBBI0GjCE3GHihR0FCs8C/yfI6RUpKpWF1Jh+OUBY0nwvaVM6w9iTb3g3/2RJt7QoImhJx9xc8Z1wPPFkvizNf8UF938Q8T6CdBU4eU6oSAEJgiAhI0GWR2KlEIzTMdiSpJ0Ni/CpMMkVylBIsnYWzvUxCqJtc9//zjcOjrR2pvtGn7yiGebY/dpz2SZBBnrjnW+nvfP159NwZ/zX/gwYfm35lBu5ig8euNZwma5oKGmF5+xcfm30nCOuC7SRSSXCsKGn4mUR7DH32xfv/w6X3V+qEd1kQRmj4/cRpbCAiBoSDQqaD5tRe8JJz7jr8Jez97ffjc//ed6kYeZagTcU4TZ2EzTGxKEDQUJSRAMXJky0iwmhxKIFAkt03ao02dqOlCzFRj3vfTpu6Nqh1Jshc0INgkynhNCeSZ607yzWdrA+DYqALzJN+jAq/BZHKEMj5/FCv43FiByfVIYQ5X2B7rYZ8pkmBTgqbBoqmJEBACk0CgM0Hzay/4g/Dxaw+Fg4ePhb2f/Wp45/s+Vt3Iowx1aCPiPkzirnWJr0sJgobE1b/CQoLEv+jyOYecriJocJLGRE1XYqYaT4JmToi5vhAjeP0M+2KZoLGCl3msvQRNc6GMqBgjY8COf2hAHpcVjraOn0t+Z4b4ow3FJ8soiCqD+o8QEAJCYMIIdCZo/veuKyvh8so/e+cO0YIyiBq0aZs4n7n3aNi/96JwxvOuDHsOH6vGwVg77kMHwpl43eycA2H/Qv2hcN6Osu3+e3ZvEV202bfl/+6ZcFsc41A4b/4620Vh16Fjoepr+83rLXlG26Nh1znwH+msDvNatL/tU6p8hoO1rfy6+23ogoaEk6LFnm0kSqxLCR/bx+YtmQK5yr2sqOlSzMCvnL+k585jyO0tSeZ6U9DQb64jybB/tjbYhyn3l7fJ+rGnufuKeEHEAFd+9oCTxZlrhTL2oWhBGduzzIpLlFEkjR1/zU8ICAEhkEKgE0HzH/7LH4Yv3Xh7eN+ea5KCBXVog7brkkzbf1vQbIkVChcrHiBAWF6Jly3xgTzKbZnpd96+LVGyVYbngxA11l5VBzECmxQlRtA876yAfmmxQUFDsWWFkRcki3YtDpPMn3VueNVLXprcT89+yZvDH57lMcx7HrqgwQcdYsMSHORJhJCSIKUOBZbzr8a2b05/2rEphEzXYgbj5RJP62PJeaytXy8vPkieSa69oKmbP8l20z1UZ6vEutx9Rbzs5xHzrsMcbSE28WogP29oj4gNnu0fE7CWiLrhV+x0CQEhIASmjEAngubFr35TFU04/+IPJskl6hBZQNs2yHclLhYiLRAfFBaLpLWKdjC6YsTLXLBUZfEIyDxCMxcuR8OuvVsCaW6L48YFDaNHi7booxE0RkxFMZqPx74TT5//R+H3L9gd/uzlO0XNs1/+zvD2vzg3POf562FUgqCZ8oHGuecST/YrPYXQYOSFwgWCBnmkVuyQZNeRa+BBUs6+FEKlY7WK/7n7itgRa4xpRacXm6hHW1tu23MNfGrtrzIv9RECQkAIlI5A64LmFW94R6BYQVp3Q9CgHn2ihH0Zod9RP4tYbEc/4uJgLlzQn6IAaSxqY8aw/Wx+HqGhrSoyk47QVHM956Jw5rLX4ijQKL6atjevqrWD63oiYKM+VKLm0nDuK7dFzbNfeXG46IKzw6+vKWYwDwmaMo68XOJZxqzkZd8IaF/1vQIaXwgIASEQR6B1QZP6Psey8lZIbyUotiIrWyIAwmNb4ICYM3qyRdK3RMgufEeFwmEuTBaJ/IKIqdpsfceFr5zN+3EMH6GZCa4KC4onI5hmGMzaxKM3tLfo1yJ2TdrU9R9D3UvDmRfsrkTNTMy8MTx7B86rzVOCJn6QDK1UxHNoKzIOf7SvxrGOmoUQEALjQ2BUgubMvYfCnn2zHwWYCxmKjS1Cu/C6GcrmImT23Zb5F/cZHXHpgtCgbaZzWylBs0Wi0S4paIwfO0j4TrGyYz6VYNv+MYFFsbMaiS/TxkvD/zj/0vDuC9oTM8BBgqaMQ1DEs4x1Ks1L7avSVkz+CgEhMBUERiRorgx7Dh0I581/5eyisGsffsnMigDkF7/YbwVN9eoYojQ7hMm2EFiI0lBwWEFTCZWmgsZEbObCCaLMR5U4vp3LrEyChthsJpWgKeNoFPEsY51K81L7qrQVk79CQAhMBYHRCBoQe7xaxtRGFSrSf+hA2MVfJaMQcRGand+Fsb9ItiU++Fqa7UtBw3T+WhsFiHuNbEeEBvXbUZXYHGbzob1t8r6z7c42Fgvlt7FbBQsJmjKORhHPMtapNC+1r0pbMfkrBITAVBAYjaA5b9/s5413EnwQWEZCIj+BXEVjtn/RbPuVM7aFQJjVL34X56xKPM2/d7P1c8z2efZ9HQiVlKC5MuypBNKioJkLK4qm+etpXqzMfFv0y7dZj8CvQvrH3EeCpoyjUcSzjHUqzUvtq9JWTP4KASEwFQRGI2hIomOCBmXzHyWwERYKhurfjDHEf/7K2db3WfbhH86kwGE7J1IQnTk8e11s/m/cwH51u7ZVhOZo9Q96zsSIEzT2NTnY9T4bm6jDa3D1PzRAP5Ryn6yaStCUcTSKeJaxTqV5qX1V2orJXyEgBKaCwLgFDaMv8wjHTFgctD9rbMTLnOSy32HzXZZKsJjv35h+M8G0+MrYoqhxgmbL1nZkhX7NhAmiRJVIgZDZIWi222733xIqW3Z3ii8JmfnazkXmaphI0JRxNIp4lrFOpXmpfVXaislfISAEpoJA64LmY9cc3I6GzL/ovv1K1zxSYurQpy3CyQjNLGrhoyoksVuvkUEwGGEy9wHCYC6C2AfplpgwQqMSM5G2GH//3gPz19WsyKCPc3vAYoeNbeEyFzgVZtvCae6vJ+lbgmzhF9l8Gz2vtOckaMo4GkU8y1in0rzUviptxeSvEBACU0GgdUGTJNki0CsRaOFpBWX/eQmaMo5GEc8y1qk0L7WvSlsx+SsEhMBUEJCgkdCS0MrYAxI0ZRyNIp5lrFNpXmpflbZi8lcICIGpICBBk0FmFS3pP0LS9xpI0JRxNIp4lrFOpXmpfVXaislfISAEpoKABI0EjSI0GXtAXuMl+QAAIABJREFUgqaMo1HEs4x1Ks1L7avSVkz+CgEhMBUEJGgyyGzf0QGN33+ESIKmjKNRxLOMdSrNS+2r0lZM/goBITAVBCRoJGgUocnYAxI0ZRyNIp5lrFNpXmpflbZi8lcICIGpICBBk0FmFSHpP0LS9xpI0JRxNIp4lrFOpXmpfVXaislfISAEpoKABI0EjSI0GXtAgqaMo1HEs4x1Ks1L7avSVkz+CgEhMBUEJGgyyGzf0QGN33+ESIKmjKNRxLOMdSrNS+2r0lZM/goBITAVBCRoJGgUocnYAxI0ZRyNIp5lrFNpXmpflbZi8lcICIGpICBBk0FmFSHpP0LS9xpI0JRxNIp4lrFOpXmpfVXaislfISAEpoKABI0EjSI0GXtAgqaMo1HEs4x1Ks1L7avSVkz+CgEhMBUEJGgyyGzf0QGN33+EaJOCBuRJtzDQHtAe0B7QHtAe0B7QHqjfAxI0EjSK0GTsgU0Kmqn8VaWLeeLg1yUE2kZA+6ptRGVPCAgBIdAOAhI0GWRWEZL+IyR9r4EETTsHT9dWRDy7Rnia9rWvprnumrUQEALDR0CCRoJGEZqMPSBBM/xDDR6KeJaxTqV5qX1V2orJXyEgBKaCgARNBpntOzqg8fuPEEnQlHE0iniWsU6leal9VdqKyV8hIASmgoAEjQSNIjQZe0CCpoyjUcSzjHUqzUvtq9JWTP4KASEwFQQkaDLIrCIk/UdI+l4DCZoyjkYRzzLWqTQvta9KWzH5KwSEwFQQkKCRoFGEJmMPSNCUcTSKeJaxTqV5qX1V2orJXyEgBKaCgARNBpntOzqg8fuPEEnQlHE0iniWsU6leal9VdqKyV8hIASmgoAEjQSNIjQZe0CCpoyjUcSzjHUqzUvtq9JWTP4KASEwFQQkaDLIrCIk/UdI+l4DCZoyjkYRzzLWqTQvta9KWzH5KwSEwFQQkKCRoFGEJmMPSNCUcTSKeJaxTqV5qX1V2orJXyEgBDaBwMnTIdx9IoRbHwrh6IP93BI0GWS27+iAxu8/QiRBs4mjcf0xRDzXx1AWdiKgfbUTE5UIASEwbQQgZiBkIGjufzSEBx7r55agkaBRhCZjD0jQlHFwi3iWsU6leal9VdqKyV8hIAS6RgBCBndfQobjStBkkFlFSPqPkPS9BhI0XR+N7dgX8WwHR1lZRED7ahEPPQkBISAEEJ3pMzIjQSMho8jMCntAgqaMw1vEs4x1Ks1L7avSVkz+CgEh0DUC+M4MRUWfqSI0K5DavqMEGr+/SJEETddHYzv2RTzbwVFWFhHQvlrEQ09CQAgIAQkaCQlFSArcAxI0ZRzeIp5lrFNpXmpflbZi8lcICIGuEZCgKZDMKjLSX2RkKNhL0HR9NLZjX8SzHRxlZREB7atFPPQkBISAEJCgkaBRhKbAPSBBU8bhLeJZxjqV5mXOvnrsidPhVR++KVx/+wM7pomyF73nYHjwkVPVjXys3Y6OSwpu+5cT4bcuORiQwnauXfR7zjuuC796wRfmd45fdvwlriar4fdZ77uhmkOyUaICvlrfbf7y67+f6LV6MWxijbHWq1xvvuo7AXfssutXt5fQl23tfJlP2eeYwGydOdAO0lX9xJ7D3rGXXcsu1s6O1VW+jc8DfbN4cG2ZNl2/dfcrfUEKW9xbEjQFktmhRAnkR3+RIgma2ZF2+Mgt4V0XXxJOnjxlz7jB5HOIZ47Tx4/fHV77ujeEV7zqNdV97b4DC92BC+vQDu1jF/pd9qHLF6q8bdjxbRY6hBCWjYf+9KfJenkf/Pw4fu76x+YLW9g/8Av26q6HHz4Rzjn3/PlcvF945jzRDu27uHL2VR25AzmhoOnCT9gkycVYTa4Y+UIZyGZTQhmz0WRs22ZdQdOU3NkxV82vSxDbFDQxEcg9ULd+2B9tYVa354Fxam3hgxc1wKbO71XXbJP92vg80N8214k210mxNusKmlsfDOGMK0L4xG3t/KiAfhRAwkqRoow9IEGzTaKbEOR1Dsx1+uYQz6bjkOyTfJNk8xn1Z5/7prmIQXmMXJN8e7GCck/U63xbNh7s2/HhT92aLZsffYEdiIc6W2yLNDVfihnYIoa2H/NsR2w87ii34hHzeMvbLuxE1OTsqzpyB3JCQUPSiTJcnuRaUkRC+N7P3zWPRNAO+vq2qIO9Jn/JTZFzX8550SZJjR8fz5gT2sFf+MI5pub5x1fcXEWYaPtz3/5xRbYtsfV4wRYv2K8j56i3eKEfMIMYgF3MBb6CXJNgczz6ZOcLv9AXN+utrx472iIOsAV/4RP6c0z4xbbEIGaf80bbmKBBvfUB7TDeRdfcXo33P9/7tbnfxMW2t37QZ9qkP+zn94XFIcdP+mjtf+2uB8Pr/+5IdaP8Tz56eB6JTNmGv7SB1PrPdQYWqCPuKGcf+s91sP0tRsizj03Rnp9H+M467h/WIeVVt46wV7e3aQPtOBbaY2yOaf3mvudeQB9rH23RlxihHmW47JxRv2qERoImg3wqktFfJGOs2E9Z0JBIgjzufu/7GxNaHrSbTHOIZ1O/QJw9iUcZhQlS5mGTRJxknYIBIgN2bFu0xzPbNvGpbjyulbXn/fFjLJsfbTZd/7r5YiyKIuBh/eQ4LENqhRn8Ju6cE57tBWx8ma1fNZ+zr0jwLBHiuCgjEfSECeSDBATtLfFhWxIPjsH2sbYcB7bQjn3pC1MSoZi/bOPH8892fNghUeTYJER+HqhHHW5P6lBmfYZd+0zfkNbVoZ7j2jnCPvFDavHy7Tlf9MGFFESP9pDaOXvfvT2Ml+pv23JcjlMNbv6Dtk0FDebH+cIEbFo8l/mMeouRfV7HTxJszAUXfIRtXKgDrnzmOHxGGzsP5K2Pdl/Stl0nrgPt2f52HSpnnEhkGVPYIp70m8/0G22Y55job+dAe0zr6tiG46EtLqTYXxgPF8aiL2zLOs6T/iBN7U3aYt+2BA0Fzi9dGgLuP9o/i9wggvObV4Xw4s/MyhHVQVv8RPTxE7M6tFeERgJJEZqMPTB1QXPDDTdWByPIoif3VcVA/pNDPNdxmaKijlijDS4Q/NvvuLPKsx/HRn+IRER4+OoU+7GNTZeNB1GAKAXG5JXqw/pYav2EzZz1r5sv7MCeFy8xH2J7jSLnvvvur/YhxQ/7W79Z1kaas69IWEAKYjcJF4kESQhIAokCfLZkzLdFvScpdd+hsbZieJDE0F+SH7aFj/SbZdYm839/470VAeWc0BZ52kM75HEjD6zw12DkMUdLzmkTKS5gQ9JFH5hiDPpuU4unxZdrRD9tHWxiHNsXZfAD/sFPiz3q/Posq/fj0R/0s7ZYTj85X6YeM1uO9YI9XNYm29h1QVmdz7H+9A39mM/1k77ZdQc29NvvgZifbJ/yAba4lh53+Gv3tcUzNmePkcXS2on5bcfydjgH2rMp+tk9bfPEyc4RfYkF523Hi/lmcbFtYcvjYMdqQ9BQmLz9hplQue7uEM74SAhIIWggWFgHoUOxY/MSNBlkdqxRB82reSRryoLGHq4xkmnr+87nEM9VfQVh5ytmFAueWAOnmDDxhJvEHu1x0V6sr62vGw99rehEW4gljrFs3nZ+vm3u+vv50h7n7efBeqQxDOEbXytDvY3goA5RpBR21nZuPmdfkUzEyJ0lNZ4oWFIB/yzx8G1Rb4mHb2sJItrG+qcwgB8kTRjDj8V+sMlxMD7+8o1+ltihLeqsECAhAhaog6ABZtYe+lkckafw4fg2hS2KJltu8xZ76xPaeOwtBsTCzs1ij/4e32X1sE9s6SN9sLYsBmxnU7a1PjJv7bMdMODlMavzGXhRMLM/Us6jiZ/cK7Y/8vDN1tEm6mLj2jLbl3Pk/G0Km7iIcfXgxDbKYvYsZh4j9IE/2Pu2Hcq45zmW9dvm7Zhsa1O/TraOeYuZLeO8rd927GVtUU9cOT/Yot02BI3/BzkRgfn1vduCxkZlIHJQxygN+0rQSNAoQpOxByRoZkdfLqHlgbmpNId4ruITSTNwwEUB4ol5jIyjfYrgW1/qBEWT8djGRnwwLn22Y/m8n5+vz13/1HzbEDTwDfY5T4i4T37qagkaRxCBkyclfl1jzyAwFCeWELGtJWIgSSR1njRasos62MXNPGzjsvY4BskT7FP4sM6msLdM0FgMaJc2vM/+me2YejysbbRZVg/7aGMvjmltWexsW+ZjmMEO1822Qxlw4uUxq/M5RoJhh/NYxU/6AduW/NMm6mPjciz4a+dgcaNtnxJjltv+KLN4xuylMPJr6ecE23YuqTnQL5t6H20d8xYzW4ZyXNZv68eytqj3OMAW7bYlaBiJ4Stn//aybUGDV84QxYF4sYIGebTTK2cZRFZRjOZRjDFjJUEzO/pyCS0PzE2lXQqaGNmnePBiIUXkU+UWH5B9vjYGuyTsSG/8xjer6EvT8WCXPkJ0cQ60CX94sc7bZj1S1Nnoj62L5VPzbSpo/FiYg43K+DExXp3/vn3T55x9RbICIuIvlJFseqLgyZYlHr4t7KZISqyttWV9oq+ekKGN7WP9Zn9b7/MUN2wL+/gSMkQH/EN7CBTMGXlcKLd/qUcZ6lCGvjEfab8J6UNbjIdx4YddH4+9xZZj2NTXe8yX1fvx7DpYWyy3vlo/YpixjxV41ib7e8zqfI715zjox3yOn/TDjwtsUIbL7iu2R8o+WEu2pQ98tu2Z97h7DCyesTlzXIyFC/Yszhwn5jfG4mcf7WjLzoH9bep9tHXMwxZ84UUsWMaxUB7zzeJi28Kex8GOlSNo+H0YiBN+ZwZlNg/RUhehQXtEbG760ez7M3wVTREaiRpFaDL2gATN7KjMJbQ8YDeV5hDPHJ9ApCECfCQGNjxptwLCj+Hbxgg6hAVfq/L9c8dDe9jjK3Ixeyirm5/tk7v+fr601UTQxLDB+LAZu5rYjPVrUpazr0gmYuTOkpoYUbCEByQDwgAExLeFz5Z4WJLCtiRa9Ifkxs8XPuH1HO+vJTnehn+249M3OxeOQZ+8j+iDMi9oOA5x8L7zGfZpm2WxlH54e3au6Ef/gDEvi7fN2/bEEKkdA+0txnZt0R/1xItjwwbnT7v0hWkMM9RhPTA+19zaZF/YtJgt89n6CBv2eVU//ZiwC59hG5ffV1WhmZ/FFHXeHv2iPb/OHgOLJ/t6DImZnT/9YprCn36gHdv4OdAGU+8jy21KW2iLCyns0neMS79jmFpcbFvY8nsH9bSbI2iuM6+LIc/vyXhBA5FiIzSIwEDIQOzwezP+ezcSNBlkdsyRB82tWQRKgmZ2fOYS2lmvzf03h3g29YqRi5iYgQ0vGGJEnGN5gk8SDlxxUQzxmf1sumw8OwbtpUQA7C6bnx07d/2tL9YO553CFG3pO7HwfbwvGMtHdOyY6+Rz9hWJEMmFHRdlMeKKNuwHIoIbX7AnwfekAu0t8bAkhaTM/sQzyYz1xeZJiDg2Uti3l/ePpAZt7Ph4Zlu2of/WpiVRHAdlfmw7T7bzKXBdNkf0oR++bcwXj4nt432iXbvmnAvmg7VAf9ajDlEn7AXUW/HjbWEstEEff6Et94ivw1jE0tu0WNix63xGH/oCu9zHHJd1KT85V/Tl7W3AFvrDFi6/rzgW91esP/3gGLRF29Y/v288nnYPYCx8JrGOaIeUY9gU46EfI4uss+PCl7o5cJ5IuY60Y1O7drYdfLORH/iEMowZwxS+0T/bFuP7vUNMgEeOoIEggVjha2WMrvjyP79+Fn2BiMGN78zgRj/7+hnqaEuCRoJGEZqMPSBBMztiPYm0B+8Q8jnEs6m/IMp8RcumljyDmLMOX0yHSIhdMYJPos7+aLPsqhuPQoD2rJ8xu03mx3656x+bL2xxzlbQ1JVxLhQ39Mf6XvcqGtuvmnaxr1b1JdaPBArkY2wXCBZuXUJACDRHAAKFnxukFCzNLSxvmStoIF5ybogWK2JSfVsXNOdf/MFw8PCxrBt9FCFoFiEQTv3iJEGz/HAbQouhE88hYCQf8hEY+r7CX2djf63On+mweuAvyvhLMwSbLiEgBOIIQLAwAoMWPgpjIzBxC6uVjlbQ5IoZthdR75eoC/9m+EvQrHbgbbrX0InnpvHQeO0gMOR9BbKC11D419h2Zty/Fb5CM7Z59Y+sPBgbAnx9ja+j8VU0vi7G57bn3bWgSUVkfHnrERoKFKYX/83/uyP6gjLWM12fUF8Z9mRFhg6F88yrRuftOxb2771o5us5B8L+pK3Ffuv73YxIa5xh4CRB0/ZR2I29IRPPbmYsq5tAQPtqEyhrDCEgBEpCYDKCxgsWPvt0fcIOQWPFxkzg7NkdI8K+7VlhQdAYobO+X7HxVVYqrhI0ZRyzIp5lrFNpXmpflbZi8lcICIGuEZCgcRGQ9QnuokiBQPGiqXo+dCCc+bzttrF2cREkEbL+GpWPoQRN10djO/ZFPNvBUVYWEdC+WsRDT0JACAgBCZoOBc2Ze4+G/YeObr9CVkVcbMRmW9DMSPpFYdch88qZIjQ7XhOUmJmJMQmaMg5vEc8y1qk0L7WvSlsx+SsEhEDXCNz6UAj3P5r3y2X++y9tPHf+HRpGSUiI+exT1q+ebomU3YfCwX1XVoQcwqbKo+ywFSxO0Gx9Z4bfoYlFbRb83bK/uq/lRyqmOncJmq6Pxnbsi3i2g6OsLCKgfbWIh56EgBAQAnefCAF3G6JkHRvjEzQmulIJmq1IEMXKjIgvChrb7mD1SpoRHJXYsd/NMXVmrKkS/KnNW4KmjMNbxLOMdSrNS+2r0lZM/goBIdA1AidPh4AoDURNn5Ga0QmaPea7M1bEWNGyf+8B8wMCM3GDfmiP6Ay+Q4O06k9BU6VHw65zJGimJmLsfCVouj4a27Ev4tkOjrKyiID21SIeehICQkAIAAGIGggaCBt8p6aPe3SCZvunmCFUZj8MsPNL/tsRGggdCpm5AKKIQQTG5KtX0fS62aS/XyNBU8bhLeJZxjqV5qX2VWkrJn+FgBCYCgIjFjSMpMy+8H/wsI2ubAua8/bNXiebR2SeN4vO8Hs4VtAs5PW62SSFjQRNGUejiGcZ61Sal9pXpa2Y/BUCQmAqCHQuaDb7D2vOxIl9vWwuTBYEyLag4etEc0HjXy0zERq0nbdbsEfxpJR4jjWVoCnjaBTxLGOdSvNS+6q0FZO/QkAITAWBzgXNwq+DuZ9qtnXrE+CdIgU2F8TNPEqzsy2FCtIFEeQEzRnVL6bpRwLWX68yxZ8ETRlHo4hnGetUmpfaV6WtmPwVAkJgKgi0LmjOv/iD8X/QskbMoM/6BBkiJfGPaUbLF0UJBQ39WBBC+t5MC+tTpoDhfmAqQVPG0SjiWcY6leal9lVpKyZ/hYAQmAoCrQsaEr/NpzujLmkfctqOg4insdD8crCRoCnjaBTxLGOdSvNS+6q0FZO/QkAITAWBEQkaEfMcYq62q+0XCZoyjkYRzzLWqTQvta9KWzH5KwSEwFQQkKDRl/v1OlnGHpCgKeNoFPEsY51K81L7qrQVk79CQAhMBQEJmgwyq6jGalGNMeEmQVPG0SjiWcY6leal9lVpKyZ/hYAQmAoCEjQSNIrQZOwBCZoyjkYRzzLWqTQvta9KWzH5KwSEwFQQkKDJILNjijRoLqtFmzYpaECedAsD7QHtAe0B7QHtAe0B7YH6PSBBI0GjCE3GHtikoJnKX1W6mCcOfl1CoG0EtK/aRlT2hIAQEALtICBBk0FmFdVYLaoxJtwkaNo5eLq2IuLZNcLTtK99Nc1116yFgBAYPgISNBI0itBk7AEJmuEfavBQxLOMdSrNS+2r0lZM/goBITAVBCRoMsjsmCINmstq0SYJmjKORhHPMtapNC+1r0pbMfkrBITAVBCQoJGgUYQmYw9I0JRxNIp4lrFOpXmpfVXaislfISAEpoKABE0GmVVUY7Woxphwk6Ap42gU8SxjnUrzUvuqtBWTv0JACEwFAQkaCRpFaDL2gARNGUejiGcZ61Sal9pXpa2Y/BUCQmAqCEjQZJDZMUUaNJfVok0SNGUcjSKeZaxTaV5qX5W2YvJXCAiBqSAgQSNBowhNxh6QoCnjaBTxLGOdSvNS+6q0FZO/QkAITAUBCZoMMquoxmpRjTHhJkFTxtEo4lnGOpXmpfZVaSsmf4WAEJgKAhI0EjSK0GTsAQmaMo5GEc8y1qk0L7WvSlsx+SsEhEAbCJw8HcLdJ0K49aEQjj44zFuCJoPMjinSoLmsFm2SoGnjaOzehohn9xhPcQTtqymuuuYsBKaNAMQMhAwEzf2PhvDAY8O8JWgkaBShydgDEjRlHOwinmWsU2leal+VtmLyVwgIgXURgJDBPVQhQ78kaDLIrKIaq0U1xoSbBM26R+Nm+ot4bgbnqY2ifTW1Fdd8hYAQQHRmyJEZCRoJGUVmVtgDEjRlHO4inmWsU2leal+VtmLyVwgIgXURwHdmKBqGnCpCswKpHVPEQXPJizpJ0Kx7NG6mv4jnZnCe2ijaV1Nbcc1XCAgBCRoJBUVARrgHJGjKONxFPMtYp9K81L4qbcXkrxAQAusiIEEzQjKraEZeNGOMeEnQrHs0bqa/iOdmcJ7aKNpXU1txzVcICAEJGgkaRWhGuAckaMo43EU8y1in0rxcdV+9+arvhF+94Avz+znvuC7c9i8nGk3/sSdOh1d9+KZw/e0PVO3R77cuOdi4f6NBljS6/PrvVz7Al2UX/HzRew6GBx85NW/KOWAe1gbaoC365IwxNxzJAGvcuJrYxNh2bbzvkSFqi+yc0ND64zsSl2VrSx8xH3+xjjZ8fdfPdfNbd2zOza6PxaAO65Rf6J9aY66HHSM2B/sZTOVj/VBGn+2culo7jkX7mJf/DKb8tOUSNCMks2OMOGhOeVGnqQuaa/cdCK941Wuq+7Wve0M4fvxue+4NJr8q8Ww6AeBw2YcuX2j+8MMnwjnnnj/HB23sBayAGfHz9YeP3DKvgx3Yq7tOnjwV3nXxJfM+1h+7ThwP6TK7sMH2dW3ha1299RvzeMvbLtyxV6yPTW3BLnGGD7w8Fjn2aKNJmruvSChIsDkGiRqJBstjKUlWk7ax/m2U5RAhzPms992wILhYduali+WWDOaM0cacYAPr4skt/MgRnMt8SRFr9PNra/HwdmN+sT/qxnbF1sZ/nvjMz0Yd1sTH92E5UthpsvZ162Tt+TzsQ8jQX9TDFsbsYg39XDHGJgTN8RMh/OZVIfzSpbP7jCtCuHXrhwVY94nbdv7QwHV3h/Dre7fb5v4AgX4UQMJLkaSMPTBlQQMCaoliDqn1B3vXz7nEM8cfEnErIEiybRnyaIuL9f6ZpBypFYhoB7ECop66YJ/jkdDTvu/jx/f1eIYtO2bKB9qyeyFmD2Vsa+eGcti2ZRB7ED1ov+yCnxBdxA7tm/q+zPay+tx9VUewQC5Qz4vkg3+5RR0JK8vQx5Mp34aEhfYsefL+wNbr/+5IuPn4TysR8vc33juPVljfMC5ECm76Yu1yDkjpD/rwQlvYQ5ktR57+2jz64ZljeZIJW6y76Jrb51Ee9LNz9DbpD1L45MUM670NjoExORe04WXXxOOOdpgjxkJ/zoU4cR7w1dqhbaZsT7xQ7ucH32iP47A/26fq4Sfr3vv5uyqfYS+Gkx3XYgX/MS7toJ297Bgp7NE+NibtYAzsQ+Acwxpj4LJ+sS9T1FkcbTn703ZsLnadUnnaZEp7mJu/7HxjfgNHlMMG5o71oV91OPox7brBB9jEel175Ic7or4cC/PLidBQsPzR/m3BAvFCUcP6mKDJFTC+vQRNBplVNCMvmjFGvKYqaGKEmWWWWPqDuq/nXOLZxE9GWEDkQfwpJtAXGHiCb0k68mef+6aFKAX6U4Agb+3F2lsfY/XwwQoS2x62U3VoR+Fh1xJlscgKffXzteMhj3YQHrvf+/6FuXPfcO7sh/YsQxrzl3PE2PQ1hgVttp3m7CtLCJb5QbJKAmifmScRsgSKdeyHcSwhQp51JDeWyKEON2yC2LCOdtEfF9qAQNEW29MnPz+0Y1/6hLa4OQbLaRMp69DOEjX7jHa2DuPAN7ShTY5tbVaV5j9ow3ameEcWNrw48H3tmhBn64/1D+W0R5zZ1trZ4Yj7a75va+2ib+zZ4oZ6Ptdh6ufjfSYWvp1/9mvhn+18YRP1yy4/Bn1BP5v3djx2qLe2mKcP/tn2T+X9mBZvX2effTuLN/3g54R1mGvsYnvYxGUxRx9vh/NFW/RhfY6gseLFCg4InLffEAIFzZ9fH8K/vWwWwUE52l5nIjRo/+LPbLdBxAd90Q7RHggkRoAoniRoJGgUocnYA1MVNLHDMkaCY+36KMshnk39A3G+/Y47q+Yk9exLog2yzssSbWJFws5nknL2YZoi9KxHPy8o7HhshzRVbtvE8rF+GBdzj43vbXz5uq9UESZvh4LGz91j6u0BM4ic43ffU82d/Zdh5e2s85yzr0B0+JfkZWN6EmPbk7SQlFgCZUkH+4DEYFy0s/V4BkHBjTzsIjqDPG7/vRzrkyVCHGcZYeTc7TjWNz8vjoE28NGSK47p+6AcvkMgEB/rF22in71oJzaGbYd8zIYdA20sfp5E+rZ2bObpu7Xj/eAz2mK+WC/6Tzt8ZluOnapHu1hdHaao49qiP8fw86YPSOvqbDvk6Q8x8fX22dulL2hj87YP8hzD4mXX2ebZF/5QANp1SuXZj2nMJuts6udk8fZ16Fdn17dnW0R4OBeOzTpggwv4oQxXjqCBuKDAsIKGeQoaChQIIAgbiBkvaBjVQTnaoC37WxF0xkdmfSVoMsjsGCMOmlNe1EmCpjrfqv9skkhuj9osl0M8m1lcbOXJNwUKBQtao419rYpEHlELW24tg6TX1bMt2vkIBnyoi6iwb9PUzxH+I9oCgYLxvaBK2fWCBu2Ak+2PNsAEY6Yu9MFNrK2gQT/UATvcHpuUzdzynH1liQjHASniqyJTDWMpAAAgAElEQVRISSo8mWB7pCRfJHiWQKGftcc8IwDWB7TFDaICW6iDoIF9245j+3HQz151PoNIUVTZcdDfjm+JMe3d+5PHKlw4XzumtctyT9pgn77SJkka+xBT1C+7YjbsGOhvsYr548dhf/rBuVo7dX6hP/96jnZ+TPbFuGibqk/19X7BP46HPGzy4lzwjPG4B22bpvOCDT82yug/bSOFHywnftYXm6evNkUffv44Jtcp1hdz4H6180nl7VjIwzYx9HX+2Y7PNUQbP99ldn371PrAjp0H+vHzi7pcQUOxQRFjUy9IEG3B92YgWnDzOzRWGLFP7DU121+CRoJGEZqMPSBBg+Nt53cgZqXD+W8O8VzFa0/2YYOknKQaEQoKDNaRhJOUg4THLtazvW+Dck/aY4JmmR1vl8+YnxUcKKegQB7j+3r29WlM0KANxiBWmMsnP3V1UtDABsQURJWfE4WMxRK2PT7er1Wec/aVJwV+PEuo6sgOyRZJmyUedf0wnu0LkgQbuJlHf1ywSbJGP/046GOvZWPbMTgO+tvxLcGjvU0IGvgB//yc7PyYp1/Akpfva7HyJBJt7fxhg/3t+qDc2uFYsRT2rO9+TPZhu1Q92sXqvF9oQ4KLcbkX0Z9z4ZhIUU/xAR+azos2YNNjxjrrr82j3vpi8+xrU9sX/tn9H+tr29j5pPJ2LOSBCQWUr/PPbHv3Q49WIoh4W5/ZBzjZzxHLkfr2aAsfbv/hz3b80YBrjjYYz9rMFTRNIjQUJ1aQeEFDYeQFDfrydTOkjPBI0GSQWUUz8qIZY8RLgmb4YgYHeQ7xtP8DaJqPCRrfFyScX3QH2fYEe5ko4BgUQyT/KI/1jQmHWDsKAtrzfsG+FytWUGCeMbt+/nyO+cU6m2JcK0pYZyNDKKP/8AEX+qCvvZqOafs0yefuqxgx4jgkLSAdNs96piQaJDWWQNX1Y38QFHypHQQFY6E/IjPwDXlc1ib7Wdsx0lQ3N9hAf4yDcek7x0I5btjlxTHgI/rYOrbxWNBe7itn6GfnR/tM6QvGs3nW+7lb/DyJ9G05B9hlnvhYOxwrlqIv7PKiHZTbi2On6tE2VufngHawZfcRx+EYfLYpsasTqbY983VrY32zefS1vtg87fqUOPq29BvY8LI+2XVK5dmPqfeV5UitDTyzLV4Ns0KL5dwvaBvzlbZ9e9sWeS+wWO8/mzmCBmKDr4rZyAzECW4vTnIFDdrDfkwQSdBI0ChCk7EHpi5oYmSXh+eQ0lzimes7cPAk2tuwIsbm2Y6i4L777q/EjifzdWPECDvsxcTJMj/pD1+J8zZQD98ogGyaenWONpHGfLX1yHuRYuvRH+PYcZmHX7F5NxnTjtE0n7uvSChAmOwFAgMSTkIRI5UkWawjibHkh3XWviVeGBPP+Gs5/+JKn/iMNvSHdmgXBAcXUr7mQ5t8ra1qEPkPbOJnmi0hQzPa9v1JplDv52DnjHbEDfbgs/WNuKHO2oy4WPW1ttjH2ovZiPnA+RBfrhf8YR3tc0xiwbZ2njF/WYbxuVYsgw07TuyZ46KPHQttbZ3HFO3RBrj4cfGM28+bc4OvuDyOfsyqkfkPbFqfUEWbXB8/Jn1BW5s3ZheywACYWdzQgHbpu3+22KXyCwNtPRBDpLzoA/y1F54xT/s5pR+2v8fV2vDtbVtiacelL8SXtnIEDQWLjdJAfDCKwvqYILnOvXIWi9B4QYM2tC1Bk0Fmxxhx0Jzyok5TFjQgj/4v9zzwhpbmEs9c/73Y8IScJJxRBP/M9hQxFDcox4XnZWLB+kAxQnuwESurmyfsxcRMrI/3N9aGZTFxAT/tWDljEztiG5tnjj362SRddV+RnIAo8LakBGOTfLDeEhkQEZTDjiVQsX6eBNIuyRn6wI4nMviSOf4yy/FtPfqiDj6x3vvv8YsRJraBPe8nymJzjo0H31iOqAFfh/Jz8zY5vk3RhraQLvMLfTk39sPPXdMH4k184Kv92WdPnjk+2vm1tX7aPPrY9WEdxqRPfhy04VhsQx99HdYBONh6Py+OCT/oix0fY7DctuXYMf/Yjqm35216n6wvNk97sRTt7L5jG9qmv8COl12nVJ5tfYr2mDvtIrU4sz3nbselT7Y96mP+w45v79vSF9rjvvafgRxBg6gMRQtfC6PgsHWrChrYgIihbfxaGn5gAPYkaCRoFKHJ2ANTFTQkkfzLuE0tieZh3He6KvFs6rcVE+xD0UJsPC6+Hjbshfbsu0zMoB+JPPt4e1wzEn87ls9732gTaaz/uoIG48NfjuOFshc81t/YvDwWVizZvuvmu95X6/q3an9Lyla10Vc/kDaKCfgAgmpJ4Kb98v5sevw2xvNEGDZRBuKMtISr731QAkZNfcwVNPZVs03mJWgyyKyiGXnRjDHiNVVB0/TgG0q7sRLPoeA7VT/Guq9KETT8C7IVLPavzrH6Te/VUrCswyUmaPBXfIiEEq4h7IMScGrqowSNhIIiHyPcAxI0TY/AftuNlXj2i6pGH+u+KomEw1f7yg5ft2G5f11mk7sW4sq/FrXJ8dsaywoaioM+cc2Z1xD2QY6/JbSVoBkhmR1jxEFzyos6SdCUcPx2/ytnZaAgL9tGYKyCpm2cZE8ICIHxICBBI0GjCM0I94AETRmHtIhnGetUmpfaV6WtmPwVAkJgXQQkaEZIZhXNyItmjBEvCZp1j8bN9Bfx3AzOUxtF+2pqK675CgEhIEEjQaMIzQj3gARNGYe7iGcZ61Sal9pXpa2Y/BUCQmBdBG59KIT7Hw1hk79YtspY+pWzEZLuMUZGhjInCZp1j8bN9Bfx3AzOUxtF+2pqK675CgEhcPeJEHCvIjI22ad1QXPw8LEQuy0hPf/iD4bPfPmfqht5W6e8Xusa8h6QoCnjcBfxLGOdSvNS+6q0FZO/QkAIrIvAydMhIEoDUTPkSM3GBQ0EjBc8EjUSMUMWMdY3CZp1j8bN9Bfx3AzOUxtF+2pqK675CgEhAAQgaiBoIGzwnZoh3hsXNNd85eYdggZlljSukz9z79FwcN+VK9i7Muw5fCzs2e3FBcoPhfP0atoKmHosy3+WoCnjcBfxLGOdSvNS+6q0FZO/QkAITAWBjQsavGrmIzQoW0fEbPf14mMmUvx41bMXPbsPhYOHDoQzK+FyUdh1iOLG2yyflG/jNbK5nHVueNVLXprcS89+yZvDH5613pwlaMo4GkU8y1in0rzUviptxeSvEBACU0Fg44Kmy1fOEJ2ZRVhmgmT/3gNhz+GjYdc5iyQ2FsU5b9+xsH/vRTMyfM6BsH8ubiRoihFAz/+j8PsX7A5/9vKdoubZL39nePtfnBue8/zFvZA7NwmaMo5GEc8y1qk0L7WvSlsx+SsEhMBUENi4oAGBhKjBa2a4W/v+DEQIoy7zaAvESANBg/amHcRNNKqz9YMHO19LW48k55Jqta/BuxI1l4ZzX7ktap79yovDRRecHX59TTED3CVoyjgaRTzLWKfSvNS+Km3F5K8QEAJTQaB1QdMX2a6iLvNfWKOIafLK2SyaMxc0EEZG3JzxPEVo+lrT1cd9aTjzgt2VqJmJmTeGZ7f0HSgJmjKORhHPMtapNC+1r0pbMfkrBITAVBAYjaAh+UV0ZTuCsjxCM3v97EDYdWgmgvA8f/WsIsESNMS2rPSl4X+cf2l49wXtiRnMX4KmjKNRxLOMdSrNS+2r0lZM/goBITAVBFoXNKlXtUiGl9Wz3Srpwvdg5mKE0Zrt15Tsd2jO24dfMEOUZme7mQ8SNKusxVj7SNCUcTSKeJaxTqV5qX1V2orJXyEgBKaCwHgETfWqmP3uC4QKxIgtM3l+32b+q2YzQbPs+zOVIJv/YMC2SBorgde8FtdYgqaMo1HEs4x1Ks1L7avSVkz+CgEhMBUExiNoot+RWP7K2YywK0Ij4bIoXFJ4SNCUcTSKeJaxTqV5qX1V2orJXyEgBKaCwOgEzfaPAyDiIkGTIuYqbyZgPE4SNGUcjSKeZaxTaV5qX5W2YvJXCAiBqSAwHkFT/fSy+bdkGn6HZkZYFaHxxF3PccGzSUED8qRbGGgPaA9oD2gPaA9oD2gP1O+B8Qga98rZdqTGfG/Gf59m/l0YCRoJmLiA8bhsUtBM5a8qXcwTB78uIdA2AtpXbSMqe0JACAiBdhBoXdB4AqjnZkRZOJWBkwRNOwdP11ZEPLtGeJr2ta+mue6atRAQAsNHQILGRXYkLMoQFn2tkwTN8A81eCjiWcY6leal9lVpKyZ/hYAQmAoCEjQSNKEvcVDiuBI0ZRyNIp5lrFNpXmpflbZi8lcICIGpICBBI0EjQZOxByRoyjgaRTzLWKfSvNS+Km3F5K8QEAJTQUCCJoPMlhhRkM/tvkInQVPG0SjiWcY6leal9lVpKyZ/hYAQmAoCEjQSNIrQZOwBCZoyjkYRzzLWqTQvta9KWzH5KwSEwFQQkKDJILOKdrQb7SgRTwmaMo5GEc8y1qk0L7WvSlsx+SsEhMBUEJCgkaBRhCZjD0jQlHE0iniWsU6leal9VdqKyV8hIASmgoAETQaZLTGiIJ/bjSpJ0JRxNIp4lrFOpXmpfVXaislfISAEpoKABI0EjSI0GXtAgqaMo1HEs4x1Ks1L7avSVkz+CgEhUDoCJ0+HcPeJEG59KISjD6ZvCZoMMqtoR7vRjhLxlKAp42gU8SxjnUrzUvuqtBWTv0JACJSMAMQMhAwEzf2PhvDAY+lbgkaCRhGajD0gQVPG0SjiWcY6leal9lVpKyZ/hYAQKBkBCBncdUKGdRI0GWS2xIiCfG43qiRBU8bRKOJZxjqV5qX2VWkrJn+FgBAoGQFEZ5ZFZiRoJGQUmVlhD0jQlHE0iniWsU6leal9VdqKyV8hIARKRgDfmaFgWZYqQrMCqVXUo92oR0l4StCUcTSKeJaxTqV5qX1V2orJXyEgBEpGQIJGIkXRl472gARNGUejiGcZ61Sal9pXpa2Y/BUCQqBkBCRoOiKzJUUS5Gs3USQJmjKORhHPMtapNC+1r0pbMfkrBIRAyQhI0EjQKELT0R6QoCnjaBTxLGOdSvMyZ189+Mip8KL3HAy/esEXdtwoR/3l138/vOrDN4XHnjidDQXtX3/7A4375oyHtvTTDwB/4TfaDPF681XfCbiXXZxHbI3s3Kw9i6HN3/YvJ8JvXXIwILX5ZT40rcdY8LPJerc5vp1jzFfuQ/j2ssu+UWHQxMc67FP7Ljb+KmX0uYmfTezDTmwPNVkvu7fqxlq2DnV9m9RhDrGziOuE8fu4JGg6IrOKenQT9SgJ16kLmsNHbgmveNVrqvucc88PDz98oo8zbumYOcRzqbFIg2v3HQiXfejyhRpgAUyID9rwQp7lNrUYwp6te+3r3hCOH7+bJnakJ0+eCu+6+JJ5n2X+YO2aXrH52b6wZX23dczX4YE2FpNlc0V7i48f24/lsaBP66br7isSKZKDdUgKbeWQspzx6uxjzOe847qKuK+LaRf9m5JEkjWPIefOdbI+NsGwTUGBseHPWe+7Ibz+745ESaf1r+38svlaIkzcPJ4xn1LYx9q2XZbjZ5OxLQa2Pcrb+pwsWwc77ir51By4TrHPwirj5PaRoJGgUYSmoz0wZUEDEmuJJwgpCDWI9dCudYln3XxIxC1pJqG2Zcijbexie9bjGVgibXrBPsejuLH2QPr5DGF09rlvqhVIHBd9IKxom+VM6bsXFaxHmvKHogpj2P7LBBJ8sXsN/fnMsegvnzl369e6+XX2FYmB/SsoSAKIKm7+hdcSB/ZhHVLWk5SBvLPe2kY9ni+65vaqHvm//fKxHePVkU/YtjaJnxUM8IfP9MPaRN17P39XZQf1JHgoZ3vY4Fw5P4yFvB2fc/raXQ9Wdnxb/mWf/sAG7bKOc7B11l/Wwzbs4LL2rE82b0UM8xAgnCNtsQ4pL4wf88/WA4ebvv/TeRSIdcTErvPNx7fbYRzsL9bDH4sp5wn/6KvFA/WpPYo69kH62Zt/WM2D/TE21ptzp89IuS5sa+ts3vrFfWT72HqPofWP+w62l312rH+cn8XM+oc8/InVc47wAxfwwJ7gvoDvvFHHCB/tw09gj7q6dWD7uvnCP+6BmK9N54Cx0NbignXBPHDBB86Jbfx6oT3WAzc+y5jj3994b/WMPtY/CZqOyGxJkQT52k00acqCBoSRpBEHVw5Jrk66Df5nHeKZchPzhaADEQeZtljECDnav+VtF0ZFCvqSkBPL3e99f2NxGMMePtCm96cJya+bn8WE+8AKEluPvB8fZRAY6BvzhWXox7acCwUU61CPMmALn2P1HKsy1uJ/1tlX+J98inDxf/hISbxIhkgUMA2QBdaTlFmbaEsywHrfH4QBdnCRcHJ8D1WKZGFM9iGJStnE+PQZ9vFsfYAdzgE26C/nzzr0RVvW237eT7TBTRvs4+fHes7F1ltfaA/1KCfGNm99IK5sx3GsT+jLC+X2meVMWU87tm1snWO+wAYutqcNpHY96DsxYT2fkdr1xDPnSdso83Y4F6acC+2y3KYY264/5gBf2Qf1HBv97LPNow59aIt+8hn1sE1b9A02eKGeGLKMKWyzL8uQejvEJGbXt0V/axd97NxRZ9ehyXxT/vuxmswB47Mf/KJt+sk5cs5sj3YW92VrIUEjQaMITUd7YMqCxh5yyNu/kvu6vp/XIZ4p30Geb7/jzqqapJ5tQbZJwFkWEx2oi5Wj/1veeuH89TEbCaM9m6K9FxQxu+xTV2fbpObHNhgXc4+NzzZIY3ujrk9MlFh7Pm/nQzEEv3DxGT60fa26r/A/c0tG6JcnIfyfO//nz3ZMQQ74V9xY22X1fjzYBcEgGeE4TGMky9vwz96mt4+5eULDv0LDf+QxN9wgibiJB2wxT9/4Ghb84MUxkcaIJtvRBm2yPEbCYAuXna/NW+xtnjbtvG0/zJPzZ1ubelvWDtot2we+P/oQH+StLxy3rt6PB3+IMevw13asMWynLmKPz4W9SdJZb21gLqjHmBwLeX+hLoYp5gV7sb4WJzsn2k7ZRH2sPcs5HzzbMWi3Dmv6i7Z+newcUr6xv23LcX2amoNfB+8H6zFWzE+U2TnaPOpivlmcJGg6IrOKenQT9SgJVwma2V/f8UrSMtJdnW49/WdV4tnUXS9oSMgtiUabGEa+L8ZEPytQQP5jfekf6r2AslELtqNfWC/rG+tTacxHCAVEkSAm6sQJbGIs2LAX+qUiVmjv52P7+nzMP5TxO0jwr4trlX1FEmaJGX3z5CD2P3e0BQkg6SNBipEY29/m7XgkHraMhJRlNgXRoQAhebFzQb7OpicwnjjZedg82qEv7ONGHfxEyovYev/Rj3hZX9mPKefDtja1/ewcUM7xbN6SMOQpzDhWqh7lEGXwJXZhDIzPC/PHegAfXP4ZZX4simDa8POx9tHGzsvmY+PZ9aQvwJH7lGP6lNhzHr6etmy97WPn6PuiDuPb9WQe84FtL3jseGjD9jZNzQk+2nbM+/Yxn+1a2HrvY906NJmv3TMeLzzbdbT1xBzj47L+sh3quIds3tbzM+P7+3mij10LCRoJGkVoOtoDEjQ8omav/YCEd0Uet0fKz61CPHNGiRFqEHaIEJLqL1/3lflrUbRNgdEEs9gYtIP+XgDEBA3bI62zZ9ul2kJ0UBRhfCvAfP8cQYO2deLN28Y87NjElL4xQoN2bV+5+4pkgP+z9/7UkRS0RT+QI5KBOsKD9pYI2DzHXUY22M6m1g7G90R9mU1PYDxxgn1LLtEeNnljTBB+fH8E3wGwF4kcBRfrYAOYxb5zwjZIuT6WNNt65u0c4BfXw+bt2sRwsvV2XM6TY9mU2JMg25Q+sI2dgx3L5mnbzwfP9rLzsnm08ePZ9WQd50QfrW3mLQYssylt2XnZPrF5sX9dHdrAtt1zLCPp93Om3VRqMbC2PK4xv+xacH4Y39v0Pll8Ynatr7atLbd5Px7rrE8os/6yDXzjXG3e1nMv+P7L1kKCpiMyW1IkQb52E02SoOERNUtzSPJiz26fcolnrjdN5h2LSCwTAtYPigIvlDB2zA7a1X3xn33uuefeShBQeHlhBB/8/GDbfseHtiAmYhd893ZjfdYVMxg7ZncZFjGfm5Tl7iv8z9uTbTtOHUmJ/Y/eEpcYSVlW78eDL55gWP+YJ0mJtV1m0/fxxMnPE/UQMLgxH9SDDEHMoI4XiRa/KI5xeNkxkSeZYj1T2rB2WWdTa8/O1+Yt9jZPOxjD7gX0tfNkO5v6PqxDOf/6v2wfxHxJzYf26+r9ePCF+No65jHP2LUMe9bb/rSJMW3e26+rQ9tYvcUphbsfh88WA5bBHtbI+m/HYDuLNcrQHnhib9i+LAcuuOwcbJ52bbqsHm3hm/9jhR8Hz94PlNk5LKu3bWP2UWZxkqCRoFGEpqM9MFVBw79686/gOHRweeK7Vdx7kks8cx1uMu8YqY/1q8PW400/Y4QdxJ4iIjZ2jPjTnk+9n7BHAWTTVGQlNhZswC4v5G2kheWxlBhxfrZNbKwYPrbPqvmcfQWSQ9KZGs//z98SD5tHfz7TJp9JJkkAQRhse/jBC+Phr/wsa+Ij+pKccWzaQ+ptWjKCek9gMCZ9Rj3mYf9azrFI/jkvPnNsix37cF52TOKE9v6ibfbz9Xy29uy4Nm/nTX/8Wlgf2MZiwfGY2nFZhpR+wx7nZ+fgfVn2ypndE7YvxrJzxLMfz65nrC62Z+wcrN8otxfq7LoDD+ur9822R53ta31jntgTT66Xf4ZP1rb1kXW0Zevgg/XXY4u2fo25L2w/tPNz5RyIX5P5sq31kfnYnDluCkfUwyZ8JXbL5uzny3lY/GwbCZqOyKyiHt1EPUrCdaqCBgeXJ454ThFaHpJ9pTnEcxUfPeHna0/ABBcINbDhM8pIymMiBWWW3HusYz5aH7xt7w+fY2Mvsx2rX+bfMn/8fGNj2DLMNSZm0MbPjWOjT9tXzr7C/5TxP/rYTZK3jKSQLMAG+uAZ5AL9QAQgBBCh4BiWFJAoWBKDfvjLL9qxj62vwwvzsfbZFjbhB+6YTUtO0AfjWTucB4gcrhix8jjBBsayvqMNiVdsTGJOv///9r62V7KzunJ+xvyA+QFI8KVHRJYdRTMD8yFC4w5xjAF/8IQ4BLDbg90EAvgFzMRtGwUCzowbK4lhBAO0W8ETbE83eHgJNhKGBmIRGwuj4JfIBtmxkfhwRqvuXXVX7XrOqfNUnXrZddaRqs85z8vea6/93FN71VP3tvpSO9rPa7WnWPRai1Vcgw/+mVxghQ09GCdslA4Wtm3YGO+Pfv7LSdw6LmJZJGi68qcxAmdcV/DLfMY+jEfc7Nc4Gb/i1n5ewz/XFewgxzoH9tkfc6x9ul645tp+duCbsdA21xZx6Vk50HZcAwNxaV44Dv148SAv0d+iPNAX8cZ4I2/0F8+Rs1LuuDbhA3YxhjEAZ9d6ivGSZ/WrPi1oLGi8Q7OmNTBmQYMHHwpRfkK/q2IGOGsKz/hA73OvYoLjKWLITxQPLLxV5HAuzrXcsnCnv1jAL8KjvuN1KT4ds0jQYCzjJT7yEdvZjzPH4EwBE+PQ8eQy2uRcxTzE9brX1RAYN20jFlqb9r8Jfyi2EGc80MZCLvYtukfhyq/VLRq7zv5M+WPxq4Jmndxswnbb2tqE76F8IAb+HNSup0U5taBZUzGbaSfBWNezmzR2QTPUA3Dddlx4rpvhcdr3uprPe20BM29ht1v4iTnijIcWcrFv0T0+5Yaggf1tHpnyt6j43SaPy/juWlvL2NvWHP05qF1Pi3JqQWNB4x2aNa0BC5ptPTLr/LrwrOPLo/sx4HU1z1NtATNvYXdb+NWa+PUfFmH8KlFtBCgAl51b62vR+Ez5I+/7sEPTtrYW5WsX+y1o1lRwemdiPTsT5vWAVwuaXXyczmNy4TnPiVtWZ8DranUObcEMmAEz0JcB79BYLHmHZk1rwIKm72Nou+NceG6X/3317nW1r5l1XGbADOwiAxY0aypmvUvh3R8Lml185M1jcuE5z4lbVmfA62p1Dm3BDJgBM9CXAQsaCxrv0KxpDVjQ9H0MbXecC8/t8r+v3r2u9jWzjssMmIFdZOD7zzXNL15qmmdeXvz6N9518K6D10D/NWBBs4uPvHlMLjznOXHL6gx4Xa3OoS2YATNgBvoy8OSLTYOXBc2aPqW3AOgvAPaNKwuavo+h7Y5z4bld/vfVu9fVvmbWcZkBM7CLDLzym6bBLg1EzaKdGu/QWPT462kVa8CCZhcfefOYXHjOc+KW1RnwulqdQ1swA2bADNQwAFEDQQNhg9+paXtZ0FQUs/u22+B46neaLGhqHkPbG+vCc3vc77Nnr6t9zq5jMwNmIDMDFjQWNN6hqVgDFjQ5HncuPHPkKRtKr6tsGTNeM2AGxsKABU1FMesdjfodjX3jzIImx6PRhWeOPGVD6XWVLWPGawbMwFgYsKCxoPEOTcUasKDJ8Wh04ZkjT9lQel1ly5jxmgEzMBYGLGgqitl9221wPPU7ThY0OR6NLjxz5CkbSq+rbBkzXjNgBsbCwEYEzblHHm/05UK6vpA2Z7vBmQVNjkejC88cecqG0usqW8aM1wyYgbEwYEHjHRp/5axiDVjQ5Hg0uvDMkadsKL2usmXMeM2AGRgLA3skaO5uToedIN0Vmr8+31zXUchees9jzX333ORiv4OjMe4aWdDkeDS68MyRp2wova6yZcx4zYAZGAsDWxM0UWCsXhxD0KhIORA4p0+VvqokY0+dn/k6XMRVui/bLPlx2+p5reDw+InmyssubxWhxy67ofmD4xX2CmLOgibHo9GFZ448ZUPpdZUtY8ZrBszAWBjYW0Fz3ZnZ39uZCpPzZ5tLLxZBUyhaUYR7h2a1wn+jQoY5vOStzZtPnmrec8W8qDl2xY3Nhz5wornoktXisqDJ8Wh04ZkjT2R1T2QAACAASURBVNlQel1ly5jxmgEzMBYG9lLQTMTI+fiVMd2xmRU0reKn9BW2iSBarSjeSrHPon/fzxNRc0dz4u1HoubY229pbjp5TfP6FcUM8rZJQYPiyS9z4DXgNeA14DXgNeA14DXQvQYGFzTTnZBDMYAisG/baoX+oUjBV8jO3D352hGEzeT68GtlR78TMytoSn69Q5NZtF3eXHry1ETUHIiZdzfHBhJymxQ0Y/lUZR1x4sHvwwwMzYDX1dCM2p4ZMANmYBgG9k/QSOE6ETSHwupIzKBQPxI0Vbsz3LE5FEwlIeS2XRFClzdvuv6O5iMnhxMzyK0FzTAPnnVbceG5bobHad/rapx5d9RmwAzsPgN7J2hOy+/OqIiZFTdnwx8QmC3CIXLuu+dsc9pfL2v9BfuxCjcLmt1/qAGhC88cecqG0usqW8aM1wyYgbEwsHeC5uhPMWMX5uAPA8z/VbKjHZpYmE+/pnb4hwH49bXX8K+heXdm1CLHgibHo9GFZ448ZUPpdZUtY8ZrBszAWBjYY0HDXZebmtvOQ9g81tx2LdtKgqY07ngz/UqahcyohQyFrwVNjkejC88cecqG0usqW8aM1wyYgbEwsJeCRr9eNt1hkd+t0d+hmRSqk90XCB6IGhU+BwLowN58O4tcnykU9/9sQZPj0ejCM0eesqH0usqWMeM1A2ZgLAzspaBRgTEjbqa7NEc7NJMdmOnuCwXN0dfVjn4Phzs4j0//ipr68fX+ixnk2IImx6PRhWeOPGVD6XWVLWPGawbMwFgY2DNB0/KfafKvk82czzdHv29zWIxfe7a5bzKm0DezwzOO4t0ibT7PFjQ5Ho0uPHPkKRtKr6tsGTNeM2AGxsLA4IJme0Xw0a7LYgw1Y+eL2sX2PWdfObKgyfFodOGZI0/ZUHpdZcuY8ZoBMzAWBvZI0FhE7KuI2KW4LGhyPBpdeObIUzaUXlfZMma8ZsAMjIUBCxp/lcx/vaxiDVjQ5Hg0uvDMkadsKL2usmXMeM2AGdglBl75TdM8+WLTfP+5pnns2WFfFjQVxewu7RQYy3Z25CxodunR2I7FhWc7N+5ZngGvq+W580wzYAbGzQDEDIQMBM0vXmqaZ14e9mVBY0HjHZqKNWBBk+OB7MIzR56yofS6ypYx4zUDZmBXGICQwWtoIUN7FjQVxax3RbazK7JLvFvQ7MqjsRuHC89ufty7HANeV8vx5llmwAyYAezOrGNnxoLGQsY7M0usAQuaHA9lF5458pQNpddVtowZrxkwA7vCAH5nhuJjHWfv0CxR1O7SjoGxbHbXyIJmVx6N3ThceHbz497lGPC6Wo43zzIDZsAMWNBYcHgnZYfWgAVNjoeyC88cecqG0usqW8aM1wyYgV1hwIJmh4pZ74ZsdjdkF/m2oNmVR2M3Dhee3fy4dzkGvK6W482zzIAZMAMWNBY03qHZoTVgQZPjoezCM0eesqGsWVcv//o3zZWf/vbkhWs9HrrwTPPGj51rnv3Vq9o8yPVdD/2k6DMa/8HPXmzecOu5BufS0WYH2F978v7WF+a1HYgXccNGluOGz36vwat0INY2LlaJcRWeMPf4nQ/P5RV5vujDD3SuDY3nhs99r3Os8qHzVokbNkt8E3tcW/A19M+R/lzwZ5gxaZ/Gv4lrYimtN+LrgwNjaSPyyXXHfj3X+GjDYUGzQ8XsLu4YGNNmd40saA4eVa+88mpz8y23Nl8+c7bt2bXV9prCswboE0882bzj6nc1b7vyqskrxv/Io9+d9mEcxuuB8Zx77YnrmxdeOComo22M++Sn7tLprdfwi3wgL/GAzz52gAWYiC/GpthLsUW/vC/55/qhr8gF58YzML7v/R+c41V572sr2u5zX7OutACJhQOKg6ELMeKHLwipKKLYz/MQxVlb8Uwf8cyCaYjiKNpe132pwKYvcN0mdjhm0+dSTtoEgWLjeq3NzbLz1Ldew39cv2iD+H7nZx6dWdd917raX3StPxcxNu1bZGfo/oiF9pnbvnnDeo3PI9oqrR301fqgvXiuETTff7ZpXvM/muZvfjD7hwQ+9HDTvPW+ozbc/9s7Dl7+owAWTN4BqlgDFjQHjygWt7HojQ+wbd3XFJ59MVJwoHjGQQHAe/Rfc+K902Ib7Vpcx3twpyIE98vwCbsQBmqLMcFeH2FEgUH/MTa0d8VCf/Hc5h8CS/FinN5HO7gnpiimEL+29bFVst+nrWZdsQBBAYFPxlEU8EDxoYKGBQM+EUX7vd94alrUYax+UsprFiUUCWiHHxR9WhDCP+dEnywS2a/FeZ9isVQAwYbaIQ+wR6wsvhg3xtMWYkccwKRxgDvlAn23f+XHE1+Rz+gHc+GfnMEfY1ZOMI6Y0I8++NF4mEPabOvjOGKhPx3f1sd28kQOSzboh2fM1R0axhP9Iq6bvnRhwsNbPvnNiWCgffR94quPT2KHPdyTO/ghvi9+5+kJR3Ee7II7tCMG+EauYAdt8eeB2HEG3rhziPlnHv35ZG2jHwc5UVwYRyzMa1wbmIs5wAIbOHQefn7g/zv/9C9TvLCJOREbbGsf5uKFNtjEwTFoK8UNu+hr658YkXhhLx4ao/qjXZz/4u8P8sk28qO24trRPsRDrrmmaIvtGM+8sA9n9g8taCBmIHogfvBX0yxoKopZ74ZsdjdkF/m2oGkmBTuKT3xSjuJxF4+awrMv/lKhjDbufuDMa9ikSEDBzWvlK+42YC7G9j20wD91+8dnBAHFF0QIcqW4SvbhVwULxjC2Ena2teHt8h+FX8TDuNQ28EOYIU4VjZiLPo1vkf3or+a+Zl3xjR0FBooBLaC0AGFxyDd9Fgs6XjFiHIuRRXMxVu3offRDvCzEdKz61+tSAaSxYSz8oMDGWOLFGPrHNQ72MTa0KW9xPOahWMKYiIN9iAEHYkOhCRsxLr3v8jExFP7BXPIVuia35FRxIB+47+ojF4iD4+gn3ke/ygXtcC7Hltppl/lQXvQaNjCG66o0Lxbu8I9c0TbOcQyxRXvACl84ww65xL0Kt4iR9089//Lk54W+o33YjLEQWxyL9UGxFWPg2iE+8kRbpXtihB/26/qfNB7+E7FoX+RC++BDbSqHOg7XXXY4D2Ngj3zqPTFiLA/4JwdDCxrs1OhujQWNBY13aCrWwNgFDQpZFJUXfvijSaGsBTofYLtwrik8V8HLYpoFfuSD/aUiXeeQVxTr/BqWFukljLD58MPfmHTBr+5woKhHjnAQQ8kG2+J8tJdEDseX4mEfzl3+S750bun6qw88OBGFfcTKMvZLPkttNeuKb+544+ebPosdtLHI0Gv61CKLbThrQYX70lwtkvRa7ZRsRXtdc2mrVAAxVmDDATsscNiHXRjEjz4e7OM8tGu8EQ/5pW2caQ9nflqOcbCDe1xHO/SPc6kPdulDx3K8fhLNa+Io5Yc2uvqUi9I45YX2eMZcFPqcx2KS/TirfbaTT8zDoVxEf8p11zzajhxyDnniOJ7RTs41d8BG8YH2klCmDT2r/0XzNFbiJCfs4y4i2+GLfTjj4NwYI7EwTxxPvOiPc9Se+uQc+op9ERPGt9lHXxsm2OU6Kq0d4iidFcPQggZfR8PXzf7jZ5vmiRe9Q+NivqKY38Udk01jGrugQZGLAlmL8dJDbNttNYXnsli1uCYfuqsAuyiuwRcEQOl3P9CHMRQIuMZBe+jvc3QV8bCxyA5xqi/EB8zAFo8uf3Fs9E9fOFO8qRiL8/VeOdd2XIN72NOvn8Uxq97XrKtYZGhRgGsKGhQvLNKID/2xjYWEFjuL5nIOCm0WJPSBQoMFobbxE+iSbY7jua0A0qIJ14gHRxeeki2Ox3zYwUsPYGQbr8E7xAs5hA304bUIwyIf6hvX9BnbeY/+mMc+fRp3yUaJK9rlXOSc8UQMHMO8YG5cr+pX+8gvC3Htgx2dR0zAgXY9iE3beM3cwTbmcS5wIxac0QYbOLRopg09qz1cd82Dbe78xNjgBz9H4JY/v/QTMZQ4xljiVlsUwjwzXtrGOWJZ1Ef/0VYpF7TFOcShZ10rsMk+ckkbPKOdY/jsGVrQ4GtmEDIQNBA23qFxQW9RV7EGxixoUNii8MSZBTeK0l08agrPZfCjsEbhzPjJx7KCpoShq3iP44GjTRREQRHn4h7zo+hpEzQYWyMaon/Mh/DAmQfGtOHnGJz7cEJxGHOhdpa9rllXpQIEb/IoyPD7ACyIUBzEglMLMGClrVg89Jmr81Fg0C8KqnUJGuJ/8rmXpgUocLBgAu6IHX0sJJkfjmcRWoqfbYznwtO/nPpEH+bidzrQrwc5VU4wnvY4FjhjW58+jIkxct6iPo27ZKPEFW1zLjHHe4xjG7jhQT7YFv2SB/DI3S7MXTQPY4AF8/VAGzFqO66BDz8TWD/wpbnDHK4H2kQ/hXi0RXtcW5yP9tI8+ObYGBvGozinf8UfbZU4hk/lsQtzjCNi0X7FjHaOVXwcjzbyxjaeox22t53BA0ULbcI+2vhMU17WIWggaviyoKkoZje9G2B/u/c7O2MWNCg6WSSygNeitO2ht432msKzFl8UM5jfxgeL+VKR3TaHeDCHuzoUAdzRYB44Fv1tgoAYdCzt4AxbpfloL/1eTY2Ygc+Sf7Tp0UeoYHzfcdGn+lrlumZdsahggQi/LHIuvePhqbBAP0UGsaE4YEGANtzHMWjvM5c2caZ/zNNCg2PUXsTAMXpuK4DYzl/a5xz1z2sWQrwHBh6KsYQHxROLNvCN4ld9Yg7EDMagv3So30U+4nyMp//Yh3vlM/Z39Smm0jjlJdrFXBbk7IMNFJk441D7HBPXa+QCPmEXfKKPx6J5GKd5wj3nqB3a4xlzkEv4BF4emAMMGmMpHo7nGfYwDz9XtFeap9wSJ3nTPlxT3MCH9uGec2OM5KLkm1hLZ9ojFh2DNn0+wKfe61j4j5jYD0zKK9sXnWEPvOL3leJ85aVG0HDnJf6VM/7eDPr/y/9umgeetKDxroSF3FJrYKyChgW5FsK8jsXpooffJvprCs8aPCjyKQLivFhEU7BgDq9VAKpgKYkHFO9tX/mKvkuChGMiLrbrueQfNjW3uI4CR220XUf/8BXFV1+hEseVeAWO6LMNW217zbpqK0BQfOiuAMexyGChREGD8fzKRsS7aC4LDYzDoYUP/aDAwcECizji3Mmg8E9XAQS7WkSrD+DAobHRP+NGP4u/trmwT/wcjzbGAPt6jzExLuWEGBRf9AEbPGBL/bOd55gftDOmrj7FwXH0E+/pi+e2nAAr15Ha5zzaZeyRJ/bTRt95GAfsOk85p514hn8If8bNfq5bXSfoi3ijD9yXcqnzYoy8JydanNMnhUPsQz/mxbj1Hr45H+NLeUE7jojlsHkipGCTGKNPjuMZfMJv6WhbOzo2YiQu2Ix9vGfMNYIGuy4QL/z9GNxDvPy7Tx79KWf8lTPt9w6NC/ulCvux7h6NVdDoAw3XbYVkHLet+5rCsy9GFNPYnUBBXjpisR1FQrxXEULBSMFTy6/aitj6FPfRH/EwVthfRswAS/QffXFMFDkxDtxHjtEWecV97S5SyVeprWZd8Y2ehYbaQ1FRKmRQcOHNHzsNLNgwFu3xxUKPRQP6YZOfQsM/MXAuCwtgQQGGT1Mxnv20iX4t9BS7XsN3/ESW/YhbY0Q7sSon8IlY+deoNF5yQJssZhkr+hVzLOZK/ro4gR/1AfvIhfogFpzBUVsfxxEDOdaY2vrYTp4i5i6fmFvKCW1gDXz9x89OckP7wMp+tpXyX2rrMw94ETfWA3jQdUie4pl5IB7201+JA7SR5+gjckp7OOs87ArpV8EQM2xiDDBpn2KJfbQP/G2Yom+Mi/HSDn3RFs8xTo2FY3BGO/0hptLRtnbiWI1JbWOc9gEb7pF3+KwVNBQ1/H9mcI47Nv5/aCxiLGKWXAMWNAePtlJRGh9627yvKTz74kRhzl0pPWshjmKafaWiGsKA/VEgUESwH/76HqsKGviJ/mGz1E58OHNMF84oaDCW64e2lEPioJhS2yVBg37ltcS72ljleh3rqoSnVDiWxu1yGwoZFlF9cHYVnG3zYb/GR5udXWvvW1iuEzfWYOQWbXjVHruQJ3AKUYWzj+0wsIyg4e/H9Dl7h2bJwnasOxRjj9uCZjsPwlqvmyo8a3F5fG4GNrWu9kHQoIiFqOl7WNAcMdX2af/RiPVfRRGCHYL4C/p9UURbfecNOa5WYA/p27YOGLCgseDwbsoOrQELmhyP5k0VnjnYMMqhGNjUusosaPhVIRSxNYcFzQFbyH38Gk8Nj6uOZR70q0wQA8C0zO4M8GxT0PCrWvHrj6vy5Pn1DFjQ7FAxO/bdCcd/vLGgqX+IbWPGpgrPbcRmn9tjwOtqe9zbsxkwA7kZsKCxoPEOzQ6tAQuaHA9UF5458pQNpddVtowZrxkwA7vCgAXNDhWz3qHYvf8XZtM5saDZlUdjNw4Xnt38uHc5BryuluPNs8yAGTADFjQWNN6h2aE1YEGT46HswjNHnrKh9LrKljHjNQNmYFcY+P5zTfOLl47+I8w+f7msZoz/ytkOFcub3m2wv/odJwuaXXk0duNw4dnNj3uXY8DrajnePMsMmAEz8OSLTYNXjUipGWtBY0HjHaCKNWBBk+Oh7MIzR56yofS6ypYx4zUDZmBXGHjlN02DXRqImnXs1FjQVBSz3tGo39HYN84saHbl0diNw4VnNz/uXY4Br6vlePMsM2AGzAAYgKiBoIGwwe/UDPmyoLGg8Q5NxRqwoMnxUHbhmSNP2VB6XWXLmPGaATMwFgYsaCqK2X3bbXA89TtOFjQ5Ho0uPHPkKRtKr6tsGTNeM2AGxsKABY0FjXdoKtaABU2OR6MLzxx5yobS6ypbxozXDJiBsTBgQVNRzHpHo35HY984s6DJ8Wh04ZkjT9lQel1ly5jxmgEzMBYGLGgsaLxDU7EGLGhyPBpdeObIUzaUXlfZMma8ZsAMjIUBC5qKYnbfdhscT/2OkwVNjkejC88cecqG0usqW8aM1wyYgbEwYEFjQeMdmoo1YEGT49HowjNHnrKh9LrKljHjNQNmYCwMWNBUFLPe0ajf0dg3zixocjwaXXjmyFM2lF5X2TJmvGbADIyFAQsaCxrv0FSsAQuaHI9GF5458pQNpddVtowZrxkwA2NhwIKmopjdt90Gx1O/42RBk+PR6MIzR56yofS6ypYx4zUDZmAsDFjQWNB4h6ZiDWxS0KB48ssceA14DXgNeA14DXgNeA10rwELmopi1jsa9Tsa+8bZJgXNWD5VWUecePD7MANDM+B1NTSjtmcGzIAZGIaBwQXNX33u/zS3/MXfTj71v/6Wv2zOPfJ4r9e+Fb6OZz/FjwXNMA+edVtx4bluhsdp3+tqnHl31GbADOw+AxY03qHxV84q1oAFze4/1IDQhWeOPGVD6XWVLWPGawbMwFgYGFzQbG9n4u7mdNwNOnP3QbF+7dnmvkfON9dVFK6X3vNYc989N3UX+6fON+fo49A25pXaum3d1Nx2/vHm9Kn93NXY3poYnk8LmhyPRheeOfKUDaXXVbaMGa8ZMANjYWDPBM1jzW3XHhSxR8LiQCzMffXt/Nnm0g6Bs1FBA2G0AM8+iYK1xXL8RHPlZZe3itBjl93Q/MHx1USOBU2OR6MLzxx5yobS6ypbxozXDJiBsTCwVkHzhsv+pMHv1LCAnRMVsqPCMcufsUMzL2gmwuaR2d2P6848PrP7gvsubDN9uiMDISIxdF1Pd2gq5tCed256ipBL3tq8+eSp5j1XzIuaY1fc2HzoAyeaiy7paatF7FrQ5Hg0uvDMkadsKL2usmXMeM2AGRgLA2sVNG9714ebe774f5vfOf5HE1HDAr10Xl7IsEAtfOVsIjbON9fJV84m4kVFycXHmyhwgKW0Q3O060Of/c4lW4x33ibiqPt6HG35fLx5zUTU3NGcePuRqDn29luam05e07x+RTEDfi1ocjwaXXjmyFM2lF5X2TJmvGbADIyFgbUKms0W2NyhwVfMjnZqphi4MxLEDPqXFTSzYmT292C6RAx9loSdtk13dVp2C6axuX+6C3jAyeXNpSdPTUTNgZh5d3NsII4saHI8Gl145shTNpReV9kyZrxmwAyMhYE9EjTcLZkXNBPh8Qi+Znb28A8HzAqeZQTNZKen5etmp0+17BadOTv55X+IltOnZgVQSZwQt3+/hrmtOV/evOn6O5qPnBxOzCBHFjQ5Ho0uPHPkKRtKr6tsGTNeM2AGxsLARgXNf//0/2re/Wd3Tj5Nj/9HTamgr2vTHZqD34m578z55r6JkIl/rexQcBzu1nSJE90xmVzLDk/bDg13Z3hGHPOi6UDQzNkXkeTfnakRMJsZa0GT49HowjNHnrKh9LrKljHjNQNmYCwMbFTQnP7Cg82tf/m5DQga2YHhV81EKERhMi82+v0OzXQHRWxPdmcO/2LZVNDI7/AcibTFOzRHYzdTrNvfYp4taHI8Gl145shTNpReV9kyZrxmwAyMhYGNCpr1Fsy6QxMETfiTyBMhIjstKwmaqZ0oULgDM/sL/iUR1LVLgz7/Ls1iobHetXXk34Imx6PRhWeOPGVD6XWVLWPGawbMwFgYsKApfh2sYoemTdBMdobON6fxJ6GnY44K44MC/OCrb7NfLYMQEkE20C+zb6rg33c/FjQ5Ho0uPHPkKRtKr6tsGTNeM2AGxsLAWgXN5v9s82PNbffI/w2DnZmeXzlbtEsy7RdxUtptgTg5aKcoOdypkXmToj9+DW1yP/v/4XhnJgrA7d9b0OR4NLrwzJGnbCi9rrJlzHjNgBkYCwN7I2imv9gfhQMEzRJfOSvtNMSvqsV7zJngCP7m2w//KIH87k3EyDmzuzfbL+hLvIypzYImx6PRhWeOPGVD6XWVLWPGawbMwFgYWKugGVOh61jHIbYsaHI8Gl145shTNpReV9kyZrxmwAyMhQELGv+OSvhPKcchTJYVoBY0OR6NLjxz5CkbSq+rbBkzXjNgBsbCgAWNBY0FTcUasKDJ8Wh04ZkjT9lQel1ly5jxmgEzMBYGLGgqitllP9X3vP3Z9bGgyfFodOGZI0/ZUNasq2d/9Wrzxo+da+566CfFMGP/D372YvOGW881OOt1cfKaG1/+9W+aKz/97ea1J++fvm747PfW7DWveXADvsBb6VjUX5pTasNa6vJTmjNEG9bjRR9+YLoWdF3gepm1MdQaH4KThy480xob4oOPofAyH/z5Vy7bnhWcU3vWuIa23RcL/OI5iHjjwefMImxYX33WmAWNBY13aCrWwNgFzSc/dVfztiuvmr7ecfW7mieeeDI+p7Z+X1N41oDV+K89cX3zwgsvTqe/8sqrzc233DrlBmNLB+a87/0fnONNbYPjvtzS7yOPfnfGHfICG8zXl8+cnekv3SiGGB9wo4322uKLdtviBV7a6hMr8HM8eEbcPMgB+/ti4/y+55p1xYLl0jseblBY6ME3chZL2ofroYunaL/rnsWrFhnE21aYdNkbQx+KLYjRm750YS5c8Ig8DyFEYGsIO3MgKxq4FuKarjAx6NChOcHP7fE7H578DCrQIX8mKTRKP2ND5hfrUn1oPJu65nOwtF7QBqEMbrsOC5qKItU7KPuzg7LuXI5Z0KAwRSGJ864fNYVn31hQJGshjQJb79HPQpoFdhQRFAWxgF+WW/pBIa+ChmKGbfTL+1LMXfFxPuOhX96X7KGN82K8wHfNifdORR1wRQGlNuFH+5VrjNP7vtjUft/rmnXFN/Lbv/LjuUIXb+AoXFA4seDQgonX7/zMo9NPjvUTStrmp7vaB3sorCE+0M9CAmM4vk2YsFglJuVF+/SaYzBHizFgxD3OiIef8MP3vd94atqHMeqvzc6Pfv7LCV+YS1uY++RzL01jjcVRG09sV95icYV78qU8Ml49ww5yhTNs8wBPaMcLWJ96/uUJVuYE4zBHcYArjMdc4oR/xEY76MM4rB/wQZywE7kmHvRhLcIOXl//8bNzWCL3jEPPzL3GgH74IR7YB6au/AAndySBTdck4waetjiJKWKGLfjHPBzoJz/azvnxzDg4n/2KF21cH3/x949P4oQfHsQfOUJ/Vx+5pS2cmXPGwD7YYk7BM/oZH+1wDrit/fnpygl8M374gH/gxJzSgXaMAS490I4XbGn+MQZxcg7nY4zGiXGKwzs0Fj7eoalYA2MWNChCT93+8ZlPxvXhtEvXNYVnH9wszFUQoI07LbFAh02MjYIHwgMcajGPsctwiyIf9uADxb5iQ5/6hg+0UXDFmBfFVxIcMb5oE77a4lUBgnkUIYxB8bMPbTwUTx/uOW/Vc826YuFy5tGfT960cc8Db9YoLvGGzQJFCyZcozjhGzoLFLyx85rz4j3aWdioP9pCG8boPcfBL4pSxco+nLXwgA3gwUEMWpRgLPrJA/HG2GrtEDftaqzwR0zsBw7FqDhYUMexGifmam4mxsI/9Avb9Md5KPSYa/CEscRAv4wJc9CHF/s4NvLGe8bLe+aAOeF8jGMf/NC+4sVYxRLCnNzSrs5Te5xP+235UU5pU7HGuGiXY9mvmNHGccAU8xjvS/EBN34GgE8PxQs7GpdioF/FoXYWYUA/58IuCni00a76RbyL+skp80HbvI/2yCt55ny0s49rTXEBB/s1Xlwrd+yjf9jQa/TTN+3DblectGlBU1HMrvvTf9vf/Z2iMQsaFJHv+9MPTr/2Ez9150NlF841heeyeLWQ1gKb9rQfbV994MFJ4R7b0bcMtw8//I3JDkhJjBCDnqOI0L7SdQmnjlPRoe28bou3JFAwpwafju3DPTGteq5ZV/omjaKAb854s0aR++2f/MukcGHBoG/6ek3MmI+C9KfPvTQzj/08wx6LFrQpDo5pO8OHzo3jFBeuKX7gA/PwYpwoQnBN3BjDA33009dOKQ7YV0+mRQAAIABJREFUwYuH4gcP2ocx6gv3xKGfLsdiirZL9thHHLCvXzvDHL4Yr2LEePKGa64NXJd4gy3awRgKMuAgbozhgWtyQIzsK/Gp9jkunukH+PQo2Ys+Y+yKH30oriH+VHjFOOFTuSHmOI84lQ/F23aNOLoEDXcINf6IEXG3+SVe4CsdsMWfqzg2chz5jTErjjgXvuN8zQ/623ICXJjLg361jX04s185ibEpFuUA87WvzR7aLWgsaLxDU7EGxixoUMDq135QSO6qqKkpPPEgXOaIRXXcEdEdHLVfEgqrcNtH0JR8KqbStcYX+/v45Jzom4IG60cPcACfXQfGYNcnrsO+3HfZ7tNXs660gMAbNAtdXKOARj+KU77Jo50FXnxDBzbtR6GBTyzxYoFL/LFQ0Hkc03aOBU0cp7aAn4Uf5qHogG+8GBvOEQ9sqp++djAOhS7m8qBP3qtd9JEjPWuxTJulNp3Da9gsHWjHC4UbzrCLa+QZnCkHuNeCFX2YA+zowxzM1Tn0qfFpLtDPolH5oW30EyNtMfY4Pq4njue55Ad9JXvwCQw8uvBjDMaDa8WkfNGOxg77pfyU8HB+1xnzuK51HHxCcMGXrheMUU5wzbzrfF6X8so+nDXeODbGFPnFfM2z9se5HNuWH2Iq5UTt6ji0tx3IKXkjX22+MVZt9fGH+CxoKopZ76Ds/g7KunM0ZkFTelB1Fb2l8Ztqqyk8l8GEuJctqmOB3+a/L7eLxAX8QXhCDPQ9Ynw6j/4wps8R411F0NCf2oQw2nVBo0UO3sTxim/qWqRpUcOYtV/bWGSxAIBtLUpL8zg/nkt+dYwWJWhnocGYMB/FHHafKOAiHsyDHcXYx05tQQab5ERj0Gva1K/dsA0Y+x7qK3KBPCsHzDuLNpz1GmNx6BziwDjyFvOqdjkeNsiBYkR/Kc6ST9riueSnzR58Mh6M6cKPfoyHYNA5pTWpsWMsCuULT/9yRvCW4mMMXWfM6xI0zBV5pS3gQBt/BsBT6cB8FvZt/cwxbPIaY2NMkV+MQRuxaX+cy7HKteaH2GAj5kTt6jj6ZZue1X8pp8o77AALj0X+uCYtaCxovENTsQYsaPiIOTj3+VR9dsZm7tYpaErFfs3XnrQY72KD3FKQYGcCrygkKDDijgdsc66KGY6nvSgGSvERJ+dGDOwvnWO8FDSKCfNgs69dtVHDfQlfTVvNutI3cPhA4YCvxfDTW74Js6DQIk2via+rENK+RUUQ7ZXOERPGwDYLFZx5zT7Ew5gQMwowiBkWJIqNPiNGjFlkJ/IJW7HQgR0WgNEHfeuZ8eDMeSUOdE7pmnbQx4IWuWZuIxbcgyP4RFycAzu4xrGIt7hGiBvzeMAPbOJQjLgv8Rlx0o6eS37a7MEnbPLQ/ET8jJdf6SIPcRxscSxiUMy4plggTvVPHF1n2GwTNLqDChGsXAMn5iGvXT5LvBNPxKyxYUycG3Ma5yv/cS7saT/uNT+8B58xJ8CFuTzoV9vYp2fOw7jSWLTpzwXnxvH0R55xBk4Lmopidt2f/tv+7u8AjVXQaAHJhwzOKEBjYar927quKTz7YiQHUQBgfiza0VbaOSiNpd3IY19uKTKioME9REtsb4uXOErxEXftTg/nxT+CEMULfZewluLjeHBWw31b7H3ba9ZVLCBQ8KAIaiuctXDjWL7p0xbeuOObObDrGz7G0Afjim1aEHIMz/SNOTxgv/RVG46NRSTvMT/i5RzFyDbO4xzeww450CISuBSnFmQcr/3Kg3IQx6JPd22IR22RG5yVf47V+eoX42EffJID+uc9xtAOfZIjjsE9C2wdD9s8MBfYcChG3NM++0sYaEfPnKd+0M/52g7bxI8x6Cvhj3MxT8eBS+Kkf9rFmWPZx7Hwp2socqZx8RpYFgkajIVftU3fmnfajGfgirsenM9Y6EPvSzypvxiv8h/nwr72417zE8djLLFwLWI85yEe8j5pLPzDeYpZh5GXaAf3Oke5xxz2WdBY0HiHpmINjFXQ4KGD4jF+zUrv9cG07euawrMvVhThbcU+bGiRrgV3tF8qwFfhtlTwwwfER0kgRDy874qPPqLo4tyucyne2AacXWsJfpX7yFdf7rtw9umrWVexIGDBwkIs3muxhWt+2otCIRYLLAzYx0IDMWiBpzGhKOB4FgDar9fExvF6LhVxWoCU/JML2IFv7MYoZvrrskMbLKKAF+PJJ+7Rp3bbeGJ7nKu8oE/j1rHKFXF0YcdcxcVY1Cbmqw3Y5TjgAO/89Bp8IYZVBA3skwfaxyfxijPGiXvmSvOgWLW9Kz/E/51/OvjjGOqXcYMfjsOaYT6Up8gtYyIO9HMezmwvxcY4+gga8tCFpc0H/SCnik3XA8bE2MgLY4Bv8EY7un4xX/mPc2M/7mEX9jAW57accCyxYxzyE/FjXDyIGfzFo4QRYzAHa78UJ/qIw4Kmopj1Dsru76CsO0djFjR4sKCQ5FeVdvUPAgBnTeEZH6qlewoExq5nigaKGPahyC4dsZjnmGW5pdggDtiDb+LQs4oC+sV5UXyKTe11iRDab4sXeGkrriX4i1g1pui3L/fEtOx56HW1LI5tzsPvx6BoXOWIhdoqtjx3vxmgoFl1zW2CJazrPkX9UFhQzOO1CwdwrBo7hRTOyxwWNBY03qGpWANjFzTLPGS2MceF5zZY33+fXlfD5NiCZhgex2Ali6DBjgN2KTYpvLYlaOLP71A5wg7RKgLNgqaimF33p/+2v/s7QBY0Od5CXXjmyFM2lF5Xw2QsFkTDWLWVfWRgqGJ5ndygEMfXnlbdoajFuC1Bw6/b8ate8atutXHQHr5StuzuDHxa0FjQeIemYg1Y0NQ+qrYz3oXndnjfd69eV/ueYcdnBsxAVgYsaCqKWe+g7P4OyrpzZEGT41HnwjNHnrKh9LrKljHjNQNmYCwMWNBY0HiHpmINWNDkeDS68MyRp2wova6yZcx4zYAZGAsDFjQVxey6P/23/d3fAbKgyfFodOGZI0/ZUHpdZcuY8ZoBMzAWBixoLGi8Q1OxBixocjwaXXjmyFM2lF5X2TJmvGbADIyFAQuaimLWOyi7v4Oy7hxZ0OR4NLrwzJGnbCi9rrJlzHjNgBkYCwMWNBY03qGpWAMWNDkejS48c+QpG0qvq2wZM14zYAbGwoAFTUUxu+5P/21/93eALGhyPBpdeObIUzaUXlfZMma8ZsAMjIUBCxoLGu/QVKwBC5ocj0YXnjnylA2l11W2jBmvGTADY2HAgqaimPUOyu7voKw7RxY0OR6NLjxz5CkbSq+rbBkzXjNgBsbCgAWNBY13aCrWgAVNjkejC88cecqG0usqW8aM1wyYgbEwYEFTUcyu+9N/29/9HSALmhyPRheeOfKUDaXXVbaMGa8ZMANjYcCCxoLGOzQVa8CCJsej0YVnjjxlQ+l1lS1jxmsGzMBYGLCgqShmvYOy+zso686RBU2OR6MLzxx5yobS6ypbxozXDJiBsTBgQWNB4x2aijVgQZPj0ejCM0eesqH0usqWMeM1A2ZgLAxY0FQUs+v+9N/2d38HyIImx6PRhWeOPGVD6XWVLWPGawbMwFgYsKCxoPEOTcUasKDJ8Wh04ZkjT9lQel1ly5jxmgEzMBYGLGgqilnvoOz+Dsq6c7RJQYPiyS9z4DXgNeA14DXgNeA14DXQvQYsaCxovENTsQY2KWjG8qnKOuLEg9+HGRiaAa+roRm1PTNgBszAMAxY0FQUs+v+9N/2d38HyIJmmAfPuq248Fw3w+O073U1zrw7ajNgBnafAQsaCxrv0FSsAQua3X+oAaELzxx5yobS6ypbxozXDJiBsTBgQVNRzHoHZfd3UNadIwuaHI9GF5458pQNpddVtowZrxkwA2NhwILGgsY7NBVrwIImx6PRhWeOPGVD6XWVLWPGawbMwFgYsKCpKGbX/em/7e/+DpAFTY5HowvPHHnKhtLrKlvGjNcMmIGxMGBBY0HjHZqKNWBBk+PR6MIzR56yofS6ypYx4zUDZmAsDFjQVBSz3kHZ/R2UdefIgibHo9GFZ448ZUPpdZUtY8ZrBszAWBgYXNC8/PK/Nsu81l2I2r7FyBBrwIImx6PRhWeOPGVD6XWVLWPGawbMwFgYsKDxDo2/claxBixocjwaXXjmyFM2lF5X2TJmvGbADIyFAQuaimJ2iE/4bSP3TpEFTY5HowvPHHnKhtLrKlvGjNcMmIGxMDC4oHn4W99tlnmtWuh/7h+7vur2fPO1OzoK6TsebZ55uX3MR7/5fPPys482H7X42e3dnOMnmisvu7wV47HLbmj+4HjHOuiRXwuaHI9GF5458pQNpddVtowZrxkwA2NhYHBB88yzzzf6uvnUX83co+/f/6crmp89/c8z7asKmpn5X/5JnQCxoGkVATO89ij4tzr+krc2bz55qnnPFfOi5tgVNzYf+sCJ5qJLLGjG8HBz4TmGLG8+Rq+rzXNuj2bADJiBPgwMLmjiHwSAoIlt//myd861DVoIlwTNRLToLo7syBwKmgv/+PwRrn+8f1rkz+/Q3N9c0D9+IGMHjWPXBcQu4puImjuaE28/EjXH3n5Lc9PJa5rXryhmkFvv0PR5rGx/jAvP7edgHxF4Xe1jVh2TGTAD+8DAVgTNW/7ofUfC4VAYDCoEoqA5FDMXvsxP5+9uvvbsvx7t4lDsTL9Wdth/KFRmBc2BmIm2nvnm3VMBNGgsuygadh7T5c2lJ09NRM2BmHl3c2wgzBY0OR57Ljxz5CkbSq+rbBkzXjNgBsbCwFYEzZ+c/OhmBU2hmJ0RKYc7NDO/ZwNR9PJPms9dfLzRsZPruCMzmX8w1mKGonHb58ubN11/R/ORk8OJGe/Q5HksuvDMk6tMSL2uMmXLWM2AGRgTA4MLGv39GVzjK2dPPvX0zOsDH/3EzO/PYNygQiDu0EwFTfiqGHdkSoJERI4KmvY/PmBBM2gOpznbtjCa9e8dmhyPRxeeOfKUDaXXVbaMGa8ZMANjYWBwQRP/whkEzf/82y/OvF73O5c1n/vi/c3fPfD15mvffHTyV9EGLYbnBM2RkOFXw1SkvKZW0MQdmh0tvgfl1DFORLcFTY5HowvPHHnKhtLrKlvGjNcMmIGxMDC4oIl/AKD0RwH+w/F3bPYrZ3MCZ/ZrZAeCRv5IAIr3rq+ccWfHRf6wO2sJ+LSgyfFodOGZI0/ZUPZdVy//+jfNlZ/+dnPDZ79XDPEHP3uxecOt5xqca4+7HvrJxDZ8lI5F/aU5pbY2Ow9deKa56MMPtGJHzG1xd/WVMAzRtqzPGH+XnVXyuUqMyAXWWddaaMtF9Pvsr15t3vixc81rT97faTPOw/264ufPEeLchQNroi+fi3JTEw9yc/zOh4s/c+QIucM4PYAB+cR5UY50vXf5U/u4jnGqnTg23mNs6VnCtQjbNcdWBM3v/9frNy9oDn8fZrJrMRErhT8KMN15OdjRKe7mXDzbB3szuz0JinLv3Mx+jayGj7ELmkce/W7ztiuvmr6+fOZszfNmY2P7Fp7LAkLcn/zUXTPTX3jhxebaE9cXucF45Y3XGI95OGq5feWVV5ubb7l1ancRHozFnD5HKT6dB6yKXft43cUHxmi877j6Xc0TTzzJqcUz4ivxFgf3wRbn9L2vWVd4My4VGfCFoqirEO3Cs6hgWNTfZVv72uywgEJ/PFA0oUBpK0S6REG0NdT9sj5j/F12FhWLQ8US7cRiMvYjBuDucyyy1WVjXfFzrbWtpy5M6+jbFJ8R+yKBQZ401/FnsSZHi/wpvrhu4s+Njo3XGFsS0KkEzTv+282bFTQXH29mfvcFOywTUXO4K3P4lbOv4T/Q5J9jnoqbgmCZjJc/Ae0dm9Hs1IxZ0KDgROGJghEHC1bex4fVNu9rCs9anBQnKiDIhbbhGmNLB8ezfxluYZ/+KG5oj/fsBwYdX8LEtlJ87MOZ2LsEDf0TD+dwrSDea068dypiFokQYFdBBrt6T3z004WNY5c516wrvinjTVsPtrNIQxFy05cuTD8d5yeqnMPxaIdYeOdnHp0RQ4v64QdzWTjc/pUfT4pcztMiCGP5iWlXYYK+kliLc1hUwTfGc9eqy/eXH316bvcK4/kJNXwAM16MC7jRznuNiWPJp45jrOzTc4wl2lH/yAl33IgVPBNP5Irxsz/i1fEcCzzxQNxtwljj1DGKm350LDB98TtPT/i+9xtPTdYD2mDjyedemq5T5Y7FMnhgTPTJYpvtPNN3jEnvORdxkgfliuu1tGbQBx9f/M7PZtYq7aCfB+Inv8oPcog4MFY5YmycXzpjDsfBJ9Zv5BPx4WjDhPlPPf/ylHNwp7jVL3/WgJO8KVddOYIdzOvyp/Ez98AS80k7jA0YOF7xqk/kCfN4RD7Qx+ce/el4xruVHZqTN995JBzW8WebvUsyGoFRs7syxNgxC5q+BTEfSts81xSefXFSdKBYRjGtYqFUkGP8+97/wekOjPqJBXott1EQwDYwsMgv4VH/peuu+HQ8sXaJhpJ/iBByRhu0SwGEeThUsFCksA/9aAO3wKwH7XZh0/G117XrKr65wx+KAC3m4hs+5rCfb+x882bRooWSFgOxn/csgliAsNBhkYMzfXFsCTv5imPRzqIiYqW9vr6jHXLGmGFfCzvel2LCXLSzDxjILe3qPdp4xPjVDq6Jh3hZtJGb2E8M7CcvnE/e4r36JTaeYYN+2KZn2KRftMeY9F5tESNt854xwpbi4jqjL45nTIqpq0/H4ZpckKu29cpx6g9YcA9/FMOwCVtYPxyLuSiWYRttuh5gI641xhixxvsSn9F25JdxwhawaL/GEH3xnvgxj3PZtyhHXf6AS7HrvcYZcYOriIN4OBZjYEPXFtcI2jlO8xDH08/ggmaIotE2lv9KlLlbL3djFTSlolIfTLt2XVt49sGP4vnCD380GcrCmfNQbFNMsK0kOtAX25fhtiQY1G7ER0xd5674OA9+Ybvkn2NwVkHCds7553/+xYQrjNGjBrPGSht9sXH8MufadaUFGPy1FV5aJOkcvHFrIQEbWngs6tex6l/9sRhAUaftcW7kC2N1fMRSmh/n4B4FzyLfGAd7MX7cK1+4J8fAg4M+2U47k86OfyJ+2onFFkwohlK/2sI1bOmB+ShYMRcHsKPAww5BzL/Ow7g+BSPmlHC12SqNZfyco741fvbH8Yva2a9n5oy5RB/sLlozwK8CAHOYd5yx3vCCfWDHNebALsfBF/qQB/ov5U7x6rXyU+JTOSv1wxdzG+NRP3pNvlQcsF/9sU1z1OaPNpUXzsdZ48Q97SxauxwLDDiYV/iLfNAm+nBov15b0Hg3x7s5FWtgzIIGn4izKOXvMuB+F4/awrM2hlh8U5RokY4xpd8NKc2t5Ra8RwGluxbwASw4M1e47ntEjJiHXZRTt398Isi4DuCzdNC39kGEIE4Kmrh2SnN0vl5HfDXY1E7t9TLrSouGRUUF8OiY+EaOfi0gFvWrb8aKOSwi0MaCIBbOJdu0gbPixH30Fe8xpq9vtQ18WpxGXBirYoAFGItQ4mCcbNdYStfRD+0oNs5TjCU/agt28GlzfEX+Oa4Lr64FYtGz8l3CrWPVVikG4IE9Hjq+ZJt8cTzOmB/j1P54HXOJfmKLdnQd4JqChX6BB/bQTuywBUx40S76eET/GAc7fQ76gA3Y1jWM+epPr2kbvmoFDeKGmMHawnw9FuWozV8Jm9rVONEOO1zbi7jCWI6hH7TxmrlQbPCh/RqXBU1FMevdj/XufmTgd8yCBl/j0a/yoEDV36nRh9y2r5cpPGswx4Iac8kHBcRXH3hw7mtRFD5azLOthts+ggY46Idf6eorakrxQXDghQN2FW/kriROhhI0wBZ912CLWGvul1lXeFNm8aVv4PSLN3S+qaNN36DjGzn6tYBY1B9tY37EwOIgfqpbsk3MOLPYwzjYiAXbKr7VtsZL/Cz0cA++sgkazbdyqtcYUypMdUzkRvtwrbnWdRXH4V5tcU2gjQfwwB4PHV+yHfOP8XGN0VbbmetAcRBbtKVjgVOxco1cePqXE5EAG8AHu/j9NfTTrvpSm8CofLZhZjvscJ3Cdvz5UH96zfnw1TWf43gmVsYV+VmUozZ/JWz0ibPGiXvYwfMOXOOsfOo8jgVeHhgL3DjrXMWGsYpJ47KgsaDxDk3FGhizoOn6nQU+kHblvEzhWYO9VPDH+SzgdRejJATQ38VtFErwXbKDcfxFe4yh+CAuzvnpT5+aCAIKr7jTg/ExPtjG7gyEEQ7a0tjoB2f4jnY5hzs0EV/0qfZ4jTFRzNRio61lzsusKxYa+IVgfZOm/1j46Rs039jxBs5D39wX9etYzo/+eI8zCyiMLc2lDZ7hH3P4y9OIlUdpPn1xDO+jb/RzPj5RxzUPttMX+OojaJgHtUWbpXP0Q6xaTHGe5qzUr7b0mvPjmXnlL5HDfukg/+QijoEv4MZRwqXj1VZpLOzAHg8dr/Gzn3zhnvZ0PsfpGeO08GfO4IsH7eKs6xX9sI/1gpdyBjtowzrFPI6FmME9+ulLMRI3/aOP84mH59in/EQ7mKOclfphj/FFXuhTz8CF5wvG4oj36o/zMIbxtPkr8cL5OGucuFc7uFZMOo9j6Z99uMcf2KCw4ThygXvlS68taCqK2Qw7CMa43l2ksQoafsKPolSPPkWojt/U9TKFZw22PnGXivrSvGW4VfFC3MgNRQR8w5ceFBRtIkTHRpywRwGk59JX6mCn5EsxRfttHBAT+xkf23GuxaZza6+XXVd4Y8en7fqmTN9aVKBNC49YTKAPb/S0s6hf3+xhG8UHcLCIwD0LDo4FVhxamEwaCv9wDmzClh7sY3uNb9hhrNF2xIVxfQQNbGq89MG/TqbYcR39aJ60jzngJ+Ix7miL/bDBQ+2xn7zBL/PN8TxjTFsfxsAuc817Ha98qK2IAXNhRzHreF2zxEa+yI/i4Jh45lj6iXYVLzFyLGxxzWiM9AH/WEscD1t6j3FqH/ecg3YcmNsWR2kuxxKr4kIf+xk37+N43KvQm4CRf+Cb64/NtEGbkUuMUwyIjfiivxib2kIf58Gm2olxERvPJT6JW3/u1Sbmcgx842C/BY0FjXdoKtbAWAUNHhqxSEVR7a+cTZ6n0z9lDI5wlLhhUY4CPB7LcKuiINqGaMFOBvGwP4qciIP3aptteo54tQ/X9MdYI54oyBbZA56SmIl+cb/IVmlO37ZlBQ3fgPHGGw8tKtCnxQLuORdv8BAf+FRZC4hF/SzyOB9z4ZPtikkLIxYJKEq6DoyjKIrj6AO+4RefkvfxDTsshqLtiAs++goa2MV84OGLRVHEHv3EPOGeNvDJP4UR86F2oy3lhdwgXsZcyi9sxAM+iEHPnE8/yqHi1iIYtjivFAPmKQYdDz+MnxjJFzEoPlyrb87BOY4nj2yPGNQO+dMxtA07OrYUI8ZiLrGCD3AXMSiftI+zcksu0U5fbf0Yw/jgG/axO6c2ODfGBmyYE9thU/tgvy1HGIv5Xf6UF/gjJ4yN3EY7jIvj4YsHxiKueBA350Sb9Ml+zIcdC5qKYta7H+vd/cjA75gFDR4aKBb1E3rc7+KxbOHZN5ZSwU8RQ35YzNNmLOrZznMttxQN9BfFCv219dNv6VyKT8f1EQ3Rf+RD4407PRhLARN5ZTw4l9ZfH2waS831utdVDZZlx+KNv1RELGvP88zArjAAQRO/brYKtlLhvIy9oews43tMcyxoLGi8Q1OxBsYuaLI8HPeh8MzC9Zhw7sO6sqAZ04odV6zYDYCggbAZ4hhKiAxlZ4iY9tmGBU1FMZthB8EY17uLZEGT43G4D4VnDqbHhXIf1pUFzbjW7Fiixbrm156GinkoITKUnaHi2lc7FjQWNN6hqVgDFjQ5HoX7UHjmYHpcKL2uxpVvR2sGzEAeBixoKopZ736sd/cjA78WNDkebi48c+QpG0qvq2wZM14zYAbGwoAFjQWNd2gq1oAFTY5HowvPHHnKhtLrKlvGjNcMmIGxMGBBU1HMZthBMMb17iJZ0OR4NLrwzJGnbCi9rrJlzHjNgBkYCwMWNBY03qGpWAMWNDkejS48c+QpG0qvq2wZM14zYAbGwoAFTUUx692P9e5+ZODXgibHo9GFZ448ZUPpdZUtY8ZrBszAWBiwoLGg8Q5NxRqwoMnxaHThmSNP2VB6XWXLmPGaATMwFgYsaCqK2Qw7CMa43l0kC5ocj0YXnjnylA2l11W2jBmvGTADY2HAgsaCxjs0FWvAgibHo9GFZ448ZUPpdZUtY8ZrBszAWBiwoKkoZr37sd7djwz8WtDkeDS68MyRp2wova6yZcx4zYAZGAsDFjQWNN6hqVgDFjQ5Ho0uPHPkKRtKr6tsGTNeM2AGxsKABU1FMZthB8EY17uLZEGT49HowjNHnrKh9LrKljHjNQNmYCwMWNBY0HiHpmINWNDkeDS68MyRp2wova6yZcx4zYAZGAsDFjQVxax3P9a7+5GBXwuaHI9GF5458pQNpddVtowZrxkwA2NhwILGgsY7NBVrwIImx6PRhWeOPGVD6XWVLWPGawbMwFgYsKCpKGYz7CAY43p3kSxocjwaXXjmyFM2lF5X2TJmvGbADIyFAQsaCxrv0FSsAQuaHI9GF5458pQNpddVtowZrxkwA2NhwIKmopj17sd6dz8y8LtJQYPiyS9z4DXgNeA14DXgNeA14DXQvQYsaCxovENTsQY2KWjG8qnKOuLEg9+HGRiaAa+roRm1PTNgBszAMAxY0FQUsxl2EIxxvbtIFjTDPHjWbcWF57oZHqd9r6tx5t1RmwEzsPsMWNBY0HiHpmINWNDs/kMNCF145shTNpReV9kyZrxmwAyMhQELmopi1rsf6939yMCvBU2OR6MLzxx5yobS6ypbxozXDJiBsTBgQWNB4x2aijVgQZPj0ejCM0dJiaZoAAAXyElEQVSesqH0usqWMeM1A2ZgLAxY0FQUsxl2EIxxvbtIFjQ5Ho0uPHPkKRtKr6tsGTNeM2AGxsKABY0FjXdoKtaABU2OR6MLzxx5yobS6ypbxozXDJiBsTBgQVNRzHr3Y727Hxn4taDJ8Wh04ZkjT9lQel1ly5jxmgEzMBYGLGgsaLxDU7EGLGhyPBpdeObIUzaUXlfZMma8ZsAMjIUBC5qKYjbDDoIxrncXyYImx6PRhWeOPGVD6XWVLWPGawbMwFgYsKCxoPEOTcUasKDJ8Wh04ZkjT9lQel1ly5jxmgEzMBYGLGgqilnvfqx39yMDvxY0OR6NLjxz5CkbSq+rbBkzXjNgBsbCgAWNBY13aCrWgAVNjkejC88cecqG0usqW8aM1wyYgbEwYEFTUcxm2EEwxvXuIlnQ5Hg0uvDMkadsKL2usmXMeM2AGRgLAxY0FjTeoalYAxY0OR6NLjxz5CkbSq+rbBkzXjNgBsbCgAVNRTHr3Y/17n5k4NeCJsej0YVnjjxlQ+l1lS1jxmsGzMBYGFiroDn2nrub285+t3ngHx5v7rvnpubSex5rzv3DD5svnD3bvPs9V3pnwGIq3RqwoMnxaHThmSNP2VB6XWXLmPGaATMwFgbWJGiubf7w3u825x55fPqaChpp+8K9dza/PVRRf+p8c+782ebSYO+6M483p0/131mYiK5HHmtuu7b/nNdcfFNz2/mefq4929xXwDm7O1FhL8Q7a6cmBo/tw50FTY5HowvPHHnKhtLrKlvGjNcMmIGxMLAGQXNFc9k9s2IGwqYkaA7ab21et3JR3iEAICB6CpQDMXO+ua5FHHUVvH2F0GTcmbsbCC0VfOTowEdHPCtztcfC5fiJ5srLLm/d9Tl22Q3NHxxfLX4LmhyPRheeOfKUDWXNunr5179prvz0t5uHLjwzFyba3vixc82zv3p1rm/bDcAEbCXcXdgYL2LGtR4xXty/9uT9k9ddD/1Eh85cL4tlxsgSNzd89ntTfMTJ80UffqD5wc9ebIC7FGt0h7FvuPXcZE7s29Y9sCPGeDDu2txHOzX3XDfkV8+RX+Ar4a7xt+mx6+a6hhP+PIHjyG3khWPb1kLtutafec2xPgfh8/idDy/9szK4oHndzQ82D8guDIv2NkFz7pEfNnfdfEVrEdolIqZ9QYAciIt5wUAspZ0cCo02mzPthfimtgt9RztEECqy+zMRW+eb6+ZEigXNlO85bjoEySVvbd588lTznivmRc2xK25sPvSBE81Fl3TM7+FrrILmlVdebW6+5dbmbVdeNff65Kfuis/Crd/XFJ41YJ944snmHVe/a8rBl8+cnZn+yKPfnfZhHMbrgfHk8NoT1zcvvPDitDvaxri+3MIv8oM8xQM++9iJ/mNstNvli2Nw7oo1rqc2X7S3CNsi3mln1XPNumKhVioI0KZv5Kvi2oX5jBfFShQpMV4UYXHMLsRQwgDsi4q/0jy21RZ+nLfOc6nIRk62sSa5buLPCdtVwNQU7+vkr8b2urmu4aRmLa9D0JR+jsAP192OCZo/bT7yYBAS3/p/zZ9dd/XhLswVzW9dd2/zN98KYx78UvPGHsVkucgNIuHi45Pf1YGAKo4P4odfFyuOLwmOufldBXIQJpj7yJGAmRNR06+jhXlLc9OFbU/7JqLmjubE249EzbG339LcdPKa5vUrihmsp7EKmtIDHEVkqWgvjd10W03h2Rcbi2rEjQNiBKKE9+i/5sR7pyIG7Spa4j2KeBUhuF9U2Jewwi7Ej9riONjrI4wWxUZ7Xb44BueuWClmKLIij2oH14uwLeI92lvlvmZdsSCLhRr8o41v4rEg4Ty80eMNHkXATV+6MNkxeMsnvzn5tF9txvkooN/5mUebT3z18Ya7CfBJuxyPMw/20Sew0QcLG36qqvM4P9pXv+hjvD997qVJPLQFP+/56+/OfOrehoXFzu1f+fF094QcEkfEinj0AHb6xrktFp0D7G2FGNqZo5IvtKmg0Wv6AAa8iF0xwbdyiXvij+2RC/gu4YZf9KkfXKu9Ek7yjz4cmEMsyAl8AR8O5lD723apOJZzJwYO/0GbxgWf8IM22FbMxHfvN56atKMfY5987qXieLhQPjGeGKJfjCWfTz3/8tQe46MvxBKPRVxHX1wHxELfsIMD/CNu+AQPiJG5JEbiUFvoU7y0r+3KNedqnuGLtrlG8KyhXe2PPMBfqZ95+/qPn53hFePpg2sONoEHL/RHvMPu0Fz1+eYLMzsU325uvLpQOF9dGHdVYVyPQn5GFEwEg+yALJo/GR/E1Qz+o76jXZYjnJOvjenvw8DembvLQurw92yOBM2BaDna2TnfXGdB08LdEedFkTqX58ubS0+emoiaAzHz7ubY3JhamwfjLWgOHlMsQpcpwOODbh33NYVnX/+INYoGtLEwx5nXsMnCHcU9r5UvcPi+939wKoAwF2P7HswBROWp2z8+g40iAIIKmBVXyf6i2Lp8RXuLYo0CBPOVO/oiF4uw6VzYon/Oj/hWua9ZV30LtfjGjDdvfO0Cb/RaVBA33sxZ3LBfCwX0sZ9v/piLNo7r4xNjGAPtxXtiwpl9mAe/9IW+6E9jiH2l+DEmxkp/sIWD/cQa70uYUIjBdteBfo2FY5VPvSYWfnVGizK9ph3gYgzaT/zEh7MW8Hofx5IbzqUvnoGXPnGtdjGG89HHA7bIA9q1mIQt5RL3HEtb0Qftsr+EFW1dftBPu+SAfnnPfvgDLsYdbXdx34UR8+CjhB8+F3ENnFwrGA874JLcwzdEA/xEXxzLmDCH8cMWOSA2nLU/5lHvOTfyz/nEQt8cT9zwr0f0zT6NX6/RDx9RCDOHcSzsDytorr+3uetL549epz/R/FaxkLy6+ePTMu5LDzZ/dv0yBWYQBVNxcXdzukWYnDv8fZqJGGkVH/NYWsdPdnEO/yBAh6A5EF7nm9PcoZmIqcPdGgoZnmv+yECR33n8/YTAPs27vHnT9Xc0Hzk5nJjxDg0fQQdfJ4rF/VHv9q9qCs9V0LKYZhGtggV22R+LdPTpHFxDlGCHh19Jw9yuAzYffvgbkyGx6IdouPDDH036iKHLVqlP53X5inMXxdpnfBwT74lNOdQx7Ne2Ia5r1lVXEYQ3XxYKLATQhgMFQSwS2Id+XGtRgWu88OavxQ/GsujAJ+haGPT1qTgn4Dr+0Xhpn8VNtIP42MexjLEt/jgOUDCWXOg1YUa/bMe5ZE/7eQ0b9ME2nNVfLLx0jvbpNW2xQNN7+EMRy3VAbuFTD52r1/BDUazjeQ07GI8zimf6YT/OGh/uOb6EBf5Y1INXLdAxF3yosFA/tIcxerBdseFa7zkGWEv5jOOZF4wFx9EneQEOndvGp/pX7HpNmzi3cQ1f6MeBM3KPF+zDN6/RF9ei4oz9kRPGD7uxD741nlI/sPA5oteMV7GwjWf1zTacMYcxwaeunUU+Im/DCprffVfzxquuP3q9pf1PMx97i4y76vrmt393hWL62rPN6bavmHUW/EEQtYmgqVAixkPBFAVRh6C57gzEC+bhfOQXOz/TXSYLmoF2aJin4c/eoZn/qpU+nHbluqbwXBaz7jSwsI67AhAaKK5R5OtuDH2iD2MoAiiIaA/9fY4oaHTOMsW9xqa2cN3lC/2LYqU9xtjnK3Gcg7Nio4023nXeENc164rFQSyagANtFDS41zdmXHNOW1HBYhUFDF6co8UP40W/fuLL9j4+Y4HEuaVzjBcxsIjtihe2+mApcaH4YAMvPcAHuWI7+QAneJFr9scz+llwaZ/6Zuxow6HxaFGm17QVcTNOXR9si1jhjzErTlyznX70TA6QH35FK9pWrPDPQrOEhfHDRolztaU4cM25zIeeYwy4J8e0gza8SrjieHLU9rUx+MYcHBwLfLhmO/3ijLbS2tAxfbhmHuEL4oW+ERP6GDP8RRycC5+4VjyRE9qFn7acwD7sYC5zznjUXml+CR/nwrfmltdxnavPRT4YO3kbVtBch78odvQ1rXNfv7+5oigobmvu/LqMw67JdUsWn4c7JPzq1ulTR2KBbXPnqUA5GFv6Otl0RwMiZTo+YJzsshx9xQ27OMXfxZlycChopsLnaCdpgsGCxoLm8Ke/pnDiA2NTZxSP+rshm/Jb42fd/KGoxle9ogBpK6z7Fvkaoxbu2l667hIZtYImxhb9dfnC2GViXWSTGCK2fRE0LDTwfX8UJCgccGgBQQ7w5o0xmIMCAme9xpu8HrjXQo19fXxirhZInFs6Ky72Ax/mn3n0560CDmP7YClxofhKxRQKIgoa8sACqmSPuPVMbIhPD/WNdt4jh21F2aICDXaIi2JQ24BFD/hE3BxDv1wXOlavMU/tx3uMZT7RpxwQn2LhWLQp5/RZipt9OpdtJTzoQ1zo04N5L+GK4xkHBY3GoDZxDXtdfAIH11Kcq/cxlniPseTswtO/nP78M4f4/Tn042Cs0T7accC2/rxGThg/OG/LCTnT+OlP7ZXml/BxrvpmWzxHn4t8oB85Im/DCpqLP9HcFX7h/76/vi38/sKVzRV/Hf6s87cebP54WvQH0bCgfe73WObGd4mWrr5DHEHQTHZTVLT1uZ7u5HCHRmJU+xY0FjSHP+HrLsjjg6TmvrZArrE91Nh18heLamBmYU2BwzjIFXdgVPC0zeFcFQawy6+i4ax2ML5LEBAD7XbZKsXGeTx3+cKYZWKFX/2DCvSl5xK2Ng5jzGpnlevadcXiIPosFR54Y8ZXw1icYI4WEGoD81HooHjBGLyx45NdzMU1DxYEpU/hWTx0+UQR0qdog79SYUr8l97x8IydyEsfLLSlRajyqNeMn/j5xwh0bske5+kZc7RIZF/0R675C/LgAwfbcdZr2gEXmnPe40y/5BY+9eBYtuFe1wXb4xl2MJYH7dMf2xkj1hZ9cyzvMVa5ZC4RKw9wqAKK7TjTnuYG7cAX116Ml3OBRTHQPsYrTuYSYxGr9nGOnjG/xCdiQzwRs87lNXzADg9iVq7RBo71ZxHz4Btz0Y8DbToPbein/dgfOWH8sBf7YIvYYKfUr+tXryfgAha28ay+2RbP8EkRib5FPiJvAwua480V9z429/+rfOXB882NH7i6+a0PfL6568Efzvffe9vAhezBzsfBbsmRaJn/PZijvumOTBREKjhi3/T+wA52gjp3e6ZfOTsUNJPdpaMdniMMPXBNfYs4ctvA62ie27F/5axUrMaH0i7c1xaefTFDSJQEBebHIprFNubwGmKAhwoWjIm7Xijg8TU1jFt0dImMiKvNVldsOqfLF8YtG2uXoOnCFuOjf8wZ+qhdV3gTj4UcCwUUDXqgKMFOihZJHKttmIN7jGVxw3G8xxgtTnAPf6UCsctntAE7WkDhngfHtmFV37BRGz9jVPuwwZjZT7t6T2zs432MnbHoGf7oQ9vVN9rVJgtMtGtRppjYh/XB8fBFnuJY9OlaivewhzbERHtoKx3AHsfQn7YDO3xGnhQn7GOOjsE9OSMvil0xsR829SAe2qEftYM4Il9qBziYc8xHH+3hWm0RRxwf+SQuHae44zXGKafopw1txzV80S7w6b3OY4wcQzsxJtjSvKCf8cMe+slfvCdGjic/9KXrGnNxoI/9h03TU/Q97ZAL+FRBQwzkhOtRfeCaPA0uaF7z+3c3p8MuDQp9iIvi7sa3zjfv/v35wvGouO/TdyQozp1/bPK1tyNhMSsOJhimXyGTeV07LdPxAYt83Y1fNZuIpkNbRxg4T3ZoDufOj8FY4CoJHdrxuW59DMfX2AVNn0/S5fm0tcvawrMPUO4QtBXKkRuMU5ES71UYUChS8LAo5/0ifGorjo0Ff+zH/aLYdE6XL47rijXGxnvgLB2LsC3ivWRz2bZl1hXfhPGmyxfe3OOBNi0u0M839Die7Xyjx9hYTOBe7cWCBHP6+KQvYmeBE/HTfsRKbIoF2BR7HyzEofZhQ/FwDLGqj5gHfA0Oc4Gl64A/9cGx0Tfa0QbfijEWfugjPtjlp/LEp5gxVotunavtxMT41T/79Awfpbhpn33MqeaOdhgrYkEcGEO/nMc4ESMKVeCLB8dyrvaTE+LBGbsW8AXbykEpdoyPfGouNQbY07HAUbJJjhgbzyWOYAM2iV9jox324X5RPJhPTuAXsXBnlrZhj5i4W0hucdb4iY/jNQbEzl1j9uvcuK5hC74ZD/HwXPLNPj0TP3OBeeqfPy+cg37yNrygufh487rrPt98LoiaoqD51rebG69b5T/VpCApFP8iNo7+VHIsbGfFTrFIDjs0M6KsTegc7pRQ3ByJFgqagx2ko/ZDXL0wxxh8X8zbmnarxi5oYqHKh8qunZcpPBfFgIJbv/bFa/1rb+CH7aX/owdigP0qduCboob9bQV+CWeXyOgjaPrERr9dvjgG52VjJQ/gEkcfbIt4V1yrXK9jXREP3pjbigGOGfq8DZ9tMZSwsKhC8bRrR1uhuk2c4AtFJ86bPOBPBU30jfy1CZo4dpfut8XnLnGQCctaBM2kwHzrnc1tf3f09bMoaL7yd2ebP3yri/FNFuP2tfp6G7ugyfJwW2fhmYUD4xyegXWuK4gZFPWbPLbhsy2+EpbSp8Bt8zfdDrx47dJREoWbwKeCRq/pexe5Irau87b47MLkvnYG1idoDj8hf93v3dr88R2fb2788+ubN/7555sb7/hEc9nvrbIrs3pR6sLeHC67Bixo2h8mu9SzzsJzl+I0ls0ysI51haIdX5nYZHG8DZ9tmWrDgh0QfNVkk7y0YdR2Fuz8mov2beuaX9vSrwxtEgs5oSDHmV8T2sUcLuJm23wuwuf+MgNrFzTLFo6eZ9Gxi2vAgqb8INm11nUUnrsWo/FsngGvq81zbo9mwAyYgT4MWNCs6XctdrEYN6bVRaIFTZ/HyvbHuPDcfg72EYHX1T5m1TGZATOwDwxY0FjQrP1PHe+TkLKgyfHYc+GZI0/ZUHpdZcuY8ZoBMzAWBixoLGgsaCrWgAVNjkejC88cecqG0usqW8aM1wyYgbEwYEFTUczu006DY1nu62cWNDkejS48c+QpG0qvq2wZM14zYAbGwoAFjQWNd2gq1oAFTY5HowvPHHnKhtLrKlvGjNcMmIGxMGBBU1HMeldjuV2NfeLNgibHo9GFZ448ZUPpdZUtY8ZrBszAWBiwoLGg8Q5NxRqwoMnxaHThmSNP2VB6XWXLmPGaATMwFgYsaCqK2X3aaXAsy+02WdDkeDS68MyRp2wova6yZcx4zYAZGAsDFjQWNN6hqVgDFjQ5Ho0uPHPkKRtKr6tsGTNeM2AGxsKABU1FMetdjeV2NfaJNwuaHI9GF5458pQNpddVtowZrxkwA2NhwILGgsY7NBVrwIImx6PRhWeOPGVD6XWVLWPGawbMwFgYsKCpKGb3aafBsSy322RBk+PR6MIzR56yofS6ypYx4zUDZmAsDFjQWNB4h6ZiDVjQ5Hg0uvDMkadsKL2usmXMeM2AGRgLAxY0FcWsdzWW29XYJ94saHI8Gl145shTNpReV9kyZrxmwAyMhQELGgsa79BUrAELmhyPRheeOfKUDaXXVbaMGa8ZMANjYcCCpqKY3aedBsey3G6TBU2OR6MLzxx5yobS6ypbxozXDJiBsTBgQWNB4x2aijWwSUGD4skvc+A14DXgNeA14DXgNeA10L0GLGgqilnvaiy3q7FPvG1S0IzlU5V1xIkHvw8zMDQDXldDM2p7ZsAMmIFhGLCgsaDxDk3FGrCgGebBs24rLjzXzfA47XtdjTPvjtoMmIHdZ8CCpqKY3aedBsey3G6TBc3uP9SA0IVnjjxlQ+l1lS1jxmsGzMBYGLCgsaDxDk3FGrCgyfFodOGZI0/ZUHpdZcuY8ZoBMzAWBixoKopZ72ost6uxT7xZ0OR4NLrwzJGnbCi9rrJlzHjNgBkYCwMWNBY03qGpWAMWNDkejS48c+QpG0qvq2wZM14zYAbGwoAFTUUxu087DY5lud0mC5ocj0YXnjnylA2l11W2jBmvGTADY2HAgsaCxjs0FWvAgibHo9GFZ448ZUPpdZUtY8ZrBszAWBiwoKkoZr2rsdyuxj7xZkGT49HowjNHnrKh9LrKljHjNQNmYCwM/H/67Oa1UCGaxAAAAABJRU5ErkJggg==;" vertex="1" parent="1">
          <mxGeometry x="530" y="90" width="565.01" height="390" as="geometry" />
        </mxCell>
        <mxCell id="RjzgLx3yJ-NzdkcLcUKh-58" value="&lt;br&gt;&lt;br&gt;&lt;br&gt;&lt;br&gt;VUE模板示例：&lt;br&gt;&lt;span style=&quot;white-space: pre&quot;&gt;	&lt;/span&gt;&lt;span style=&quot;white-space: pre&quot;&gt;	&lt;/span&gt;&lt;span style=&quot;white-space: pre&quot;&gt;	&lt;/span&gt;&lt;span style=&quot;white-space: pre&quot;&gt;	&lt;/span&gt;&lt;span style=&quot;white-space: pre&quot;&gt;	&lt;/span&gt;&lt;span style=&quot;white-space: pre&quot;&gt;	&lt;/span&gt;默认生成webpack打包配置，babel,jsLint,环境变量等配置文件&lt;br style=&quot;font-size: 15px&quot;&gt;集成后端权限管理，字典管理等功能" style="text;html=1;align=center;verticalAlign=middle;resizable=0;points=[];autosize=1;strokeColor=none;spacing=4;fontSize=15;" vertex="1" parent="1">
          <mxGeometry x="350" y="435" width="630" height="140" as="geometry" />
        </mxCell>
      </root>
    </mxGraphModel>
  </diagram>
</mxfile>
